0
SECTION
2
HEADER
9
$INSUNITS
70
4
9
$ACADVER
1
AC1014
9
$HANDSEED
5
FFFF
0
ENDSEC
0
SECTION
2
TABLES
0
TABLE
2
VPORT
5
8
100
AcDbSymbolTable
0
ENDTAB
0
TABLE
2
LTYPE
5
5
100
AcDbSymbolTable
0
LTYPE
5
14
100
AcDbSymbolTableRecord
100
AcDbLinetypeTableRecord
2
BYBLOCK
70
0
0
LTYPE
5
15
100
AcDbSymbolTableRecord
100
AcDbLinetypeTableRecord
2
BYLAYER
70
0
0
ENDTAB
0
TABLE
2
LAYER
5
2
100
AcDbSymbolTable
70
2
0
LAYER
5
50
100
AcDbSymbolTableRecord
100
AcDbLayerTableRecord
2
0
70
0
6
CONTINUOUS
0
ENDTAB
0
TABLE
2
STYLE
5
3
100
AcDbSymbolTable
70
1
0
STYLE
5
11
100
AcDbSymbolTableRecord
100
AcDbTextStyleTableRecord
2
STANDARD
70
0
0
ENDTAB
0
TABLE
2
VIEW
5
6
100
AcDbSymbolTable
70
0
0
ENDTAB
0
TABLE
2
UCS
5
7
100
AcDbSymbolTable
70
0
0
ENDTAB
0
TABLE
2
APPID
5
9
100
AcDbSymbolTable
70
2
0
APPID
5
12
100
AcDbSymbolTableRecord
100
AcDbRegAppTableRecord
2
ACAD
70
0
0
ENDTAB
0
TABLE
2
DIMSTYLE
5
A
100
AcDbSymbolTable
70
1
0
ENDTAB
0
TABLE
2
BLOCK_RECORD
5
1
100
AcDbSymbolTable
70
1
0
BLOCK_RECORD
5
1F
100
AcDbSymbolTableRecord
100
AcDbBlockTableRecord
2
*MODEL_SPACE
0
BLOCK_RECORD
5
1B
100
AcDbSymbolTableRecord
100
AcDbBlockTableRecord
2
*PAPER_SPACE
0
ENDTAB
0
ENDSEC
0
SECTION
2
BLOCKS
0
BLOCK
5
20
100
AcDbEntity
100
AcDbBlockBegin
2
*MODEL_SPACE
0
ENDBLK
5
21
100
AcDbEntity
100
AcDbBlockEnd
0
BLOCK
5
1C
100
AcDbEntity
100
AcDbBlockBegin
2
*PAPER_SPACE
0
ENDBLK
5
1D
100
AcDbEntity
100
AcDbBlockEnd
0
ENDSEC
0
SECTION
2
ENTITIES
0
LWPOLYLINE
5
100
100
AcDbEntity
8
0
100
AcDbPolyline
90
6
70
1
43
0.0
10
-30
20
-55.399999999999999
10
-15
20
-55.399999999999999
10
-15
20
-57.5
10
0
20
-57.5
10
0
20
-60
10
-30
20
-60
0
LWPOLYLINE
5
101
100
AcDbEntity
8
0
100
AcDbPolyline
90
16
70
1
43
0.0
10
-30
20
-51.850000000000009
10
-15
20
-51.850000000000009
10
-15
20
-50.899999999999999
10
-30
20
-50.899999999999999
10
-30
20
-49.600000000000001
10
-15
20
-49.600000000000001
10
-15
20
-47.5
10
0
20
-47.5
10
0
20
-57.5
10
-15
20
-57.5
10
-15
20
-55.399999999999999
10
-30
20
-55.399999999999999
10
-30
20
-54.100000000000001
10
-15
20
-54.100000000000001
10
-15
20
-53.149999999999991
10
-30
20
-53.149999999999991
0
LWPOLYLINE
5
102
100
AcDbEntity
8
0
100
AcDbPolyline
90
6
70
1
43
0.0
10
0
20
-47.5
10
-15
20
-47.5
10
-15
20
-49.600000000000001
10
-30
20
-49.600000000000001
10
-30
20
-45
10
0
20
-45
0
LWPOLYLINE
5
103
100
AcDbEntity
8
0
100
AcDbPolyline
90
16
70
1
43
0.0
10
-30
20
-36.850000000000001
10
-15
20
-36.850000000000001
10
-15
20
-35.899999999999999
10
-30
20
-35.899999999999999
10
-30
20
-34.600000000000001
10
-15
20
-34.600000000000001
10
-15
20
-32.5
10
0
20
-32.5
10
0
20
-42.5
10
-15
20
-42.5
10
-15
20
-40.399999999999999
10
-30
20
-40.399999999999999
10
-30
20
-39.100000000000001
10
-15
20
-39.100000000000001
10
-15
20
-38.149999999999999
10
-30
20
-38.149999999999999
0
LWPOLYLINE
5
104
100
AcDbEntity
8
0
100
AcDbPolyline
90
6
70
1
43
0.0
10
-30
20
-40.399999999999999
10
-15
20
-40.399999999999999
10
-15
20
-42.5
10
0
20
-42.5
10
0
20
-45
10
-30
20
-45
0
LWPOLYLINE
5
105
100
AcDbEntity
8
0
100
AcDbPolyline
90
6
70
1
43
0.0
10
0
20
-32.5
10
-15
20
-32.5
10
-15
20
-34.600000000000001
10
-30
20
-34.600000000000001
10
-30
20
-30
10
0
20
-30
0
LWPOLYLINE
5
106
100
AcDbEntity
8
0
100
AcDbPolyline
90
16
70
1
43
0.0
10
-30
20
-21.850000000000001
10
-15
20
-21.850000000000001
10
-15
20
-20.899999999999999
10
-30
20
-20.899999999999999
10
-30
20
-19.600000000000001
10
-15
20
-19.600000000000001
10
-15
20
-17.5
10
0
20
-17.5
10
0
20
-27.5
10
-15
20
-27.5
10
-15
20
-25.399999999999999
10
-30
20
-25.399999999999999
10
-30
20
-24.100000000000001
10
-15
20
-24.100000000000001
10
-15
20
-23.149999999999999
10
-30
20
-23.149999999999999
0
LWPOLYLINE
5
107
100
AcDbEntity
8
0
100
AcDbPolyline
90
6
70
1
43
0.0
10
-30
20
-25.399999999999999
10
-15
20
-25.399999999999999
10
-15
20
-27.5
10
0
20
-27.5
10
0
20
-30
10
-30
20
-30
0
LWPOLYLINE
5
108
100
AcDbEntity
8
0
100
AcDbPolyline
90
6
70
1
43
0.0
10
0
20
-17.5
10
-15
20
-17.5
10
-15
20
-19.600000000000001
10
-30
20
-19.600000000000001
10
-30
20
-15
10
0
20
-15
0
LWPOLYLINE
5
109
100
AcDbEntity
8
0
100
AcDbPolyline
90
16
70
1
43
0.0
10
-30
20
-6.8500000000000005
10
-15
20
-6.8500000000000005
10
-15
20
-5.8999999999999986
10
-30
20
-5.8999999999999986
10
-30
20
-4.5999999999999996
10
-15
20
-4.5999999999999996
10
-15
20
-2.5
10
0
20
-2.5
10
0
20
-12.5
10
-15
20
-12.5
10
-15
20
-10.400000000000002
10
-30
20
-10.400000000000002
10
-30
20
-9.1000000000000014
10
-15
20
-9.1000000000000014
10
-15
20
-8.1499999999999986
10
-30
20
-8.1499999999999986
0
LWPOLYLINE
5
110
100
AcDbEntity
8
0
100
AcDbPolyline
90
6
70
1
43
0.0
10
-30
20
-10.400000000000002
10
-15
20
-10.400000000000002
10
-15
20
-12.5
10
0
20
-12.5
10
0
20
-15
10
-30
20
-15
0
LWPOLYLINE
5
111
100
AcDbEntity
8
0
100
AcDbPolyline
90
6
70
1
43
0.0
10
0
20
-2.5
10
-15
20
-2.5
10
-15
20
-4.5999999999999996
10
-30
20
-4.5999999999999996
10
-30
20
0
10
0
20
0
0
LWPOLYLINE
5
112
100
AcDbEntity
8
0
100
AcDbPolyline
90
16
70
1
43
0.0
10
-30
20
8.1499999999999986
10
-15
20
8.1499999999999986
10
-15
20
9.1000000000000014
10
-30
20
9.1000000000000014
10
-30
20
10.4
10
-15
20
10.4
10
-15
20
12.5
10
0
20
12.5
10
0
20
2.5
10
-15
20
2.5
10
-15
20
4.5999999999999979
10
-30
20
4.5999999999999979
10
-30
20
5.8999999999999986
10
-15
20
5.8999999999999986
10
-15
20
6.8500000000000005
10
-30
20
6.8500000000000005
0
LWPOLYLINE
5
113
100
AcDbEntity
8
0
100
AcDbPolyline
90
6
70
1
43
0.0
10
-30
20
4.5999999999999979
10
-15
20
4.5999999999999979
10
-15
20
2.5
10
0
20
2.5
10
0
20
0
10
-30
20
0
0
LWPOLYLINE
5
114
100
AcDbEntity
8
0
100
AcDbPolyline
90
6
70
1
43
0.0
10
0
20
12.5
10
-15
20
12.5
10
-15
20
10.4
10
-30
20
10.4
10
-30
20
15
10
0
20
15
0
ENDSEC
0
SECTION
2
OBJECTS
0
DICTIONARY
5
C
100
AcDbDictionary
3
ACAD_GROUP
350
D
3
ACAD_MLINESTYLE
350
17
0
DICTIONARY
5
D
100
AcDbDictionary
0
DICTIONARY
5
1A
330
C
100
AcDbDictionary
0
DICTIONARY
5
17
100
AcDbDictionary
0
ENDSEC
0
EOF
