0
SECTION
2
HEADER
9
$INSUNITS
70
4
9
$ACADVER
1
AC1014
9
$HANDSEED
5
FFFF
0
ENDSEC
0
SECTION
2
TABLES
0
TABLE
2
VPORT
5
8
100
AcDbSymbolTable
0
ENDTAB
0
TABLE
2
LTYPE
5
5
100
AcDbSymbolTable
0
LTYPE
5
14
100
AcDbSymbolTableRecord
100
AcDbLinetypeTableRecord
2
BYBLOCK
70
0
0
LTYPE
5
15
100
AcDbSymbolTableRecord
100
AcDbLinetypeTableRecord
2
BYLAYER
70
0
0
ENDTAB
0
TABLE
2
LAYER
5
2
100
AcDbSymbolTable
70
2
0
LAYER
5
50
100
AcDbSymbolTableRecord
100
AcDbLayerTableRecord
2
0
70
0
6
CONTINUOUS
0
ENDTAB
0
TABLE
2
STYLE
5
3
100
AcDbSymbolTable
70
1
0
STYLE
5
11
100
AcDbSymbolTableRecord
100
AcDbTextStyleTableRecord
2
STANDARD
70
0
0
ENDTAB
0
TABLE
2
VIEW
5
6
100
AcDbSymbolTable
70
0
0
ENDTAB
0
TABLE
2
UCS
5
7
100
AcDbSymbolTable
70
0
0
ENDTAB
0
TABLE
2
APPID
5
9
100
AcDbSymbolTable
70
2
0
APPID
5
12
100
AcDbSymbolTableRecord
100
AcDbRegAppTableRecord
2
ACAD
70
0
0
ENDTAB
0
TABLE
2
DIMSTYLE
5
A
100
AcDbSymbolTable
70
1
0
ENDTAB
0
TABLE
2
BLOCK_RECORD
5
1
100
AcDbSymbolTable
70
1
0
BLOCK_RECORD
5
1F
100
AcDbSymbolTableRecord
100
AcDbBlockTableRecord
2
*MODEL_SPACE
0
BLOCK_RECORD
5
1B
100
AcDbSymbolTableRecord
100
AcDbBlockTableRecord
2
*PAPER_SPACE
0
ENDTAB
0
ENDSEC
0
SECTION
2
BLOCKS
0
BLOCK
5
20
100
AcDbEntity
100
AcDbBlockBegin
2
*MODEL_SPACE
0
ENDBLK
5
21
100
AcDbEntity
100
AcDbBlockEnd
0
BLOCK
5
1C
100
AcDbEntity
100
AcDbBlockBegin
2
*PAPER_SPACE
0
ENDBLK
5
1D
100
AcDbEntity
100
AcDbBlockEnd
0
ENDSEC
0
SECTION
2
ENTITIES
0
SPLINE
5
100
100
AcDbEntity
8
0
100
AcDbSpline
70
0
71
3
72
54
73
50
74
0
42
0.000000001
43
0.0000000001
44
0.0000000001
40
2.5280639953924737
40
2.5280639953924737
40
2.5280639953924737
40
2.5280639953924737
40
4.6587935344776579
40
4.6587935344776579
40
5.7697759253853
40
5.7697759253853
40
6.4448203611202679
40
6.4448203611202679
40
6.9541505360685019
40
6.9541505360685019
40
7.4763124289732108
40
7.4763124289732108
40
8.264607775437554
40
8.264607775437554
40
10.074055328757579
40
10.074055328757579
40
11.395484347007185
40
11.395484347007185
40
12.130287013801219
40
12.130287013801219
40
12.759494209187121
40
12.759494209187121
40
13.458594899552349
40
13.458594899552349
40
14.494504877287602
40
14.494504877287602
40
16.001211686061065
40
16.001211686061065
40
16.876691057374803
40
16.876691057374803
40
17.498395028585975
40
17.498395028585975
40
18.089855489176859
40
18.089855489176859
40
18.904442402363994
40
18.904442402363994
40
20.774494095086471
40
20.774494095086471
40
22.093992762388314
40
22.093992762388314
40
22.841600716165679
40
22.841600716165679
40
23.521881700733726
40
23.521881700733726
40
24.303265227950074
40
24.303265227950074
40
25.544421855424218
40
25.544421855424218
40
25.621461723881591
40
25.621461723881591
40
25.621461723881591
40
25.621461723881591
10
-206.14608026460451
20
-95.71747449627685
30
0
10
-206.82043080066563
20
-90.977981706724222
30
0
10
-207.04317533796299
20
-87.128648166863286
30
0
10
-206.67263421991817
20
-82.588336814263968
30
0
10
-206.40615202529307
20
-81.103275934793061
30
0
10
-205.60880788258888
20
-79.092633754036257
30
0
10
-205.2010226602508
20
-78.365644607679258
30
0
10
-204.21338193793116
20
-77.321626046574622
30
0
10
-203.7219500953309
20
-76.97020341896156
30
0
10
-202.57697596858594
20
-76.463047390411688
30
0
10
-201.95849791540104
20
-76.329696046028047
30
0
10
-200.37354947143513
20
-76.204629293068862
30
0
10
-199.34950779776332
20
-76.316065056902985
30
0
10
-195.88079194951348
20
-77.009908996504706
30
0
10
-193.18869899389242
20
-78.043063699358001
30
0
10
-188.54145278664566
20
-79.373087966165969
30
0
10
-186.54812545140319
20
-79.804353646097169
30
0
10
-183.65520005144899
20
-79.718854610914974
30
0
10
-182.64095750655005
20
-79.537125208333748
30
0
10
-180.8811488418894
20
-78.768848189418733
30
0
10
-180.17079137332917
20
-78.267001200456889
30
0
10
-178.87513107806495
20
-76.922291552110352
30
0
10
-178.3453744572721
20
-76.081674930136614
30
0
10
-177.33880700784692
20
-73.861429384896894
30
0
10
-176.99229425094057
20
-72.379232793565578
30
0
10
-176.62633427666111
20
-68.817014253912163
30
0
10
-176.80891647270042
20
-66.597324902480935
30
0
10
-177.73134291971954
20
-63.584441500606985
30
0
10
-178.23307760836798
20
-62.49414187412949
30
0
10
-179.46379618000319
20
-60.941389545369695
30
0
10
-180.07194197858877
20
-60.40457058823992
30
0
10
-181.47977875924656
20
-59.625289867575816
30
0
10
-182.21854682834123
20
-59.396972992775865
30
0
10
-184.06254389110384
20
-59.116123147132583
30
0
10
-185.20944918475533
20
-59.160612651713052
30
0
10
-189.1535940966113
20
-59.671333962918766
30
0
10
-192.25757015627917
20
-60.624284013363869
30
0
10
-197.831426971464
20
-61.566979397295697
30
0
10
-200.43108428200867
20
-61.794401496091439
30
0
10
-204.33512675802749
20
-61.036186293626358
30
0
10
-205.67648632304008
20
-60.540364986551971
30
0
10
-207.97449990657441
20
-59.042496201643402
30
0
10
-208.88790836303897
20
-58.133192994483778
30
0
10
-210.46682029784992
20
-55.810726619575711
30
0
10
-211.03193068126942
20
-54.407342286264736
30
0
10
-211.96263547702119
20
-50.630172738682916
30
0
10
-212.02683363676266
20
-48.128152869147286
30
0
10
-211.82675268862369
20
-45.596674674829572
30
0
10
-211.8140158195844
20
-45.448293434568384
30
0
10
-211.80025584919818
20
-45.299497756481117
30
0
0
ARC
5
101
100
AcDbEntity
8
0
100
AcDbCircle
10
-196.83346220187985
20
140.64830700364271
30
0
40
186.5491651205937
210
0
220
0
230
1
100
AcDbArc
50
263.74949144344941
51
265.39822787314102
0
ARC
5
102
100
AcDbEntity
8
0
100
AcDbCircle
10
-451.83346220187991
20
-74.396388560533467
30
0
40
236.54916512059373
210
0
220
-0
230
1
100
AcDbArc
50
7.1895079743447683
51
73.093201841900054
0
ARC
5
103
100
AcDbEntity
8
0
100
AcDbCircle
10
-196.83346220187985
20
140.64830700364271
30
0
40
186.5491651205937
210
0
220
0
230
1
100
AcDbArc
50
97.174203173174362
51
176.5332183727954
0
SPLINE
5
104
100
AcDbEntity
8
0
100
AcDbSpline
70
0
71
3
72
52
73
48
74
0
42
0.000000001
43
0.0000000001
44
0.0000000001
40
5.2561942807996598
40
5.2561942807996598
40
5.2561942807996598
40
5.2561942807996598
40
7.5567465474048907
40
7.5567465474048907
40
8.3085560786629564
40
8.3085560786629564
40
8.7970541318798468
40
8.7970541318798468
40
9.2148682483572273
40
9.2148682483572273
40
9.7244913846583341
40
9.7244913846583341
40
10.617028186804932
40
10.617028186804932
40
13.252531898722799
40
13.252531898722799
40
14.064694447752567
40
14.064694447752567
40
14.701465421412466
40
14.701465421412466
40
15.350921627340197
40
15.350921627340197
40
16.244412957313184
40
16.244412957313184
40
17.557815652611154
40
17.557815652611154
40
18.492450318783874
40
18.492450318783874
40
19.101390624915616
40
19.101390624915616
40
19.63467869750577
40
19.63467869750577
40
20.285064312369961
40
20.285064312369961
40
21.518442007481916
40
21.518442007481916
40
23.081917542683719
40
23.081917542683719
40
23.965823876635774
40
23.965823876635774
40
24.646546554108571
40
24.646546554108571
40
25.326171913309349
40
25.326171913309349
40
26.223089398521612
40
26.223089398521612
40
27.441758619684091
40
27.441758619684091
40
27.441758619684091
40
27.441758619684091
10
-220.13094040380571
20
325.73698444400185
30
0
10
-220.70460936460034
20
331.85420442655294
30
0
10
-220.6543335484875
20
336.59581875993933
30
0
10
-219.54285662926534
20
340.84980645625785
30
0
10
-219.16430224223933
20
341.80990666279291
30
0
10
-218.28767120238805
20
343.09571030062057
30
0
10
-217.86908284557364
20
343.53815908229944
30
0
10
-216.91725135256502
20
344.16233138506652
30
0
10
-216.43914714790228
20
344.35315263061062
30
0
10
-215.29893155446192
20
344.59159178516978
30
0
10
-214.64859795649062
20
344.59213818186038
30
0
10
-212.90164496270017
20
344.39539646975027
30
0
10
-211.71096984856985
20
344.03578506470319
30
0
10
-206.90617738039222
20
342.21848002158828
30
0
10
-202.82304396101057
20
339.87371032897431
30
0
10
-197.79269369616472
20
339.02046369106694
30
0
10
-196.57571086940612
20
338.97093876784083
30
0
10
-194.47020061893184
20
339.39038428828292
30
0
10
-193.61556206901739
20
339.73984689130276
30
0
10
-192.03705813852497
20
340.80287785667417
30
0
10
-191.36521207733756
20
341.4911435468415
30
0
10
-190.03222589401557
20
343.34276342044319
30
0
10
-189.46860101403789
20
344.58876076504066
30
0
10
-188.51158137894646
20
347.71211554092088
30
0
10
-188.27334226770742
20
349.77199731530931
30
0
10
-188.50355278182172
20
353.08380401288645
30
0
10
-188.79594505892067
20
354.50358114645189
30
0
10
-189.76362870275861
20
356.56117334969622
30
0
10
-190.27059773188773
20
357.29936193775535
30
0
10
-191.51511792608977
20
358.43606427078612
30
0
10
-192.17688971822065
20
358.83031517029804
30
0
10
-193.81228990712501
20
359.45022503263152
30
0
10
-194.77756760745936
20
359.60194602835031
30
0
10
-197.5477017449852
20
359.7492011033122
30
0
10
-199.5703616555648
20
359.49566381869289
30
0
10
-204.38024595542188
20
358.84983083640662
30
0
10
-207.27486733988283
20
358.43230326354558
30
0
10
-211.64000848455362
20
358.7348278343884
30
0
10
-213.21126458115452
20
359.04130762892129
30
0
10
-215.75998117625494
20
360.18049914841646
30
0
10
-216.74768214062266
20
360.8573177491192
30
0
10
-218.41361432050599
20
362.61965719726322
30
0
10
-219.03758214195892
20
363.64680531338627
30
0
10
-220.07534629612945
20
366.26000957763426
30
0
10
-220.3409393315529
20
367.87512987407354
30
0
10
-220.49021714920517
20
371.64935408101326
30
0
10
-220.2080400372495
20
373.91501166540542
30
0
10
-219.74532470036192
20
376.0852498909062
30
0
0
ARC
5
105
100
AcDbEntity
8
0
100
AcDbCircle
10
-196.83346220187985
20
140.64830700364271
30
0
40
236.54916512059373
210
0
220
0
230
1
100
AcDbArc
50
95.558313262859997
51
174.97706238471153
0
ARC
5
106
100
AcDbEntity
8
0
100
AcDbCircle
10
-451.83346220187991
20
-74.396388560533467
30
0
40
236.54916512059373
210
0
220
-0
230
1
100
AcDbArc
50
85.305647431533316
51
354.97706238471159
0
ARC
5
107
100
AcDbEntity
8
0
100
AcDbCircle
10
-196.83346220187985
20
140.64830700364271
30
0
40
236.54916512059373
210
0
220
0
230
1
100
AcDbArc
50
265.30564743153337
51
267.74376021488376
0
LWPOLYLINE
5
108
100
AcDbEntity
8
0
100
AcDbPolyline
90
2
70
1
43
0.0
10
-265.62567743130165
20
-85.676986861357818
42
-2.4996636064873297
10
-431.52279162349663
20
111.04381114774704
42
0.2957564663803387
0
ARC
5
109
100
AcDbEntity
8
0
100
AcDbCircle
10
-451.83346220187991
20
-74.396388560533467
30
0
40
186.54916512059378
210
0
220
-0
230
1
100
AcDbArc
50
13.528654573837949
51
66.754055242406849
0
ARC
5
110
100
AcDbEntity
8
0
100
AcDbCircle
10
-196.83346220187985
20
140.64830700364271
30
0
40
186.54916512059361
210
0
220
0
230
1
100
AcDbArc
50
193.52865457383794
51
246.75405524240688
0
CIRCLE
5
111
100
AcDbEntity
8
0
100
AcDbCircle
10
-240.28429708128616
20
-74.396388560533381
30
0
40
3.0000000000000004
210
0
220
-0
230
1
0
CIRCLE
5
112
100
AcDbEntity
8
0
100
AcDbCircle
10
-250.63825019713983
20
-139.76867572862869
30
0
40
3
210
0
220
-0
230
1
0
CIRCLE
5
113
100
AcDbEntity
8
0
100
AcDbCircle
10
-280.68659247348768
20
-198.74186795320361
30
0
40
3.0000000000000004
210
0
220
-0
230
1
0
CIRCLE
5
114
100
AcDbEntity
8
0
100
AcDbCircle
10
-327.4879828092096
20
-245.54325828892553
30
0
40
3.0000000000000004
210
0
220
-0
230
1
0
CIRCLE
5
115
100
AcDbEntity
8
0
100
AcDbCircle
10
-386.46117503378446
20
-275.59160056527344
30
0
40
3
210
0
220
-0
230
1
0
CIRCLE
5
116
100
AcDbEntity
8
0
100
AcDbCircle
10
-451.83346220187985
20
-285.94555368112702
30
0
40
3.0000000000000004
210
0
220
-0
230
1
0
CIRCLE
5
117
100
AcDbEntity
8
0
100
AcDbCircle
10
-517.20574936997514
20
-275.59160056527338
30
0
40
3
210
0
220
-0
230
1
0
CIRCLE
5
118
100
AcDbEntity
8
0
100
AcDbCircle
10
-576.17894159455011
20
-245.54325828892556
30
0
40
3.0000000000000009
210
0
220
-0
230
1
0
CIRCLE
5
119
100
AcDbEntity
8
0
100
AcDbCircle
10
-622.98033193027209
20
-198.74186795320358
30
0
40
3.0000000000000004
210
0
220
-0
230
1
0
CIRCLE
5
120
100
AcDbEntity
8
0
100
AcDbCircle
10
-653.02867420661983
20
-139.76867572862872
30
0
40
3.0000000000000004
210
0
220
-0
230
1
0
CIRCLE
5
121
100
AcDbEntity
8
0
100
AcDbCircle
10
-663.38262732247358
20
-74.39638856053341
30
0
40
3.0000000000000004
210
0
220
-0
230
1
0
CIRCLE
5
122
100
AcDbEntity
8
0
100
AcDbCircle
10
-653.02867420661994
20
-9.024101392438082
30
0
40
3.0000000000000009
210
-0
220
0
230
1
0
CIRCLE
5
123
100
AcDbEntity
8
0
100
AcDbCircle
10
-622.98033193027209
20
49.949090832136832
30
0
40
3.0000000000000009
210
-0
220
0
230
1
0
CIRCLE
5
124
100
AcDbEntity
8
0
100
AcDbCircle
10
-576.17894159455
20
96.750481167858808
30
0
40
3.0000000000000004
210
-0
220
0
230
1
0
CIRCLE
5
125
100
AcDbEntity
8
0
100
AcDbCircle
10
-517.20574936997514
20
126.79882344420665
30
0
40
3.0000000000000004
210
-0
220
0
230
1
0
CIRCLE
5
126
100
AcDbEntity
8
0
100
AcDbCircle
10
-451.83346220187991
20
137.15277656006035
30
0
40
3.0000000000000004
210
-0
220
0
230
1
0
CIRCLE
5
127
100
AcDbEntity
8
0
100
AcDbCircle
10
-386.46117503378457
20
126.79882344420673
30
0
40
3.0000000000000009
210
0
220
-0
230
1
0
CIRCLE
5
128
100
AcDbEntity
8
0
100
AcDbCircle
10
-327.48798280920965
20
96.750481167858879
30
0
40
3.0000000000000004
210
0
220
-0
230
1
0
CIRCLE
5
129
100
AcDbEntity
8
0
100
AcDbCircle
10
-280.68659247348762
20
49.949090832136882
30
0
40
3.0000000000000004
210
0
220
-0
230
1
0
CIRCLE
5
130
100
AcDbEntity
8
0
100
AcDbCircle
10
-250.63825019713985
20
-9.0241013924380198
30
0
40
3.0000000000000004
210
0
220
-0
230
1
0
CIRCLE
5
131
100
AcDbEntity
8
0
100
AcDbCircle
10
-196.83346220187985
20
-70.900858116950999
30
0
40
3.0000000000000004
210
0
220
-0
230
1
0
CIRCLE
5
132
100
AcDbEntity
8
0
100
AcDbCircle
10
-262.20574936997519
20
-60.546905001097358
30
0
40
3
210
0
220
-0
230
1
0
CIRCLE
5
133
100
AcDbEntity
8
0
100
AcDbCircle
10
-321.17894159455005
20
-30.498562724749512
30
0
40
3.0000000000000009
210
0
220
-0
230
1
0
CIRCLE
5
134
100
AcDbEntity
8
0
100
AcDbCircle
10
-367.98033193027203
20
16.30282761097245
30
0
40
3.0000000000000004
210
0
220
-0
230
1
0
CIRCLE
5
135
100
AcDbEntity
8
0
100
AcDbCircle
10
-398.02867420661988
20
75.276019835547345
30
0
40
3.0000000000000004
210
0
220
-0
230
1
0
CIRCLE
5
136
100
AcDbEntity
8
0
100
AcDbCircle
10
-408.38262732247358
20
140.64830700364266
30
0
40
3.0000000000000004
210
0
220
-0
230
1
0
CIRCLE
5
137
100
AcDbEntity
8
0
100
AcDbCircle
10
-398.02867420661988
20
206.02059417173803
30
0
40
3.0000000000000009
210
-0
220
0
230
1
0
CIRCLE
5
138
100
AcDbEntity
8
0
100
AcDbCircle
10
-367.98033193027209
20
264.99378639631294
30
0
40
3.0000000000000009
210
-0
220
0
230
1
0
CIRCLE
5
139
100
AcDbEntity
8
0
100
AcDbCircle
10
-321.17894159455005
20
311.79517673203486
30
0
40
3.0000000000000004
210
-0
220
0
230
1
0
CIRCLE
5
140
100
AcDbEntity
8
0
100
AcDbCircle
10
-262.20574936997525
20
341.84351900838283
30
0
40
3.0000000000000004
210
-0
220
0
230
1
0
CIRCLE
5
141
100
AcDbEntity
8
0
100
AcDbCircle
10
-196.83346220187988
20
352.19747212423641
30
0
40
3.0000000000000004
210
-0
220
0
230
1
0
ENDSEC
0
SECTION
2
OBJECTS
0
DICTIONARY
5
C
100
AcDbDictionary
3
ACAD_GROUP
350
D
3
ACAD_MLINESTYLE
350
17
0
DICTIONARY
5
D
100
AcDbDictionary
0
DICTIONARY
5
1A
330
C
100
AcDbDictionary
0
DICTIONARY
5
17
100
AcDbDictionary
0
ENDSEC
0
EOF
