0
SECTION
2
HEADER
9
$INSUNITS
70
4
9
$ACADVER
1
AC1014
9
$HANDSEED
5
FFFF
0
ENDSEC
0
SECTION
2
TABLES
0
TABLE
2
VPORT
5
8
100
AcDbSymbolTable
0
ENDTAB
0
TABLE
2
LTYPE
5
5
100
AcDbSymbolTable
0
LTYPE
5
14
100
AcDbSymbolTableRecord
100
AcDbLinetypeTableRecord
2
BYBLOCK
70
0
0
LTYPE
5
15
100
AcDbSymbolTableRecord
100
AcDbLinetypeTableRecord
2
BYLAYER
70
0
0
ENDTAB
0
TABLE
2
LAYER
5
2
100
AcDbSymbolTable
70
2
0
LAYER
5
50
100
AcDbSymbolTableRecord
100
AcDbLayerTableRecord
2
0
70
0
6
CONTINUOUS
0
ENDTAB
0
TABLE
2
STYLE
5
3
100
AcDbSymbolTable
70
1
0
STYLE
5
11
100
AcDbSymbolTableRecord
100
AcDbTextStyleTableRecord
2
STANDARD
70
0
0
ENDTAB
0
TABLE
2
VIEW
5
6
100
AcDbSymbolTable
70
0
0
ENDTAB
0
TABLE
2
UCS
5
7
100
AcDbSymbolTable
70
0
0
ENDTAB
0
TABLE
2
APPID
5
9
100
AcDbSymbolTable
70
2
0
APPID
5
12
100
AcDbSymbolTableRecord
100
AcDbRegAppTableRecord
2
ACAD
70
0
0
ENDTAB
0
TABLE
2
DIMSTYLE
5
A
100
AcDbSymbolTable
70
1
0
ENDTAB
0
TABLE
2
BLOCK_RECORD
5
1
100
AcDbSymbolTable
70
1
0
BLOCK_RECORD
5
1F
100
AcDbSymbolTableRecord
100
AcDbBlockTableRecord
2
*MODEL_SPACE
0
BLOCK_RECORD
5
1B
100
AcDbSymbolTableRecord
100
AcDbBlockTableRecord
2
*PAPER_SPACE
0
ENDTAB
0
ENDSEC
0
SECTION
2
BLOCKS
0
BLOCK
5
20
100
AcDbEntity
100
AcDbBlockBegin
2
*MODEL_SPACE
0
ENDBLK
5
21
100
AcDbEntity
100
AcDbBlockEnd
0
BLOCK
5
1C
100
AcDbEntity
100
AcDbBlockBegin
2
*PAPER_SPACE
0
ENDBLK
5
1D
100
AcDbEntity
100
AcDbBlockEnd
0
ENDSEC
0
SECTION
2
ENTITIES
0
SPLINE
5
100
100
AcDbEntity
8
0
100
AcDbSpline
70
0
71
3
72
52
73
48
74
0
42
0.000000001
43
0.0000000001
44
0.0000000001
40
0.086384373037741297
40
0.086384373037741297
40
0.086384373037741297
40
0.086384373037741297
40
1.605823177571065
40
1.605823177571065
40
2.4880505466928993
40
2.4880505466928993
40
3.1943460832305655
40
3.1943460832305655
40
3.8603992356412697
40
3.8603992356412697
40
4.7939703826861093
40
4.7939703826861093
40
6.9517410372222255
40
6.9517410372222255
40
8.2532127031712967
40
8.2532127031712967
40
9.1966048413857653
40
9.1966048413857653
40
10.111845770333124
40
10.111845770333124
40
11.281498014781752
40
11.281498014781752
40
12.786342927014157
40
12.786342927014157
40
13.68625455689906
40
13.68625455689906
40
14.289106828513733
40
14.289106828513733
40
14.826976962650255
40
14.826976962650255
40
15.480423275461753
40
15.480423275461753
40
16.622433712835349
40
16.622433712835349
40
18.87187404287361
40
18.87187404287361
40
19.785875610050208
40
19.785875610050208
40
20.437386745058859
40
20.437386745058859
40
21.016342681154594
40
21.016342681154594
40
21.679680140012408
40
21.679680140012408
40
22.773002917382964
40
22.773002917382964
40
25.088196395986937
40
25.088196395986937
40
25.088196395986937
40
25.088196395986937
10
45.463121210209096
20
-310.60420114564641
30
0
10
44.895792025563694
20
-305.76085179283444
30
0
10
45.02544377470096
20
-302.48234220052245
30
0
10
45.837007269707115
20
-298.82638472800687
30
0
10
46.270678558458116
20
-297.79124312404088
30
0
10
47.225999732231415
20
-296.34352399488068
30
0
10
47.747692715701682
20
-295.79598833187987
30
0
10
48.992878050920069
20
-294.95916351201987
30
0
10
49.658440178387465
20
-294.68677973096976
30
0
10
51.355223219424616
20
-294.26534794148785
30
0
10
52.433745382253505
20
-294.20750667039113
30
0
10
56.145551378701512
20
-294.33514900117899
30
0
10
59.070466128574743
20
-294.94483235950429
30
0
10
63.730200773422595
20
-295.19744703045274
30
0
10
65.526445439386961
20
-295.13071049634743
30
0
10
68.445534181877278
20
-294.3058356395249
30
0
10
69.563714227571339
20
-293.7586881920887
30
0
10
71.529490416437255
20
-292.20281186595724
30
0
10
72.319670997899451
20
-291.25769924202291
30
0
10
73.757729055171851
20
-288.84846471939625
30
0
10
74.302404445843166
20
-287.31692005215177
30
0
10
75.012137941732718
20
-283.79081985785103
30
0
10
75.036307626618168
20
-281.72982202928517
30
0
10
74.46373748994705
20
-278.84133436420279
30
0
10
74.093510563196318
20
-277.75567330422268
30
0
10
73.108527783155566
20
-276.20669890764367
30
0
10
72.617989393693932
20
-275.66188961351492
30
0
10
71.47652147166643
20
-274.86042976081677
30
0
10
70.883568014339161
20
-274.60323841707128
30
0
10
69.465537109898776
20
-274.26491343496468
30
0
10
68.654418249650917
20
-274.24248882985034
30
0
10
66.468528506753472
20
-274.43075374750219
30
0
10
64.98159091082151
20
-274.83992628793482
30
0
10
60.498680585052433
20
-276.36334999068504
30
0
10
57.33567889862573
20
-277.81540055840492
30
0
10
53.08202028841712
20
-278.79650461155717
30
0
10
51.772507254177711
20
-278.97877215820932
30
0
10
49.6104855900129
20
-278.82398523102279
30
0
10
48.73605924563342
20
-278.62169062523475
30
0
10
47.208204204003522
20
-277.87071442418699
30
0
10
46.587795234696756
20
-277.38589050627974
30
0
10
45.458112780755549
20
-276.09103042585042
30
0
10
45.009722713077203
20
-275.28010658867805
30
0
10
44.129890248953686
20
-273.01442519336877
30
0
10
43.879110622073647
20
-271.43594223717531
30
0
10
43.601620706018309
20
-266.72331954375204
30
0
10
44.105375168019947
20
-263.26471117853282
30
0
10
44.689358788336044
20
-260.45808975970215
30
0
0
ARC
5
101
100
AcDbEntity
8
0
100
AcDbCircle
10
58.166537798120075
20
-74.396388560533268
30
0
40
236.54916512059378
210
0
220
0
230
1
100
AcDbArc
50
266.92155976532325
51
354.97706238471159
0
ARC
5
102
100
AcDbEntity
8
0
100
AcDbCircle
10
313.16653779820757
20
140.64830700481269
30
0
40
236.54916512176686
210
0
220
0
230
1
100
AcDbArc
50
265.30564743153542
51
266.04821583630047
0
SPLINE
5
103
100
AcDbEntity
8
0
100
AcDbSpline
70
0
71
3
72
54
73
50
74
0
42
0.000000001
43
0.0000000001
44
0.0000000001
40
2.641233716273617
40
2.641233716273617
40
2.641233716273617
40
2.641233716273617
40
4.6551191668794178
40
4.6551191668794178
40
5.7653861786238032
40
5.7653861786238032
40
6.4399227271110098
40
6.4399227271110098
40
6.9485258802379501
40
6.9485258802379501
40
7.4696708943417667
40
7.4696708943417667
40
8.2558933400376517
40
8.2558933400376517
40
10.05853196438474
40
10.05853196438474
40
11.375274956389575
40
11.375274956389575
40
12.110806828163398
40
12.110806828163398
40
12.739529646817315
40
12.739529646817315
40
13.43563150334249
40
13.43563150334249
40
14.465490802346361
40
14.465490802346361
40
15.965777937112552
40
15.965777937112552
40
16.842862332029803
40
16.842862332029803
40
17.463771794841506
40
17.463771794841506
40
18.052703540987906
40
18.052703540987906
40
18.859721124614602
40
18.859721124614602
40
20.695193238760424
40
20.695193238760424
40
22.065407398394452
40
22.065407398394452
40
22.802158639926422
40
22.802158639926422
40
23.478487442221006
40
23.478487442221006
40
24.260697642307615
40
24.260697642307615
40
25.515097402356744
40
25.515097402356744
40
25.603275189192143
40
25.603275189192143
40
25.603275189192143
40
25.603275189192143
10
296.8642851449045
20
-95.338438551442678
30
0
10
296.65762374559932
20
-90.911554986754837
30
0
10
296.78426148645895
20
-87.3108670295656
30
0
10
297.52111095314825
20
-82.977203236706103
30
0
10
297.91574884025624
20
-81.519877003951606
30
0
10
298.88490925982001
20
-79.584803127425417
30
0
10
299.35439207768303
20
-78.895413961037562
30
0
10
300.42897173479912
20
-77.940643396900782
30
0
10
300.94888529015384
20
-77.633103456602214
30
0
10
302.13297055647638
20
-77.227188934751837
30
0
10
302.76020019529466
20
-77.147959388571749
30
0
10
304.3482840049266
20
-77.160765831563893
30
0
10
305.35731429874068
20
-77.360291356814855
30
0
10
308.74510216094546
20
-78.350484906366006
30
0
10
311.33024063400342
20
-79.610139204115995
30
0
10
315.83419738205708
20
-81.339495646419309
30
0
10
317.77849310125407
20
-81.944434338662546
30
0
10
320.66844618710292
20
-82.120940670783952
30
0
10
321.69890120712
20
-82.031985452169977
30
0
10
323.5258351978411
20
-81.425202613675765
30
0
10
324.27992789493152
20
-80.989378681656476
30
0
10
325.69121666983057
20
-79.767387453860877
30
0
10
326.29327658156319
20
-78.979743602447442
30
0
10
327.49189991368502
20
-76.865117625355566
30
0
10
327.9683047676067
20
-75.42548530297357
30
0
10
328.65127956217066
20
-71.919765141153121
30
0
10
328.66891964052229
20
-69.696240300582829
30
0
10
328.02392347796803
20
-66.60678596506736
30
0
10
327.62145768156239
20
-65.468414746632533
30
0
10
326.53329125052778
20
-63.802838210814969
30
0
10
325.97557299363302
20
-63.210816479335037
30
0
10
324.64378927450321
20
-62.305268061144403
30
0
10
323.92975161843697
20
-62.010586660218962
30
0
10
322.12531866502354
20
-61.565186316380711
30
0
10
320.98660755856849
20
-61.506015763396675
30
0
10
317.06516738095411
20
-61.658855637113362
30
0
10
313.94587913965699
20
-62.318702432310388
30
0
10
308.27054219524638
20
-62.804250222097679
30
0
10
305.53682931304758
20
-62.820048830774908
30
0
10
301.63720362324761
20
-61.658833128122879
30
0
10
300.36608902591229
20
-61.040178299139747
30
0
10
298.24030116207695
20
-59.335360244538336
30
0
10
297.4231255396607
20
-58.341759171349288
30
0
10
296.07745928477362
20
-55.871388469075157
30
0
10
295.65044266063683
20
-54.410806257266444
30
0
10
295.08424990992319
20
-50.519488139346471
30
0
10
295.26576528772506
20
-47.982778862541522
30
0
10
295.7176035461631
20
-45.426093506961642
30
0
10
295.74867470609468
20
-45.257739630626091
30
0
10
295.78110858068021
20
-45.088974816986692
30
0
0
ARC
5
104
100
AcDbEntity
8
0
100
AcDbCircle
10
313.16653779811992
20
140.64830700364274
30
0
40
186.5491651205937
210
0
220
0
230
1
100
AcDbArc
50
263.74949144344941
51
264.65256623951637
0
ARC
5
105
100
AcDbEntity
8
0
100
AcDbCircle
10
58.166537798120075
20
-74.396388560533268
30
0
40
236.54916512059367
210
0
220
-0
230
1
100
AcDbArc
50
7.1895079743447683
51
73.093201841900054
0
ARC
5
106
100
AcDbEntity
8
0
100
AcDbCircle
10
313.16653779811992
20
140.64830700364274
30
0
40
186.54916512059367
210
0
220
0
230
1
100
AcDbArc
50
92.873681458756892
51
176.53321837279552
0
SPLINE
5
107
100
AcDbEntity
8
0
100
AcDbSpline
70
0
71
3
72
54
73
50
74
0
42
0.000000001
43
0.0000000001
44
0.0000000001
40
2.5940939746648892
40
2.5940939746648892
40
2.5940939746648892
40
2.5940939746648892
40
4.6589419152253768
40
4.6589419152253768
40
5.7701816053551669
40
5.7701816053551669
40
6.4447015324808117
40
6.4447015324808117
40
6.949781482836249
40
6.949781482836249
40
7.4646677522547549
40
7.4646677522547549
40
8.2366395358579059
40
8.2366395358579059
40
9.9891393912967175
40
9.9891393912967175
40
11.277238548487578
40
11.277238548487578
40
12.032473249106573
40
12.032473249106573
40
12.669728616496021
40
12.669728616496021
40
13.353560917914702
40
13.353560917914702
40
14.345451780292985
40
14.345451780292985
40
15.785253988523156
40
15.785253988523156
40
16.676968262853798
40
16.676968262853798
40
17.302096443324547
40
17.302096443324547
40
17.88589439574514
40
17.88589439574514
40
18.659856310316631
40
18.659856310316631
40
20.310881814219535
40
20.310881814219535
40
21.529606972041805
40
21.529606972041805
40
22.350808467039595
40
22.350808467039595
40
23.025844197758644
40
23.025844197758644
40
23.745601675243449
40
23.745601675243449
40
24.637235189400364
40
24.637235189400364
40
25.637747264624089
40
25.637747264624089
40
25.637747264624089
40
25.637747264624089
10
303.81404878301231
20
326.96288495290793
30
0
10
303.59238699530215
20
331.53892331236921
30
0
10
303.71635340921517
20
335.2451967206589
30
0
10
304.46183859664018
20
339.64303189116765
30
0
10
304.85411415089584
20
341.09981128313723
30
0
10
305.81606861634896
20
343.03386552256268
30
0
10
306.28234326485932
20
343.72424326239803
30
0
10
307.34783465356992
20
344.67762220493904
30
0
10
307.86164595879342
20
344.98458745933181
30
0
10
309.03031079817458
20
345.38976074939887
30
0
10
309.64785976662193
20
345.46996710240251
30
0
10
311.20740763649292
20
345.46138438591129
30
0
10
312.19532235516181
20
345.26844813301233
30
0
10
315.49000007370154
20
344.31042324104061
30
0
10
317.99567353100508
20
343.09332662605289
30
0
10
322.39591294580907
20
341.36890186494952
30
0
10
324.30586927235146
20
340.7467701639963
30
0
10
327.21695388244655
20
340.47793116087871
30
0
10
328.29680762544979
20
340.53159057226145
30
0
10
330.20908711799871
20
341.09322316783459
30
0
10
330.998825909125
20
341.51306316885268
30
0
10
332.46192214648977
20
342.70619348542738
30
0
10
333.08317529188287
20
343.47114653081633
30
0
10
334.31775475956601
20
345.52150083260989
30
0
10
334.81750003770367
20
346.91135017984755
30
0
10
335.56605300567549
20
350.31032713581561
30
0
10
335.63466272609139
20
352.473886442246
30
0
10
335.08307978197536
20
355.60038817814007
30
0
10
334.69848205848456
20
356.80084449643601
30
0
10
333.62214986372135
20
358.5634600780993
30
0
10
333.06548811960249
20
359.19458144085814
30
0
10
331.73080140039707
20
360.16383868756418
30
0
10
331.01612144507834
20
360.48564678855337
30
0
10
329.22905068359574
20
360.97726810192313
30
0
10
328.11912662304644
20
361.06293643448447
30
0
10
324.4731355181525
20
360.99113633504828
30
0
10
321.68067320808166
20
360.44533773558788
30
0
10
316.67310989695136
20
359.89075548230716
30
0
10
314.45728939599098
20
359.77426145131602
30
0
10
310.92214149059896
20
360.31583654051087
30
0
10
309.54053063997486
20
360.73484175233716
30
0
10
307.27444823862567
20
362.04585943787617
30
0
10
306.39880806537587
20
362.8100731273945
30
0
10
304.92088975697493
20
364.75078762560537
30
0
10
304.38746485759657
20
365.88956137672437
30
0
10
303.59608372307719
20
368.59627462874528
30
0
10
303.43794904543694
20
370.18821300118026
30
0
10
303.46522057293691
20
373.50241611685567
30
0
10
303.69540427992371
20
375.29196736431754
30
0
10
304.04445127045216
20
377.02151838054908
30
0
0
ARC
5
108
100
AcDbEntity
8
0
100
AcDbCircle
10
313.16653779811992
20
140.64830700364274
30
0
40
236.5491651205937
210
0
220
0
230
1
100
AcDbArc
50
92.210055093790601
51
174.97706238471153
0
ARC
5
109
100
AcDbEntity
8
0
100
AcDbCircle
10
58.166537798120075
20
-74.396388560533268
30
0
40
236.54916512059359
210
0
220
-0
230
1
100
AcDbArc
50
85.305647431533359
51
92.389434549056276
0
SPLINE
5
110
100
AcDbEntity
8
0
100
AcDbSpline
70
0
71
3
72
54
73
50
74
0
42
0.000000001
43
0.0000000001
44
0.0000000001
40
2.1359917739622332
40
2.1359917739622332
40
2.1359917739622332
40
2.1359917739622332
40
3.6088235089859886
40
3.6088235089859886
40
4.3960274213950612
40
4.3960274213950612
40
4.8593943605430709
40
4.8593943605430709
40
5.1876047685408402
40
5.1876047685408402
40
5.5075797126095125
40
5.5075797126095125
40
5.9587947593399671
40
5.9587947593399671
40
6.8864995456203815
40
6.8864995456203815
40
8.0268361489335227
40
8.0268361489335227
40
8.5101785582823766
40
8.5101785582823766
40
8.9207159856677141
40
8.9207159856677141
40
9.3668444804935085
40
9.3668444804935085
40
10.026080873965382
40
10.026080873965382
40
10.995958696605721
40
10.995958696605721
40
11.540715382383715
40
11.540715382383715
40
11.905666061164784
40
11.905666061164784
40
12.235534836412624
40
12.235534836412624
40
12.657550477666312
40
12.657550477666312
40
13.536897497826837
40
13.536897497826837
40
14.291016562217177
40
14.291016562217177
40
14.685165464866383
40
14.685165464866383
40
15.04593995713029
40
15.04593995713029
40
15.460153926967267
40
15.460153926967267
40
16.133665289144542
40
16.133665289144542
40
16.822710553880441
40
16.822710553880441
40
16.822710553880441
40
16.822710553880441
10
40.517788357417217
20
111.31605757695574
30
0
10
40.265906235516397
20
115.65634058208207
30
0
10
40.289039707836949
20
119.56659967696805
30
0
10
40.953951837987631
20
124.36774852845771
30
0
10
41.321606213429796
20
125.96599181856953
30
0
10
42.255870799543743
20
128.06913632372218
30
0
10
42.709923019484307
20
128.82322407754896
30
0
10
43.747982646280036
20
129.85020370305938
30
0
10
44.238817726945747
20
130.18328678919596
30
0
10
45.348114630905755
20
130.63146875801155
30
0
10
45.924587596919395
20
130.7363231792078
30
0
10
47.346612936134122
20
130.78768525484352
30
0
10
48.223909991957754
20
130.65262793060694
30
0
10
50.967488925447924
20
129.94336129867304
30
0
10
52.974952666881521
20
129.03489425911999
30
0
10
57.567399205740031
20
127.03848257731013
30
0
10
60.216676473330217
20
125.94035001932366
30
0
10
63.779065790959571
20
125.61175766431326
30
0
10
64.841360130917408
20
125.66718613633284
30
0
10
66.730275481757758
20
126.22546432106569
30
0
10
67.512475946739542
20
126.64339283955215
30
0
10
68.97381618980134
20
127.83532811019613
30
0
10
69.599098224840475
20
128.60550251883035
30
0
10
70.859064711498718
20
130.68467829664337
30
0
10
71.376849961099694
20
132.10896248380317
30
0
10
72.170148308794666
20
135.61102523018812
30
0
10
72.254872210478084
20
137.84785927435351
30
0
10
71.723126868729281
20
140.89770247779924
30
0
10
71.379133695940823
20
142.01075388189895
30
0
10
70.424486262534543
20
143.60517390364063
30
0
10
69.943974316258576
20
144.16585107886991
30
0
10
68.801348284666858
20
145.01243223084461
30
0
10
68.200320275267273
20
145.29112556242322
30
0
10
66.717632965627715
20
145.70793849836761
30
0
10
65.817043208591002
20
145.78175680312395
30
0
10
62.912602009858965
20
145.73313353135475
30
0
10
60.729506162048629
20
145.30968046787368
30
0
10
56.599715017465691
20
144.85856657983325
30
0
10
54.575283161857158
20
144.77349493886103
30
0
10
51.748553053592452
20
145.48139826688947
30
0
10
50.835808325948541
20
145.87210088780063
30
0
10
49.290265467693537
20
146.99928150185747
30
0
10
48.688635778556879
20
147.66892301466072
30
0
10
47.677557328630051
20
149.35208166104968
30
0
10
47.337296332199337
20
150.35558550690251
30
0
10
46.818756894926786
20
153.06445079028521
30
0
10
46.865713157985937
20
154.86162163606738
30
0
10
47.308336556318423
20
158.29376284812312
30
0
10
47.73521019191228
20
160.1077643712066
30
0
10
48.304468892407904
20
161.94710535488809
30
0
0
ARC
5
111
100
AcDbEntity
8
0
100
AcDbCircle
10
58.166537798120075
20
-74.396388560533268
30
0
40
186.54916512059359
210
0
220
-0
230
1
100
AcDbArc
50
83.749491443449443
51
95.428667552249053
0
ARC
5
112
100
AcDbEntity
8
0
100
AcDbCircle
10
313.16653779811992
20
140.64830700364274
30
0
40
236.54916512059367
210
0
220
0
230
1
100
AcDbArc
50
187.18950797434479
51
253.09320184190005
0
ARC
5
113
100
AcDbEntity
8
0
100
AcDbCircle
10
58.166537798120075
20
-74.396388560533268
30
0
40
186.54916512059378
210
0
220
0
230
1
100
AcDbArc
50
265.85707730742166
51
356.53321837279543
0
CIRCLE
5
114
100
AcDbEntity
8
0
100
AcDbCircle
10
313.45867159874547
20
352.1972704165197
30
0
40
3.0000000000000004
210
-0
220
0
230
1
0
CIRCLE
5
115
100
AcDbEntity
8
0
100
AcDbCircle
10
248.07214871585194
20
341.93360148196894
30
0
40
3.0000000000000004
210
-0
220
0
230
1
0
CIRCLE
5
116
100
AcDbEntity
8
0
100
AcDbCircle
10
189.05751817560832
20
311.96672548676804
30
0
40
3.0000000000000004
210
-0
220
0
230
1
0
CIRCLE
5
117
100
AcDbEntity
8
0
100
AcDbCircle
10
142.1915431944023
20
265.23000904482916
30
0
40
3.0000000000000009
210
-0
220
0
230
1
0
CIRCLE
5
118
100
AcDbEntity
8
0
100
AcDbCircle
10
112.06179193784287
20
206.29836759534066
30
0
40
3.0000000000000009
210
-0
220
0
230
1
0
CIRCLE
5
119
100
AcDbEntity
8
0
100
AcDbCircle
10
101.61757438524297
20
140.94044080426829
30
0
40
3.0000000000000004
210
0
220
-0
230
1
0
CIRCLE
5
120
100
AcDbEntity
8
0
100
AcDbCircle
10
111.88124331979367
20
75.553917921374847
30
0
40
3.0000000000000004
210
0
220
-0
230
1
0
CIRCLE
5
121
100
AcDbEntity
8
0
100
AcDbCircle
10
141.84811931499468
20
16.53928738113116
30
0
40
3.0000000000000004
210
0
220
-0
230
1
0
CIRCLE
5
122
100
AcDbEntity
8
0
100
AcDbCircle
10
188.5848357569335
20
-30.32668760007482
30
0
40
3.0000000000000009
210
0
220
-0
230
1
0
CIRCLE
5
123
100
AcDbEntity
8
0
100
AcDbCircle
10
247.51647720642194
20
-60.456438856634236
30
0
40
3
210
0
220
-0
230
1
0
CIRCLE
5
124
100
AcDbEntity
8
0
100
AcDbCircle
10
312.87440399749437
20
-70.900656409234202
30
0
40
3.0000000000000004
210
0
220
-0
230
1
0
CIRCLE
5
125
100
AcDbEntity
8
0
100
AcDbCircle
10
259.36174980286017
20
-9.024101392438002
30
0
40
3.0000000000000004
210
0
220
-0
230
1
0
CIRCLE
5
126
100
AcDbEntity
8
0
100
AcDbCircle
10
229.31340752651232
20
49.94909083213691
30
0
40
3.0000000000000004
210
0
220
-0
230
1
0
CIRCLE
5
127
100
AcDbEntity
8
0
100
AcDbCircle
10
182.51201719079029
20
96.750481167858808
30
0
40
3.0000000000000004
210
0
220
-0
230
1
0
CIRCLE
5
128
100
AcDbEntity
8
0
100
AcDbCircle
10
123.53882496621543
20
126.7988234442067
30
0
40
3.0000000000000009
210
0
220
-0
230
1
0
CIRCLE
5
129
100
AcDbEntity
8
0
100
AcDbCircle
10
123.53882496621549
20
-275.59160056527344
30
0
40
3
210
0
220
-0
230
1
0
CIRCLE
5
130
100
AcDbEntity
8
0
100
AcDbCircle
10
182.51201719079035
20
-245.54325828892559
30
0
40
3.0000000000000004
210
0
220
-0
230
1
0
CIRCLE
5
131
100
AcDbEntity
8
0
100
AcDbCircle
10
229.31340752651235
20
-198.74186795320361
30
0
40
3.0000000000000004
210
0
220
-0
230
1
0
CIRCLE
5
132
100
AcDbEntity
8
0
100
AcDbCircle
10
259.36174980286017
20
-139.76867572862872
30
0
40
3
210
0
220
-0
230
1
0
CIRCLE
5
133
100
AcDbEntity
8
0
100
AcDbCircle
10
269.71570291871382
20
-74.396388560533381
30
0
40
3.0000000000000004
210
0
220
-0
230
1
0
ARC
5
134
100
AcDbEntity
8
0
100
AcDbCircle
10
58.166537798120075
20
-74.396388560533268
30
0
40
186.5491651205937
210
0
220
-0
230
1
100
AcDbArc
50
13.528654573837894
51
66.75405524240692
0
ARC
5
135
100
AcDbEntity
8
0
100
AcDbCircle
10
313.16653779811992
20
140.64830700364274
30
0
40
186.5491651205937
210
0
220
0
230
1
100
AcDbArc
50
193.52865457383794
51
246.75405524240696
0
ENDSEC
0
SECTION
2
OBJECTS
0
DICTIONARY
5
C
100
AcDbDictionary
3
ACAD_GROUP
350
D
3
ACAD_MLINESTYLE
350
17
0
DICTIONARY
5
D
100
AcDbDictionary
0
DICTIONARY
5
1A
330
C
100
AcDbDictionary
0
DICTIONARY
5
17
100
AcDbDictionary
0
ENDSEC
0
EOF
