0
SECTION
2
HEADER
9
$INSUNITS
70
4
9
$ACADVER
1
AC1014
9
$HANDSEED
5
FFFF
0
ENDSEC
0
SECTION
2
TABLES
0
TABLE
2
VPORT
5
8
100
AcDbSymbolTable
0
ENDTAB
0
TABLE
2
LTYPE
5
5
100
AcDbSymbolTable
0
LTYPE
5
14
100
AcDbSymbolTableRecord
100
AcDbLinetypeTableRecord
2
BYBLOCK
70
0
0
LTYPE
5
15
100
AcDbSymbolTableRecord
100
AcDbLinetypeTableRecord
2
BYLAYER
70
0
0
ENDTAB
0
TABLE
2
LAYER
5
2
100
AcDbSymbolTable
70
2
0
LAYER
5
50
100
AcDbSymbolTableRecord
100
AcDbLayerTableRecord
2
0
70
0
6
CONTINUOUS
0
ENDTAB
0
TABLE
2
STYLE
5
3
100
AcDbSymbolTable
70
1
0
STYLE
5
11
100
AcDbSymbolTableRecord
100
AcDbTextStyleTableRecord
2
STANDARD
70
0
0
ENDTAB
0
TABLE
2
VIEW
5
6
100
AcDbSymbolTable
70
0
0
ENDTAB
0
TABLE
2
UCS
5
7
100
AcDbSymbolTable
70
0
0
ENDTAB
0
TABLE
2
APPID
5
9
100
AcDbSymbolTable
70
2
0
APPID
5
12
100
AcDbSymbolTableRecord
100
AcDbRegAppTableRecord
2
ACAD
70
0
0
ENDTAB
0
TABLE
2
DIMSTYLE
5
A
100
AcDbSymbolTable
70
1
0
ENDTAB
0
TABLE
2
BLOCK_RECORD
5
1
100
AcDbSymbolTable
70
1
0
BLOCK_RECORD
5
1F
100
AcDbSymbolTableRecord
100
AcDbBlockTableRecord
2
*MODEL_SPACE
0
BLOCK_RECORD
5
1B
100
AcDbSymbolTableRecord
100
AcDbBlockTableRecord
2
*PAPER_SPACE
0
ENDTAB
0
ENDSEC
0
SECTION
2
BLOCKS
0
BLOCK
5
20
100
AcDbEntity
100
AcDbBlockBegin
2
*MODEL_SPACE
0
ENDBLK
5
21
100
AcDbEntity
100
AcDbBlockEnd
0
BLOCK
5
1C
100
AcDbEntity
100
AcDbBlockBegin
2
*PAPER_SPACE
0
ENDBLK
5
1D
100
AcDbEntity
100
AcDbBlockEnd
0
ENDSEC
0
SECTION
2
ENTITIES
0
SPLINE
5
100
100
AcDbEntity
8
0
100
AcDbSpline
70
0
71
3
72
54
73
50
74
0
42
0.000000001
43
0.0000000001
44
0.0000000001
40
2.5940939746648892
40
2.5940939746648892
40
2.5940939746648892
40
2.5940939746648892
40
4.6589419152253768
40
4.6589419152253768
40
5.7701816053551669
40
5.7701816053551669
40
6.4447015324808117
40
6.4447015324808117
40
6.949781482836249
40
6.949781482836249
40
7.4646677522547549
40
7.4646677522547549
40
8.2366395358579059
40
8.2366395358579059
40
9.9891393912967175
40
9.9891393912967175
40
11.277238548487578
40
11.277238548487578
40
12.032473249106573
40
12.032473249106573
40
12.669728616496021
40
12.669728616496021
40
13.353560917914702
40
13.353560917914702
40
14.345451780292985
40
14.345451780292985
40
15.785253988523156
40
15.785253988523156
40
16.676968262853798
40
16.676968262853798
40
17.302096443324547
40
17.302096443324547
40
17.88589439574514
40
17.88589439574514
40
18.659856310316631
40
18.659856310316631
40
20.310881814219535
40
20.310881814219535
40
21.529606972041805
40
21.529606972041805
40
22.350808467039595
40
22.350808467039595
40
23.025844197758644
40
23.025844197758644
40
23.745601675243449
40
23.745601675243449
40
24.637235189400364
40
24.637235189400364
40
25.637747264624089
40
25.637747264624089
40
25.637747264624089
40
25.637747264624089
10
303.81404878301231
20
326.96288495290793
30
0
10
303.59238699530215
20
331.53892331236921
30
0
10
303.71635340921517
20
335.2451967206589
30
0
10
304.46183859664018
20
339.64303189116765
30
0
10
304.85411415089584
20
341.09981128313723
30
0
10
305.81606861634896
20
343.03386552256268
30
0
10
306.28234326485932
20
343.72424326239803
30
0
10
307.34783465356992
20
344.67762220493904
30
0
10
307.86164595879342
20
344.98458745933181
30
0
10
309.03031079817458
20
345.38976074939887
30
0
10
309.64785976662193
20
345.46996710240251
30
0
10
311.20740763649292
20
345.46138438591129
30
0
10
312.19532235516181
20
345.26844813301233
30
0
10
315.49000007370154
20
344.31042324104061
30
0
10
317.99567353100508
20
343.09332662605289
30
0
10
322.39591294580907
20
341.36890186494952
30
0
10
324.30586927235146
20
340.7467701639963
30
0
10
327.21695388244655
20
340.47793116087871
30
0
10
328.29680762544979
20
340.53159057226145
30
0
10
330.20908711799871
20
341.09322316783459
30
0
10
330.998825909125
20
341.51306316885268
30
0
10
332.46192214648977
20
342.70619348542738
30
0
10
333.08317529188287
20
343.47114653081633
30
0
10
334.31775475956601
20
345.52150083260989
30
0
10
334.81750003770367
20
346.91135017984755
30
0
10
335.56605300567549
20
350.31032713581561
30
0
10
335.63466272609139
20
352.473886442246
30
0
10
335.08307978197536
20
355.60038817814007
30
0
10
334.69848205848456
20
356.80084449643601
30
0
10
333.62214986372135
20
358.5634600780993
30
0
10
333.06548811960249
20
359.19458144085814
30
0
10
331.73080140039707
20
360.16383868756418
30
0
10
331.01612144507834
20
360.48564678855337
30
0
10
329.22905068359574
20
360.97726810192313
30
0
10
328.11912662304644
20
361.06293643448447
30
0
10
324.4731355181525
20
360.99113633504828
30
0
10
321.68067320808166
20
360.44533773558788
30
0
10
316.67310989695136
20
359.89075548230716
30
0
10
314.45728939599098
20
359.77426145131602
30
0
10
310.92214149059896
20
360.31583654051087
30
0
10
309.54053063997486
20
360.73484175233716
30
0
10
307.27444823862567
20
362.04585943787617
30
0
10
306.39880806537587
20
362.8100731273945
30
0
10
304.92088975697493
20
364.75078762560537
30
0
10
304.38746485759657
20
365.88956137672437
30
0
10
303.59608372307719
20
368.59627462874528
30
0
10
303.43794904543694
20
370.18821300118026
30
0
10
303.46522057293691
20
373.50241611685567
30
0
10
303.69540427992371
20
375.29196736431754
30
0
10
304.04445127045216
20
377.02151838054908
30
0
0
ARC
5
101
100
AcDbEntity
8
0
100
AcDbCircle
10
313.16653779811992
20
140.64830700364274
30
0
40
186.54916512059373
210
0
220
-0
230
1
100
AcDbArc
50
3.4667816272044818
51
92.873681458756892
0
ARC
5
102
100
AcDbEntity
8
0
100
AcDbCircle
10
568.16653779812009
20
-74.396388560533381
30
0
40
236.5491651205937
210
0
220
0
230
1
100
AcDbArc
50
106.90679815810003
51
172.81049202565526
0
ARC
5
103
100
AcDbEntity
8
0
100
AcDbCircle
10
313.16653779811992
20
140.64830700364274
30
0
40
186.5491651205937
210
0
220
0
230
1
100
AcDbArc
50
264.65256623951637
51
276.25050855655064
0
SPLINE
5
104
100
AcDbEntity
8
0
100
AcDbSpline
70
0
71
3
72
54
73
50
74
0
42
0.000000001
43
0.0000000001
44
0.0000000001
40
2.641233716273617
40
2.641233716273617
40
2.641233716273617
40
2.641233716273617
40
4.6551191668794178
40
4.6551191668794178
40
5.7653861786238032
40
5.7653861786238032
40
6.4399227271110098
40
6.4399227271110098
40
6.9485258802379501
40
6.9485258802379501
40
7.4696708943417667
40
7.4696708943417667
40
8.2558933400376517
40
8.2558933400376517
40
10.05853196438474
40
10.05853196438474
40
11.375274956389575
40
11.375274956389575
40
12.110806828163398
40
12.110806828163398
40
12.739529646817315
40
12.739529646817315
40
13.43563150334249
40
13.43563150334249
40
14.465490802346361
40
14.465490802346361
40
15.965777937112552
40
15.965777937112552
40
16.842862332029803
40
16.842862332029803
40
17.463771794841506
40
17.463771794841506
40
18.052703540987906
40
18.052703540987906
40
18.859721124614602
40
18.859721124614602
40
20.695193238760424
40
20.695193238760424
40
22.065407398394452
40
22.065407398394452
40
22.802158639926422
40
22.802158639926422
40
23.478487442221006
40
23.478487442221006
40
24.260697642307615
40
24.260697642307615
40
25.515097402356744
40
25.515097402356744
40
25.603275189192143
40
25.603275189192143
40
25.603275189192143
40
25.603275189192143
10
296.8642851449045
20
-95.338438551442678
30
0
10
296.65762374559932
20
-90.911554986754837
30
0
10
296.78426148645895
20
-87.3108670295656
30
0
10
297.52111095314825
20
-82.977203236706103
30
0
10
297.91574884025624
20
-81.519877003951606
30
0
10
298.88490925982001
20
-79.584803127425417
30
0
10
299.35439207768303
20
-78.895413961037562
30
0
10
300.42897173479912
20
-77.940643396900782
30
0
10
300.94888529015384
20
-77.633103456602214
30
0
10
302.13297055647638
20
-77.227188934751837
30
0
10
302.76020019529466
20
-77.147959388571749
30
0
10
304.3482840049266
20
-77.160765831563893
30
0
10
305.35731429874068
20
-77.360291356814855
30
0
10
308.74510216094546
20
-78.350484906366006
30
0
10
311.33024063400342
20
-79.610139204115995
30
0
10
315.83419738205708
20
-81.339495646419309
30
0
10
317.77849310125407
20
-81.944434338662546
30
0
10
320.66844618710292
20
-82.120940670783952
30
0
10
321.69890120712
20
-82.031985452169977
30
0
10
323.5258351978411
20
-81.425202613675765
30
0
10
324.27992789493152
20
-80.989378681656476
30
0
10
325.69121666983057
20
-79.767387453860877
30
0
10
326.29327658156319
20
-78.979743602447442
30
0
10
327.49189991368502
20
-76.865117625355566
30
0
10
327.9683047676067
20
-75.42548530297357
30
0
10
328.65127956217066
20
-71.919765141153121
30
0
10
328.66891964052229
20
-69.696240300582829
30
0
10
328.02392347796803
20
-66.60678596506736
30
0
10
327.62145768156239
20
-65.468414746632533
30
0
10
326.53329125052778
20
-63.802838210814969
30
0
10
325.97557299363302
20
-63.210816479335037
30
0
10
324.64378927450321
20
-62.305268061144403
30
0
10
323.92975161843697
20
-62.010586660218962
30
0
10
322.12531866502354
20
-61.565186316380711
30
0
10
320.98660755856849
20
-61.506015763396675
30
0
10
317.06516738095411
20
-61.658855637113362
30
0
10
313.94587913965699
20
-62.318702432310388
30
0
10
308.27054219524638
20
-62.804250222097679
30
0
10
305.53682931304758
20
-62.820048830774908
30
0
10
301.63720362324761
20
-61.658833128122879
30
0
10
300.36608902591229
20
-61.040178299139747
30
0
10
298.24030116207695
20
-59.335360244538336
30
0
10
297.4231255396607
20
-58.341759171349288
30
0
10
296.07745928477362
20
-55.871388469075157
30
0
10
295.65044266063683
20
-54.410806257266444
30
0
10
295.08424990992319
20
-50.519488139346471
30
0
10
295.26576528772506
20
-47.982778862541522
30
0
10
295.7176035461631
20
-45.426093506961642
30
0
10
295.74867470609468
20
-45.257739630626091
30
0
10
295.78110858068021
20
-45.088974816986692
30
0
0
ARC
5
105
100
AcDbEntity
8
0
100
AcDbCircle
10
313.16653779811992
20
140.64830700364274
30
0
40
236.54916512059367
210
0
220
0
230
1
100
AcDbArc
50
266.0482158363024
51
274.69435256846668
0
ARC
5
106
100
AcDbEntity
8
0
100
AcDbCircle
10
568.16653779812009
20
-74.396388560533381
30
0
40
236.54916512059387
210
0
220
0
230
1
100
AcDbArc
50
-174.97706238471153
51
94.694352568466698
0
ARC
5
107
100
AcDbEntity
8
0
100
AcDbCircle
10
313.16653779811992
20
140.64830700364274
30
0
40
236.5491651205937
210
0
220
-0
230
1
100
AcDbArc
50
5.0229376152884821
51
92.210055093790601
0
CIRCLE
5
108
100
AcDbEntity
8
0
100
AcDbCircle
10
514.45183227644623
20
205.74269608591072
30
0
40
3.0000000000000004
210
0
220
-0
230
1
0
CIRCLE
5
109
100
AcDbEntity
8
0
100
AcDbCircle
10
484.48495628124522
20
264.75732662615434
30
0
40
3.0000000000000004
210
0
220
-0
230
1
0
CIRCLE
5
110
100
AcDbEntity
8
0
100
AcDbCircle
10
437.74823983930628
20
311.62330160736025
30
0
40
3.0000000000000004
210
0
220
-0
230
1
0
CIRCLE
5
111
100
AcDbEntity
8
0
100
AcDbCircle
10
378.81659838981773
20
341.75305286391972
30
0
40
3.0000000000000009
210
0
220
-0
230
1
0
CIRCLE
5
112
100
AcDbEntity
8
0
100
AcDbCircle
10
378.26092688038784
20
-60.636987474683508
30
0
40
3
210
0
220
-0
230
1
0
CIRCLE
5
113
100
AcDbEntity
8
0
100
AcDbCircle
10
437.27555742063146
20
-30.670111479482571
30
0
40
3.0000000000000004
210
0
220
-0
230
1
0
CIRCLE
5
114
100
AcDbEntity
8
0
100
AcDbCircle
10
484.14153240183748
20
16.066604962456275
30
0
40
3.0000000000000004
210
0
220
-0
230
1
0
CIRCLE
5
115
100
AcDbEntity
8
0
100
AcDbCircle
10
514.2712836583969
20
74.998246411944791
30
0
40
3
210
0
220
-0
230
1
0
CIRCLE
5
116
100
AcDbEntity
8
0
100
AcDbCircle
10
769.36174980286012
20
-9.0241013924379843
30
0
40
3.0000000000000004
210
0
220
-0
230
1
0
CIRCLE
5
117
100
AcDbEntity
8
0
100
AcDbCircle
10
739.31340752651238
20
49.949090832136847
30
0
40
3.0000000000000004
210
0
220
-0
230
1
0
CIRCLE
5
118
100
AcDbEntity
8
0
100
AcDbCircle
10
692.5120171907904
20
96.750481167858879
30
0
40
3.0000000000000004
210
0
220
-0
230
1
0
CIRCLE
5
119
100
AcDbEntity
8
0
100
AcDbCircle
10
633.53882496621543
20
126.79882344420676
30
0
40
3.0000000000000009
210
0
220
-0
230
1
0
CIRCLE
5
120
100
AcDbEntity
8
0
100
AcDbCircle
10
568.16653779812009
20
137.15277656006037
30
0
40
3.0000000000000004
210
-0
220
0
230
1
0
CIRCLE
5
121
100
AcDbEntity
8
0
100
AcDbCircle
10
502.79425063002486
20
126.79882344420662
30
0
40
3.0000000000000004
210
-0
220
0
230
1
0
CIRCLE
5
122
100
AcDbEntity
8
0
100
AcDbCircle
10
443.82105840544989
20
96.750481167858808
30
0
40
3.0000000000000004
210
-0
220
0
230
1
0
CIRCLE
5
123
100
AcDbEntity
8
0
100
AcDbCircle
10
397.01966806972791
20
49.949090832136918
30
0
40
3.0000000000000009
210
-0
220
0
230
1
0
CIRCLE
5
124
100
AcDbEntity
8
0
100
AcDbCircle
10
366.97132579338006
20
-9.0241013924380908
30
0
40
3.0000000000000009
210
-0
220
0
230
1
0
CIRCLE
5
125
100
AcDbEntity
8
0
100
AcDbCircle
10
356.61737267752642
20
-74.396388560533396
30
0
40
3.0000000000000004
210
0
220
-0
230
1
0
CIRCLE
5
126
100
AcDbEntity
8
0
100
AcDbCircle
10
366.97132579338017
20
-139.76867572862872
30
0
40
3.0000000000000004
210
0
220
-0
230
1
0
CIRCLE
5
127
100
AcDbEntity
8
0
100
AcDbCircle
10
397.01966806972791
20
-198.74186795320361
30
0
40
3.0000000000000004
210
0
220
-0
230
1
0
CIRCLE
5
128
100
AcDbEntity
8
0
100
AcDbCircle
10
443.82105840544995
20
-245.54325828892559
30
0
40
3.0000000000000009
210
0
220
-0
230
1
0
CIRCLE
5
129
100
AcDbEntity
8
0
100
AcDbCircle
10
502.79425063002475
20
-275.59160056527344
30
0
40
3
210
0
220
-0
230
1
0
CIRCLE
5
130
100
AcDbEntity
8
0
100
AcDbCircle
10
568.16653779812009
20
-285.94555368112708
30
0
40
3.0000000000000004
210
0
220
-0
230
1
0
CIRCLE
5
131
100
AcDbEntity
8
0
100
AcDbCircle
10
633.53882496621554
20
-275.59160056527344
30
0
40
3
210
0
220
-0
230
1
0
CIRCLE
5
132
100
AcDbEntity
8
0
100
AcDbCircle
10
692.5120171907904
20
-245.54325828892564
30
0
40
3.0000000000000004
210
0
220
-0
230
1
0
CIRCLE
5
133
100
AcDbEntity
8
0
100
AcDbCircle
10
739.31340752651238
20
-198.74186795320367
30
0
40
3.0000000000000004
210
0
220
-0
230
1
0
CIRCLE
5
134
100
AcDbEntity
8
0
100
AcDbCircle
10
769.36174980286023
20
-139.76867572862872
30
0
40
3
210
0
220
-0
230
1
0
CIRCLE
5
135
100
AcDbEntity
8
0
100
AcDbCircle
10
779.71570291871387
20
-74.396388560533381
30
0
40
3.0000000000000004
210
0
220
-0
230
1
0
CIRCLE
5
136
100
AcDbEntity
8
0
100
AcDbCircle
10
524.71550121099676
20
140.35617320301716
30
0
40
3.0000000000000004
210
0
220
-0
230
1
0
ARC
5
137
100
AcDbEntity
8
0
100
AcDbCircle
10
568.16653779812009
20
-74.396388560533381
30
0
40
186.54916512059376
210
0
220
0
230
1
100
AcDbArc
50
113.24594475759318
51
166.471345426162
0
ARC
5
138
100
AcDbEntity
8
0
100
AcDbCircle
10
313.16653779811992
20
140.64830700364274
30
0
40
186.5491651205937
210
-0
220
0
230
1
100
AcDbArc
50
293.24594475759318
51
346.47134542616203
0
LWPOLYLINE
5
139
100
AcDbEntity
8
0
100
AcDbPolyline
90
2
70
1
43
0.0
10
547.85586721973664
20
111.04381114774711
42
-2.4996636064873328
10
381.95875302754189
20
-85.676986861357648
42
0.29575646638033848
0
ENDSEC
0
SECTION
2
OBJECTS
0
DICTIONARY
5
C
100
AcDbDictionary
3
ACAD_GROUP
350
D
3
ACAD_MLINESTYLE
350
17
0
DICTIONARY
5
D
100
AcDbDictionary
0
DICTIONARY
5
1A
330
C
100
AcDbDictionary
0
DICTIONARY
5
17
100
AcDbDictionary
0
ENDSEC
0
EOF
