0
SECTION
2
HEADER
9
$INSUNITS
70
4
9
$ACADVER
1
AC1014
9
$HANDSEED
5
FFFF
0
ENDSEC
0
SECTION
2
TABLES
0
TABLE
2
VPORT
5
8
100
AcDbSymbolTable
0
ENDTAB
0
TABLE
2
LTYPE
5
5
100
AcDbSymbolTable
0
LTYPE
5
14
100
AcDbSymbolTableRecord
100
AcDbLinetypeTableRecord
2
BYBLOCK
70
0
0
LTYPE
5
15
100
AcDbSymbolTableRecord
100
AcDbLinetypeTableRecord
2
BYLAYER
70
0
0
ENDTAB
0
TABLE
2
LAYER
5
2
100
AcDbSymbolTable
70
2
0
LAYER
5
50
100
AcDbSymbolTableRecord
100
AcDbLayerTableRecord
2
0
70
0
6
CONTINUOUS
0
ENDTAB
0
TABLE
2
STYLE
5
3
100
AcDbSymbolTable
70
1
0
STYLE
5
11
100
AcDbSymbolTableRecord
100
AcDbTextStyleTableRecord
2
STANDARD
70
0
0
ENDTAB
0
TABLE
2
VIEW
5
6
100
AcDbSymbolTable
70
0
0
ENDTAB
0
TABLE
2
UCS
5
7
100
AcDbSymbolTable
70
0
0
ENDTAB
0
TABLE
2
APPID
5
9
100
AcDbSymbolTable
70
2
0
APPID
5
12
100
AcDbSymbolTableRecord
100
AcDbRegAppTableRecord
2
ACAD
70
0
0
ENDTAB
0
TABLE
2
DIMSTYLE
5
A
100
AcDbSymbolTable
70
1
0
ENDTAB
0
TABLE
2
BLOCK_RECORD
5
1
100
AcDbSymbolTable
70
1
0
BLOCK_RECORD
5
1F
100
AcDbSymbolTableRecord
100
AcDbBlockTableRecord
2
*MODEL_SPACE
0
BLOCK_RECORD
5
1B
100
AcDbSymbolTableRecord
100
AcDbBlockTableRecord
2
*PAPER_SPACE
0
ENDTAB
0
ENDSEC
0
SECTION
2
BLOCKS
0
BLOCK
5
20
100
AcDbEntity
100
AcDbBlockBegin
2
*MODEL_SPACE
0
ENDBLK
5
21
100
AcDbEntity
100
AcDbBlockEnd
0
BLOCK
5
1C
100
AcDbEntity
100
AcDbBlockBegin
2
*PAPER_SPACE
0
ENDBLK
5
1D
100
AcDbEntity
100
AcDbBlockEnd
0
ENDSEC
0
SECTION
2
ENTITIES
0
SPLINE
5
100
100
AcDbEntity
8
0
100
AcDbSpline
70
0
71
3
72
52
73
48
74
0
42
0.000000001
43
0.0000000001
44
0.0000000001
40
0.086384373037741297
40
0.086384373037741297
40
0.086384373037741297
40
0.086384373037741297
40
1.605823177571065
40
1.605823177571065
40
2.4880505466928993
40
2.4880505466928993
40
3.1943460832305655
40
3.1943460832305655
40
3.8603992356412697
40
3.8603992356412697
40
4.7939703826861093
40
4.7939703826861093
40
6.9517410372222255
40
6.9517410372222255
40
8.2532127031712967
40
8.2532127031712967
40
9.1966048413857653
40
9.1966048413857653
40
10.111845770333124
40
10.111845770333124
40
11.281498014781752
40
11.281498014781752
40
12.786342927014157
40
12.786342927014157
40
13.68625455689906
40
13.68625455689906
40
14.289106828513733
40
14.289106828513733
40
14.826976962650255
40
14.826976962650255
40
15.480423275461753
40
15.480423275461753
40
16.622433712835349
40
16.622433712835349
40
18.87187404287361
40
18.87187404287361
40
19.785875610050208
40
19.785875610050208
40
20.437386745058859
40
20.437386745058859
40
21.016342681154594
40
21.016342681154594
40
21.679680140012408
40
21.679680140012408
40
22.773002917382964
40
22.773002917382964
40
25.088196395986937
40
25.088196395986937
40
25.088196395986937
40
25.088196395986937
10
45.463121210209096
20
-310.60420114564641
30
0
10
44.895792025563694
20
-305.76085179283444
30
0
10
45.02544377470096
20
-302.48234220052245
30
0
10
45.837007269707115
20
-298.82638472800687
30
0
10
46.270678558458116
20
-297.79124312404088
30
0
10
47.225999732231415
20
-296.34352399488068
30
0
10
47.747692715701682
20
-295.79598833187987
30
0
10
48.992878050920069
20
-294.95916351201987
30
0
10
49.658440178387465
20
-294.68677973096976
30
0
10
51.355223219424616
20
-294.26534794148785
30
0
10
52.433745382253505
20
-294.20750667039113
30
0
10
56.145551378701512
20
-294.33514900117899
30
0
10
59.070466128574743
20
-294.94483235950429
30
0
10
63.730200773422595
20
-295.19744703045274
30
0
10
65.526445439386961
20
-295.13071049634743
30
0
10
68.445534181877278
20
-294.3058356395249
30
0
10
69.563714227571339
20
-293.7586881920887
30
0
10
71.529490416437255
20
-292.20281186595724
30
0
10
72.319670997899451
20
-291.25769924202291
30
0
10
73.757729055171851
20
-288.84846471939625
30
0
10
74.302404445843166
20
-287.31692005215177
30
0
10
75.012137941732718
20
-283.79081985785103
30
0
10
75.036307626618168
20
-281.72982202928517
30
0
10
74.46373748994705
20
-278.84133436420279
30
0
10
74.093510563196318
20
-277.75567330422268
30
0
10
73.108527783155566
20
-276.20669890764367
30
0
10
72.617989393693932
20
-275.66188961351492
30
0
10
71.47652147166643
20
-274.86042976081677
30
0
10
70.883568014339161
20
-274.60323841707128
30
0
10
69.465537109898776
20
-274.26491343496468
30
0
10
68.654418249650917
20
-274.24248882985034
30
0
10
66.468528506753472
20
-274.43075374750219
30
0
10
64.98159091082151
20
-274.83992628793482
30
0
10
60.498680585052433
20
-276.36334999068504
30
0
10
57.33567889862573
20
-277.81540055840492
30
0
10
53.08202028841712
20
-278.79650461155717
30
0
10
51.772507254177711
20
-278.97877215820932
30
0
10
49.6104855900129
20
-278.82398523102279
30
0
10
48.73605924563342
20
-278.62169062523475
30
0
10
47.208204204003522
20
-277.87071442418699
30
0
10
46.587795234696756
20
-277.38589050627974
30
0
10
45.458112780755549
20
-276.09103042585042
30
0
10
45.009722713077203
20
-275.28010658867805
30
0
10
44.129890248953686
20
-273.01442519336877
30
0
10
43.879110622073647
20
-271.43594223717531
30
0
10
43.601620706018309
20
-266.72331954375204
30
0
10
44.105375168019947
20
-263.26471117853282
30
0
10
44.689358788336044
20
-260.45808975970215
30
0
0
ARC
5
101
100
AcDbEntity
8
0
100
AcDbCircle
10
58.166537798120132
20
-74.396388560533381
30
0
40
186.54916512059367
210
0
220
0
230
1
100
AcDbArc
50
183.46678162720448
51
265.85707730742166
0
ARC
5
102
100
AcDbEntity
8
0
100
AcDbCircle
10
-196.83346220187974
20
140.64830700364263
30
0
40
236.5491651205935
210
0
220
0
230
1
100
AcDbArc
50
286.90679815809995
51
352.81049202565515
0
ARC
5
103
100
AcDbEntity
8
0
100
AcDbCircle
10
58.166537798120132
20
-74.396388560533381
30
0
40
186.54916512059359
210
0
220
0
230
1
100
AcDbArc
50
95.428667552249053
51
96.250508556550571
0
SPLINE
5
104
100
AcDbEntity
8
0
100
AcDbSpline
70
0
71
3
72
54
73
50
74
0
42
0.000000001
43
0.0000000001
44
0.0000000001
40
2.1359917739622332
40
2.1359917739622332
40
2.1359917739622332
40
2.1359917739622332
40
3.6088235089859886
40
3.6088235089859886
40
4.3960274213950612
40
4.3960274213950612
40
4.8593943605430709
40
4.8593943605430709
40
5.1876047685408402
40
5.1876047685408402
40
5.5075797126095125
40
5.5075797126095125
40
5.9587947593399671
40
5.9587947593399671
40
6.8864995456203815
40
6.8864995456203815
40
8.0268361489335227
40
8.0268361489335227
40
8.5101785582823766
40
8.5101785582823766
40
8.9207159856677141
40
8.9207159856677141
40
9.3668444804935085
40
9.3668444804935085
40
10.026080873965382
40
10.026080873965382
40
10.995958696605721
40
10.995958696605721
40
11.540715382383715
40
11.540715382383715
40
11.905666061164784
40
11.905666061164784
40
12.235534836412624
40
12.235534836412624
40
12.657550477666312
40
12.657550477666312
40
13.536897497826837
40
13.536897497826837
40
14.291016562217177
40
14.291016562217177
40
14.685165464866383
40
14.685165464866383
40
15.04593995713029
40
15.04593995713029
40
15.460153926967267
40
15.460153926967267
40
16.133665289144542
40
16.133665289144542
40
16.822710553880441
40
16.822710553880441
40
16.822710553880441
40
16.822710553880441
10
40.517788357417217
20
111.31605757695574
30
0
10
40.265906235516397
20
115.65634058208207
30
0
10
40.289039707836949
20
119.56659967696805
30
0
10
40.953951837987631
20
124.36774852845771
30
0
10
41.321606213429796
20
125.96599181856953
30
0
10
42.255870799543743
20
128.06913632372218
30
0
10
42.709923019484307
20
128.82322407754896
30
0
10
43.747982646280036
20
129.85020370305938
30
0
10
44.238817726945747
20
130.18328678919596
30
0
10
45.348114630905755
20
130.63146875801155
30
0
10
45.924587596919395
20
130.7363231792078
30
0
10
47.346612936134122
20
130.78768525484352
30
0
10
48.223909991957754
20
130.65262793060694
30
0
10
50.967488925447924
20
129.94336129867304
30
0
10
52.974952666881521
20
129.03489425911999
30
0
10
57.567399205740031
20
127.03848257731013
30
0
10
60.216676473330217
20
125.94035001932366
30
0
10
63.779065790959571
20
125.61175766431326
30
0
10
64.841360130917408
20
125.66718613633284
30
0
10
66.730275481757758
20
126.22546432106569
30
0
10
67.512475946739542
20
126.64339283955215
30
0
10
68.97381618980134
20
127.83532811019613
30
0
10
69.599098224840475
20
128.60550251883035
30
0
10
70.859064711498718
20
130.68467829664337
30
0
10
71.376849961099694
20
132.10896248380317
30
0
10
72.170148308794666
20
135.61102523018812
30
0
10
72.254872210478084
20
137.84785927435351
30
0
10
71.723126868729281
20
140.89770247779924
30
0
10
71.379133695940823
20
142.01075388189895
30
0
10
70.424486262534543
20
143.60517390364063
30
0
10
69.943974316258576
20
144.16585107886991
30
0
10
68.801348284666858
20
145.01243223084461
30
0
10
68.200320275267273
20
145.29112556242322
30
0
10
66.717632965627715
20
145.70793849836761
30
0
10
65.817043208591002
20
145.78175680312395
30
0
10
62.912602009858965
20
145.73313353135475
30
0
10
60.729506162048629
20
145.30968046787368
30
0
10
56.599715017465691
20
144.85856657983325
30
0
10
54.575283161857158
20
144.77349493886103
30
0
10
51.748553053592452
20
145.48139826688947
30
0
10
50.835808325948541
20
145.87210088780063
30
0
10
49.290265467693537
20
146.99928150185747
30
0
10
48.688635778556879
20
147.66892301466072
30
0
10
47.677557328630051
20
149.35208166104968
30
0
10
47.337296332199337
20
150.35558550690251
30
0
10
46.818756894926786
20
153.06445079028521
30
0
10
46.865713157985937
20
154.86162163606738
30
0
10
47.308336556318423
20
158.29376284812312
30
0
10
47.73521019191228
20
160.1077643712066
30
0
10
48.304468892407904
20
161.94710535488809
30
0
0
ARC
5
105
100
AcDbEntity
8
0
100
AcDbCircle
10
58.166537798120132
20
-74.396388560533381
30
0
40
236.54916512059367
210
0
220
0
230
1
100
AcDbArc
50
92.389434549056276
51
94.69435256846657
0
ARC
5
106
100
AcDbEntity
8
0
100
AcDbCircle
10
-196.83346220187974
20
140.64830700364263
30
0
40
236.54916512059398
210
0
220
-0
230
1
100
AcDbArc
50
5.0229376152884821
51
95.558313262860025
0
SPLINE
5
107
100
AcDbEntity
8
0
100
AcDbSpline
70
0
71
3
72
52
73
48
74
0
42
0.000000001
43
0.0000000001
44
0.0000000001
40
5.2561942807996598
40
5.2561942807996598
40
5.2561942807996598
40
5.2561942807996598
40
7.5567465474048907
40
7.5567465474048907
40
8.3085560786629564
40
8.3085560786629564
40
8.7970541318798468
40
8.7970541318798468
40
9.2148682483572273
40
9.2148682483572273
40
9.7244913846583341
40
9.7244913846583341
40
10.617028186804932
40
10.617028186804932
40
13.252531898722799
40
13.252531898722799
40
14.064694447752567
40
14.064694447752567
40
14.701465421412466
40
14.701465421412466
40
15.350921627340197
40
15.350921627340197
40
16.244412957313184
40
16.244412957313184
40
17.557815652611154
40
17.557815652611154
40
18.492450318783874
40
18.492450318783874
40
19.101390624915616
40
19.101390624915616
40
19.63467869750577
40
19.63467869750577
40
20.285064312369961
40
20.285064312369961
40
21.518442007481916
40
21.518442007481916
40
23.081917542683719
40
23.081917542683719
40
23.965823876635774
40
23.965823876635774
40
24.646546554108571
40
24.646546554108571
40
25.326171913309349
40
25.326171913309349
40
26.223089398521612
40
26.223089398521612
40
27.441758619684091
40
27.441758619684091
40
27.441758619684091
40
27.441758619684091
10
-220.13094040380571
20
325.73698444400185
30
0
10
-220.70460936460034
20
331.85420442655294
30
0
10
-220.6543335484875
20
336.59581875993933
30
0
10
-219.54285662926534
20
340.84980645625785
30
0
10
-219.16430224223933
20
341.80990666279291
30
0
10
-218.28767120238805
20
343.09571030062057
30
0
10
-217.86908284557364
20
343.53815908229944
30
0
10
-216.91725135256502
20
344.16233138506652
30
0
10
-216.43914714790228
20
344.35315263061062
30
0
10
-215.29893155446192
20
344.59159178516978
30
0
10
-214.64859795649062
20
344.59213818186038
30
0
10
-212.90164496270017
20
344.39539646975027
30
0
10
-211.71096984856985
20
344.03578506470319
30
0
10
-206.90617738039222
20
342.21848002158828
30
0
10
-202.82304396101057
20
339.87371032897431
30
0
10
-197.79269369616472
20
339.02046369106694
30
0
10
-196.57571086940612
20
338.97093876784083
30
0
10
-194.47020061893184
20
339.39038428828292
30
0
10
-193.61556206901739
20
339.73984689130276
30
0
10
-192.03705813852497
20
340.80287785667417
30
0
10
-191.36521207733756
20
341.4911435468415
30
0
10
-190.03222589401557
20
343.34276342044319
30
0
10
-189.46860101403789
20
344.58876076504066
30
0
10
-188.51158137894646
20
347.71211554092088
30
0
10
-188.27334226770742
20
349.77199731530931
30
0
10
-188.50355278182172
20
353.08380401288645
30
0
10
-188.79594505892067
20
354.50358114645189
30
0
10
-189.76362870275861
20
356.56117334969622
30
0
10
-190.27059773188773
20
357.29936193775535
30
0
10
-191.51511792608977
20
358.43606427078612
30
0
10
-192.17688971822065
20
358.83031517029804
30
0
10
-193.81228990712501
20
359.45022503263152
30
0
10
-194.77756760745936
20
359.60194602835031
30
0
10
-197.5477017449852
20
359.7492011033122
30
0
10
-199.5703616555648
20
359.49566381869289
30
0
10
-204.38024595542188
20
358.84983083640662
30
0
10
-207.27486733988283
20
358.43230326354558
30
0
10
-211.64000848455362
20
358.7348278343884
30
0
10
-213.21126458115452
20
359.04130762892129
30
0
10
-215.75998117625494
20
360.18049914841646
30
0
10
-216.74768214062266
20
360.8573177491192
30
0
10
-218.41361432050599
20
362.61965719726322
30
0
10
-219.03758214195892
20
363.64680531338627
30
0
10
-220.07534629612945
20
366.26000957763426
30
0
10
-220.3409393315529
20
367.87512987407354
30
0
10
-220.49021714920517
20
371.64935408101326
30
0
10
-220.2080400372495
20
373.91501166540542
30
0
10
-219.74532470036192
20
376.0852498909062
30
0
0
ARC
5
108
100
AcDbEntity
8
0
100
AcDbCircle
10
-196.83346220187974
20
140.64830700364263
30
0
40
186.54916512059359
210
0
220
-0
230
1
100
AcDbArc
50
3.4667816272044818
51
97.174203173174405
0
ARC
5
109
100
AcDbEntity
8
0
100
AcDbCircle
10
58.166537798120132
20
-74.396388560533381
30
0
40
236.54916512059361
210
0
220
0
230
1
100
AcDbArc
50
106.90679815809997
51
172.81049202565518
0
ARC
5
110
100
AcDbEntity
8
0
100
AcDbCircle
10
-196.83346220187974
20
140.64830700364263
30
0
40
186.54916512059367
210
0
220
0
230
1
100
AcDbArc
50
265.39822787314091
51
276.25050855655064
0
SPLINE
5
111
100
AcDbEntity
8
0
100
AcDbSpline
70
0
71
3
72
54
73
50
74
0
42
0.000000001
43
0.0000000001
44
0.0000000001
40
2.5280639953924737
40
2.5280639953924737
40
2.5280639953924737
40
2.5280639953924737
40
4.6587935344776579
40
4.6587935344776579
40
5.7697759253853
40
5.7697759253853
40
6.4448203611202679
40
6.4448203611202679
40
6.9541505360685019
40
6.9541505360685019
40
7.4763124289732108
40
7.4763124289732108
40
8.264607775437554
40
8.264607775437554
40
10.074055328757579
40
10.074055328757579
40
11.395484347007185
40
11.395484347007185
40
12.130287013801219
40
12.130287013801219
40
12.759494209187121
40
12.759494209187121
40
13.458594899552349
40
13.458594899552349
40
14.494504877287602
40
14.494504877287602
40
16.001211686061065
40
16.001211686061065
40
16.876691057374803
40
16.876691057374803
40
17.498395028585975
40
17.498395028585975
40
18.089855489176859
40
18.089855489176859
40
18.904442402363994
40
18.904442402363994
40
20.774494095086471
40
20.774494095086471
40
22.093992762388314
40
22.093992762388314
40
22.841600716165679
40
22.841600716165679
40
23.521881700733726
40
23.521881700733726
40
24.303265227950074
40
24.303265227950074
40
25.544421855424218
40
25.544421855424218
40
25.621461723881591
40
25.621461723881591
40
25.621461723881591
40
25.621461723881591
10
-206.14608026460451
20
-95.71747449627685
30
0
10
-206.82043080066563
20
-90.977981706724222
30
0
10
-207.04317533796299
20
-87.128648166863286
30
0
10
-206.67263421991817
20
-82.588336814263968
30
0
10
-206.40615202529307
20
-81.103275934793061
30
0
10
-205.60880788258888
20
-79.092633754036257
30
0
10
-205.2010226602508
20
-78.365644607679258
30
0
10
-204.21338193793116
20
-77.321626046574622
30
0
10
-203.7219500953309
20
-76.97020341896156
30
0
10
-202.57697596858594
20
-76.463047390411688
30
0
10
-201.95849791540104
20
-76.329696046028047
30
0
10
-200.37354947143513
20
-76.204629293068862
30
0
10
-199.34950779776332
20
-76.316065056902985
30
0
10
-195.88079194951348
20
-77.009908996504706
30
0
10
-193.18869899389242
20
-78.043063699358001
30
0
10
-188.54145278664566
20
-79.373087966165969
30
0
10
-186.54812545140319
20
-79.804353646097169
30
0
10
-183.65520005144899
20
-79.718854610914974
30
0
10
-182.64095750655005
20
-79.537125208333748
30
0
10
-180.8811488418894
20
-78.768848189418733
30
0
10
-180.17079137332917
20
-78.267001200456889
30
0
10
-178.87513107806495
20
-76.922291552110352
30
0
10
-178.3453744572721
20
-76.081674930136614
30
0
10
-177.33880700784692
20
-73.861429384896894
30
0
10
-176.99229425094057
20
-72.379232793565578
30
0
10
-176.62633427666111
20
-68.817014253912163
30
0
10
-176.80891647270042
20
-66.597324902480935
30
0
10
-177.73134291971954
20
-63.584441500606985
30
0
10
-178.23307760836798
20
-62.49414187412949
30
0
10
-179.46379618000319
20
-60.941389545369695
30
0
10
-180.07194197858877
20
-60.40457058823992
30
0
10
-181.47977875924656
20
-59.625289867575816
30
0
10
-182.21854682834123
20
-59.396972992775865
30
0
10
-184.06254389110384
20
-59.116123147132583
30
0
10
-185.20944918475533
20
-59.160612651713052
30
0
10
-189.1535940966113
20
-59.671333962918766
30
0
10
-192.25757015627917
20
-60.624284013363869
30
0
10
-197.831426971464
20
-61.566979397295697
30
0
10
-200.43108428200867
20
-61.794401496091439
30
0
10
-204.33512675802749
20
-61.036186293626358
30
0
10
-205.67648632304008
20
-60.540364986551971
30
0
10
-207.97449990657441
20
-59.042496201643402
30
0
10
-208.88790836303897
20
-58.133192994483778
30
0
10
-210.46682029784992
20
-55.810726619575711
30
0
10
-211.03193068126942
20
-54.407342286264736
30
0
10
-211.96263547702119
20
-50.630172738682916
30
0
10
-212.02683363676266
20
-48.128152869147286
30
0
10
-211.82675268862369
20
-45.596674674829572
30
0
10
-211.8140158195844
20
-45.448293434568384
30
0
10
-211.80025584919818
20
-45.299497756481117
30
0
0
ARC
5
112
100
AcDbEntity
8
0
100
AcDbCircle
10
-196.83346220187974
20
140.64830700364263
30
0
40
236.54916512059361
210
0
220
0
230
1
100
AcDbArc
50
267.74376021488371
51
274.69435256846663
0
ARC
5
113
100
AcDbEntity
8
0
100
AcDbCircle
10
58.166537798120132
20
-74.396388560533381
30
0
40
236.54916512059378
210
0
220
0
230
1
100
AcDbArc
50
185.02293761528847
51
266.92155976532325
0
ARC
5
114
100
AcDbEntity
8
0
100
AcDbCircle
10
58.166537798120132
20
-74.396388560533381
30
0
40
186.5491651205937
210
0
220
0
230
1
100
AcDbArc
50
113.24594475759312
51
166.47134542616203
0
ARC
5
115
100
AcDbEntity
8
0
100
AcDbCircle
10
-196.83346220187974
20
140.64830700364263
30
0
40
186.54916512059359
210
-0
220
0
230
1
100
AcDbArc
50
293.24594475759312
51
346.47134542616209
0
CIRCLE
5
116
100
AcDbEntity
8
0
100
AcDbCircle
10
14.715702918713857
20
140.64830700364271
30
0
40
3.0000000000000004
210
0
220
-0
230
1
0
CIRCLE
5
117
100
AcDbEntity
8
0
100
AcDbCircle
10
58.166537798120139
20
-285.94555368112708
30
0
40
3.0000000000000004
210
0
220
-0
230
1
0
CIRCLE
5
118
100
AcDbEntity
8
0
100
AcDbCircle
10
-7.2057493699751696
20
-275.59160056527344
30
0
40
3
210
0
220
-0
230
1
0
CIRCLE
5
119
100
AcDbEntity
8
0
100
AcDbCircle
10
-66.17894159455011
20
-245.54325828892559
30
0
40
3.0000000000000009
210
0
220
-0
230
1
0
CIRCLE
5
120
100
AcDbEntity
8
0
100
AcDbCircle
10
-112.98033193027203
20
-198.74186795320361
30
0
40
3.0000000000000004
210
0
220
-0
230
1
0
CIRCLE
5
121
100
AcDbEntity
8
0
100
AcDbCircle
10
-143.02867420661994
20
-139.76867572862875
30
0
40
3.0000000000000004
210
0
220
-0
230
1
0
CIRCLE
5
122
100
AcDbEntity
8
0
100
AcDbCircle
10
-153.38262732247358
20
-74.396388560533396
30
0
40
3.0000000000000004
210
0
220
-0
230
1
0
CIRCLE
5
123
100
AcDbEntity
8
0
100
AcDbCircle
10
-143.02867420661994
20
-9.0241013924380553
30
0
40
3.0000000000000009
210
-0
220
0
230
1
0
CIRCLE
5
124
100
AcDbEntity
8
0
100
AcDbCircle
10
-112.98033193027207
20
49.949090832136847
30
0
40
3.0000000000000009
210
-0
220
0
230
1
0
CIRCLE
5
125
100
AcDbEntity
8
0
100
AcDbCircle
10
-66.178941594550125
20
96.750481167858766
30
0
40
3.0000000000000004
210
-0
220
0
230
1
0
CIRCLE
5
126
100
AcDbEntity
8
0
100
AcDbCircle
10
-7.2057493699752406
20
126.79882344420669
30
0
40
3.0000000000000004
210
-0
220
0
230
1
0
CIRCLE
5
127
100
AcDbEntity
8
0
100
AcDbCircle
10
58.166537798120082
20
137.15277656006032
30
0
40
3.0000000000000004
210
-0
220
0
230
1
0
CIRCLE
5
128
100
AcDbEntity
8
0
100
AcDbCircle
10
4.3617498028602242
20
75.276019835547373
30
0
40
3
210
0
220
-0
230
1
0
CIRCLE
5
129
100
AcDbEntity
8
0
100
AcDbCircle
10
-25.686592473487657
20
16.302827610972486
30
0
40
3.0000000000000004
210
0
220
-0
230
1
0
CIRCLE
5
130
100
AcDbEntity
8
0
100
AcDbCircle
10
-72.487982809209598
20
-30.498562724749476
30
0
40
3.0000000000000004
210
0
220
-0
230
1
0
CIRCLE
5
131
100
AcDbEntity
8
0
100
AcDbCircle
10
-131.46117503378449
20
-60.546905001097358
30
0
40
3
210
0
220
-0
230
1
0
CIRCLE
5
132
100
AcDbEntity
8
0
100
AcDbCircle
10
-131.46117503378457
20
341.84351900838283
30
0
40
3.0000000000000009
210
0
220
-0
230
1
0
CIRCLE
5
133
100
AcDbEntity
8
0
100
AcDbCircle
10
-72.487982809209655
20
311.79517673203492
30
0
40
3.0000000000000004
210
0
220
-0
230
1
0
CIRCLE
5
134
100
AcDbEntity
8
0
100
AcDbCircle
10
-25.68659247348771
20
264.99378639631294
30
0
40
3.0000000000000004
210
0
220
-0
230
1
0
CIRCLE
5
135
100
AcDbEntity
8
0
100
AcDbCircle
10
4.3617498028602064
20
206.02059417173808
30
0
40
3.0000000000000004
210
0
220
-0
230
1
0
ENDSEC
0
SECTION
2
OBJECTS
0
DICTIONARY
5
C
100
AcDbDictionary
3
ACAD_GROUP
350
D
3
ACAD_MLINESTYLE
350
17
0
DICTIONARY
5
D
100
AcDbDictionary
0
DICTIONARY
5
1A
330
C
100
AcDbDictionary
0
DICTIONARY
5
17
100
AcDbDictionary
0
ENDSEC
0
EOF
