0
SECTION
2
HEADER
9
$INSUNITS
70
4
9
$ACADVER
1
AC1014
9
$HANDSEED
5
FFFF
0
ENDSEC
0
SECTION
2
TABLES
0
TABLE
2
VPORT
5
8
100
AcDbSymbolTable
0
ENDTAB
0
TABLE
2
LTYPE
5
5
100
AcDbSymbolTable
0
LTYPE
5
14
100
AcDbSymbolTableRecord
100
AcDbLinetypeTableRecord
2
BYBLOCK
70
0
0
LTYPE
5
15
100
AcDbSymbolTableRecord
100
AcDbLinetypeTableRecord
2
BYLAYER
70
0
0
ENDTAB
0
TABLE
2
LAYER
5
2
100
AcDbSymbolTable
70
2
0
LAYER
5
50
100
AcDbSymbolTableRecord
100
AcDbLayerTableRecord
2
0
70
0
6
CONTINUOUS
0
ENDTAB
0
TABLE
2
STYLE
5
3
100
AcDbSymbolTable
70
1
0
STYLE
5
11
100
AcDbSymbolTableRecord
100
AcDbTextStyleTableRecord
2
STANDARD
70
0
0
ENDTAB
0
TABLE
2
VIEW
5
6
100
AcDbSymbolTable
70
0
0
ENDTAB
0
TABLE
2
UCS
5
7
100
AcDbSymbolTable
70
0
0
ENDTAB
0
TABLE
2
APPID
5
9
100
AcDbSymbolTable
70
2
0
APPID
5
12
100
AcDbSymbolTableRecord
100
AcDbRegAppTableRecord
2
ACAD
70
0
0
ENDTAB
0
TABLE
2
DIMSTYLE
5
A
100
AcDbSymbolTable
70
1
0
ENDTAB
0
TABLE
2
BLOCK_RECORD
5
1
100
AcDbSymbolTable
70
1
0
BLOCK_RECORD
5
1F
100
AcDbSymbolTableRecord
100
AcDbBlockTableRecord
2
*MODEL_SPACE
0
BLOCK_RECORD
5
1B
100
AcDbSymbolTableRecord
100
AcDbBlockTableRecord
2
*PAPER_SPACE
0
ENDTAB
0
ENDSEC
0
SECTION
2
BLOCKS
0
BLOCK
5
20
100
AcDbEntity
100
AcDbBlockBegin
2
*MODEL_SPACE
0
ENDBLK
5
21
100
AcDbEntity
100
AcDbBlockEnd
0
BLOCK
5
1C
100
AcDbEntity
100
AcDbBlockBegin
2
*PAPER_SPACE
0
ENDBLK
5
1D
100
AcDbEntity
100
AcDbBlockEnd
0
ENDSEC
0
SECTION
2
ENTITIES
0
CIRCLE
5
100
100
AcDbEntity
8
0
100
AcDbCircle
10
-58.166537798120132
20
-285.94555368112708
30
0
40
5
210
0
220
-0
230
1
0
SPLINE
5
101
100
AcDbEntity
8
0
100
AcDbSpline
70
0
71
3
72
48
73
44
74
0
42
0.000000001
43
0.0000000001
44
0.0000000001
40
2.8093567591811701
40
2.8093567591811701
40
2.8093567591811701
40
2.8093567591811701
40
3.4771851857863227
40
3.4771851857863227
40
3.9894396571366908
40
3.9894396571366908
40
4.4257312823659252
40
4.4257312823659252
40
4.9500299324870145
40
4.9500299324870145
40
5.851824426280813
40
5.851824426280813
40
7.3839797953543966
40
7.3839797953543966
40
7.9723942144055862
40
7.9723942144055862
40
8.4628976777881491
40
8.4628976777881491
40
8.9720306160389516
40
8.9720306160389516
40
9.5784477006307132
40
9.5784477006307132
40
10.055229552962205
40
10.055229552962205
40
10.418199240978547
40
10.418199240978547
40
10.763075948635574
40
10.763075948635574
40
11.209042081613608
40
11.209042081613608
40
12.038969363971376
40
12.038969363971376
40
13.169950992317752
40
13.169950992317752
40
13.670430038333283
40
13.670430038333283
40
14.041696012717916
40
14.041696012717916
40
14.407852951976768
40
14.407852951976768
40
14.925589189021434
40
14.925589189021434
40
15.737601559490532
40
15.737601559490532
40
15.737601559490532
40
15.737601559490532
10
-77.128925668730744
20
-267.01442293198915
30
0
10
-77.173233546036229
20
-268.62141564163778
30
0
10
-77.043181455512183
20
-270.26781842148614
30
0
10
-76.259239854161933
20
-272.95711438667456
30
0
10
-75.736634865246359
20
-274.04500598075623
30
0
10
-74.32422006484029
20
-275.7996388906293
30
0
10
-73.542467043044709
20
-276.45291742907182
30
0
10
-71.567883837555328
20
-277.59678978083235
30
0
10
-70.373897796081948
20
-277.99888611578302
30
0
10
-67.062566622019531
20
-278.70760990575275
30
0
10
-64.774338634130331
20
-278.76396474805739
30
0
10
-58.69623722377262
20
-278.66715121008929
30
0
10
-54.836442830239321
20
-278.3377814649416
30
0
10
-50.344996820763456
20
-279.40772657339357
30
0
10
-49.15736733872771
20
-279.87505862210719
30
0
10
-47.235735796123102
20
-281.22458802529758
30
0
10
-46.512610636587077
20
-281.9885460105798
30
0
10
-45.355724037263684
20
-283.82227518993631
30
0
10
-44.95595443274258
20
-284.86899346857291
30
0
10
-44.464339777703223
20
-287.23224122976842
30
0
10
-44.439110455475756
20
-288.59488323648651
30
0
10
-44.858627564606493
20
-290.89391147942763
30
0
10
-45.210045426911584
20
-291.88857441915889
30
0
10
-46.182966303039947
20
-293.41347910324748
30
0
10
-46.711134149060818
20
-293.98353698416611
30
0
10
-47.964697252764417
20
-294.85635365942278
30
0
10
-48.640481181362098
20
-295.14493214029795
30
0
10
-50.300246273551743
20
-295.5500857957523
30
0
10
-51.283744439743245
20
-295.58306222831237
30
0
10
-54.028697410325222
20
-295.38420383639385
30
0
10
-55.938247223147705
20
-294.88532732959618
30
0
10
-60.402616757021704
20
-293.57889071130791
30
0
10
-62.983746831715422
20
-292.71087392140095
30
0
10
-66.389070750442457
20
-292.33433625906264
30
0
10
-67.474947854636753
20
-292.32847413210089
30
0
10
-69.266462027861024
20
-292.73698262095093
30
0
10
-69.972268197825571
20
-293.0367822107616
30
0
10
-71.238786695167974
20
-293.93667381579843
30
0
10
-71.755285826790427
20
-294.50010769310916
30
0
10
-72.783178232074093
20
-296.05165634232026
30
0
10
-73.193860925352425
20
-297.10455759211999
30
0
10
-73.926563461184841
20
-299.80274130200155
30
0
10
-74.117061336553974
20
-301.63776594003156
30
0
10
-74.173309080743678
20
-303.38678678864119
30
0
0
ARC
5
102
100
AcDbEntity
8
0
100
AcDbCircle
10
-58.166537798120302
20
-74.396388560533495
30
0
40
193.54916512059347
210
0
220
0
230
1
100
AcDbArc
50
181.80593871626684
51
264.37760211138874
0
ARC
5
103
100
AcDbEntity
8
0
100
AcDbCircle
10
-313.1665377981198
20
140.64830700364283
30
0
40
229.54916512059367
210
-0
220
0
230
1
100
AcDbArc
50
285.5524909191775
51
354.16479926457765
0
ARC
5
104
100
AcDbEntity
8
0
100
AcDbCircle
10
-58.166537798120302
20
-74.396388560533495
30
0
40
193.54916512059384
210
0
220
0
230
1
100
AcDbArc
50
93.551024486236287
51
97.911351467488061
0
SPLINE
5
105
100
AcDbEntity
8
0
100
AcDbSpline
70
0
71
3
72
8
73
4
74
0
42
0.000000001
43
0.0000000001
44
0.0000000001
40
0.082233453830178951
40
0.082233453830178951
40
0.082233453830178951
40
0.082233453830178951
40
0.4892030101947914
40
0.4892030101947914
40
0.4892030101947914
40
0.4892030101947914
10
-69.727531235241273
20
123.81590773016501
30
0
10
-69.94432890006766
20
122.38861718210464
30
0
10
-70.092629161745165
20
120.72680198304381
30
0
10
-70.154469750817995
20
118.78116915872225
30
0
0
ARC
5
106
100
AcDbEntity
8
0
100
AcDbCircle
10
-58.166537798120302
20
-74.396388560533495
30
0
40
198.54916512059376
210
0
220
0
230
1
100
AcDbArc
50
93.338069961216789
51
99.056597528846055
0
ARC
5
107
100
AcDbEntity
8
0
100
AcDbCircle
10
-313.1665377981198
20
140.64830700364283
30
0
40
224.54916512059378
210
0
220
0
230
1
100
AcDbArc
50
284.56363488099402
51
355.15365530276108
0
ARC
5
108
100
AcDbEntity
8
0
100
AcDbCircle
10
-58.166537798120302
20
-74.396388560533495
30
0
40
198.5491651205935
210
0
220
0
230
1
100
AcDbArc
50
180.66069265490836
51
182.13979894827827
0
LINE
5
109
100
AcDbEntity
8
0
100
AcDbLine
10
-256.57725441532591
20
-81.809788693509688
30
0
11
-282.59329434649629
21
-81.809788693509674
31
0
0
ARC
5
110
100
AcDbEntity
8
0
100
AcDbCircle
10
-313.1665377981198
20
140.64830700364283
30
0
40
224.54916512059413
210
0
220
0
230
1
100
AcDbArc
50
267.84987927093306
51
277.82534933137299
0
SPLINE
5
111
100
AcDbEntity
8
0
100
AcDbSpline
70
0
71
3
72
12
73
8
74
0
42
0.000000001
43
0.0000000001
44
0.0000000001
40
7.9965153242133882
40
7.9965153242133882
40
7.9965153242133882
40
7.9965153242133882
40
8.0281848359309969
40
8.0281848359309969
40
8.6070684739844445
40
8.6070684739844445
40
8.622879008665743
40
8.622879008665743
40
8.622879008665743
40
8.622879008665743
10
-321.59114616386137
20
-83.742765747123514
30
0
10
-321.60106348036982
20
-83.814934246870308
30
0
10
-321.61016235076443
20
-83.88789318187429
30
0
10
-321.77033560193939
20
-85.309436683375338
30
0
10
-321.65968419299793
20
-86.925017730698443
30
0
10
-321.43149948767859
20
-88.659464116988786
30
0
10
-321.42532089263079
20
-88.705833545959351
30
0
10
-321.41902924221142
20
-88.752468044147363
30
0
0
ARC
5
112
100
AcDbEntity
8
0
100
AcDbCircle
10
-313.1665377981198
20
140.64830700364283
30
0
40
229.54916512059384
210
0
220
0
230
1
100
AcDbArc
50
267.9397230977882
51
276.45886228555958
0
ARC
5
113
100
AcDbEntity
8
0
100
AcDbCircle
10
-58.166537798120302
20
-74.396388560533495
30
0
40
229.54916512059373
210
0
220
0
230
1
100
AcDbArc
50
183.25842789819535
51
266.00144347185824
0
SPLINE
5
114
100
AcDbEntity
8
0
100
AcDbSpline
70
0
71
3
72
48
73
44
74
0
42
0.000000001
43
0.0000000001
44
0.0000000001
40
2.9729458233246446
40
2.9729458233246446
40
2.9729458233246446
40
2.9729458233246446
40
3.0784562914363303
40
3.0784562914363303
40
3.3916118364709016
40
3.3916118364709016
40
3.7048920867243611
40
3.7048920867243611
40
4.1422253108264382
40
4.1422253108264382
40
5.0865818761450541
40
5.0865818761450541
40
5.4502536007962741
40
5.4502536007962741
40
5.7423633920866299
40
5.7423633920866299
40
6.0431851448684348
40
6.0431851448684348
40
6.4763525542342029
40
6.4763525542342029
40
7.1336683428820935
40
7.1336683428820935
40
7.6163091374609087
40
7.6163091374609087
40
7.9642344337725426
40
7.9642344337725426
40
8.2885187051929154
40
8.2885187051929154
40
8.7093087393103694
40
8.7093087393103694
40
9.5104737895172331
40
9.5104737895172331
40
10.692957267595162
40
10.692957267595162
40
11.079445795541087
40
11.079445795541087
40
11.410223146876367
40
11.410223146876367
40
11.792505532311971
40
11.792505532311971
40
12.435934466226946
40
12.435934466226946
40
12.588967889322131
40
12.588967889322131
40
12.588967889322131
40
12.588967889322131
10
-62.398944144330422
20
150.11288584227671
30
0
10
-62.267400336593049
20
149.81633627966966
30
0
10
-62.118916343918578
20
149.52702879944684
30
0
10
-61.456431297829582
20
148.4150352787496
30
0
10
-60.821940028116359
20
147.70314072441789
30
0
10
-59.270937957666419
20
146.54269594647087
30
0
10
-58.399985983695132
20
146.12800591601632
30
0
10
-56.180055122863813
20
145.44104193628147
30
0
10
-54.806370534298246
20
145.29776241422167
30
0
10
-50.515775453828162
20
145.23452985830136
30
0
10
-47.591480974872731
20
145.76511959390902
30
0
10
-44.141226382322181
20
145.52895007320481
30
0
10
-43.233288250445696
20
145.35862504712918
30
0
10
-41.749765683869981
20
144.71541422147681
30
0
10
-41.171284525570648
20
144.32038468843771
30
0
10
-40.160037606307071
20
143.26860442136456
30
0
10
-39.766684914966255
20
142.63921404864422
30
0
10
-39.040942802510358
20
140.9890242155808
30
0
10
-38.805640766490704
20
139.90592380262504
30
0
10
-38.567324081696619
20
137.23254082714121
30
0
10
-38.733275935687516
20
135.51008609424713
30
0
10
-39.530936862778617
20
132.81522482793014
30
0
10
-40.046705036617418
20
131.69783556055185
30
0
10
-41.310454103131697
20
130.08820976476989
30
0
10
-41.94392517020394
20
129.52082253761296
30
0
10
-43.390893646029667
20
128.70909512999677
30
0
10
-44.142890693130596
20
128.47087375312793
30
0
10
-45.963965140306129
20
128.20750850795488
30
0
10
-47.0254436961919
20
128.27251671003518
30
0
10
-49.996793570412727
20
128.76413613325033
30
0
10
-52.04018575242516
20
129.50293589981987
30
0
10
-56.977261108950032
20
131.37817245023228
30
0
10
-59.885085004888424
20
132.56551435707371
30
0
10
-63.260473253886374
20
132.66565670457678
30
0
10
-64.087149308478615
20
132.5725151936187
30
0
10
-65.5401940848582
20
132.04642023090958
30
0
10
-66.132926249841205
20
131.68087676300067
30
0
10
-67.263087548105432
20
130.64158195959553
30
0
10
-67.742672766425017
20
129.96036192631968
30
0
10
-68.775625668126253
20
128.01153691596829
30
0
10
-69.218394324728195
20
126.54492928625936
30
0
10
-69.597890666195639
20
124.61321839738159
30
0
10
-69.665531445188478
20
124.22408424071432
30
0
10
-69.727531235241273
20
123.81590773016501
30
0
0
ARC
5
115
100
AcDbEntity
8
0
100
AcDbCircle
10
-58.166537798120586
20
-74.396388560531918
30
0
40
224.54916512059239
210
0
220
0
230
1
100
AcDbArc
50
91.080001261804881
51
97.825349331372976
0
ARC
5
116
100
AcDbEntity
8
0
100
AcDbCircle
10
-313.16653779811992
20
140.64830700364269
30
0
40
224.5491651205939
210
0
220
-0
230
1
100
AcDbArc
50
1.891940852382088
51
93.48400401896879
0
SPLINE
5
117
100
AcDbEntity
8
0
100
AcDbSpline
70
0
71
3
72
42
73
38
74
0
42
0.000000001
43
0.0000000001
44
0.0000000001
40
0.096599382109244111
40
0.096599382109244111
40
0.096599382109244111
40
0.096599382109244111
40
0.43020825353366071
40
0.43020825353366071
40
0.7787835836566106
40
0.7787835836566106
40
1.1389580671542126
40
1.1389580671542126
40
1.6445380732934576
40
1.6445380732934576
40
2.6162072411574497
40
2.6162072411574497
40
3.4348861865176734
40
3.4348861865176734
40
3.6907029990542091
40
3.6907029990542091
40
3.8902481109493805
40
3.8902481109493805
40
4.0974726389195357
40
4.0974726389195357
40
4.4023161701637772
40
4.4023161701637772
40
4.9215912223993916
40
4.9215912223993916
40
5.6523371031810363
40
5.6523371031810363
40
6.276594535052622
40
6.276594535052622
40
6.9304034373376036
40
6.9304034373376036
40
7.9493972808125033
40
7.9493972808125033
40
8.8757720499257911
40
8.8757720499257911
40
9.5035687290057869
40
9.5035687290057869
40
9.9297711260892729
40
9.9297711260892729
40
9.9297711260892729
40
9.9297711260892729
10
-326.81236257355715
20
364.78246107783519
30
0
10
-326.4251143742851
20
363.74501784479042
30
0
10
-325.90069909938393
20
362.76731584856998
30
0
10
-324.48222418541116
20
360.99375759352961
30
0
10
-323.60887854324938
20
360.25385353872053
30
0
10
-321.54549392761123
20
359.10884139273116
30
0
10
-320.40363128422649
20
358.7472995797271
30
0
10
-317.55534505631556
20
358.28382232756132
30
0
10
-315.82909435359898
20
358.34845349409613
30
0
10
-310.94343335429994
20
359.02731856843639
30
0
10
-307.7415039847092
20
360.11913301648127
30
0
10
-302.51191747229973
20
361.69564004263742
30
0
10
-300.35200410301832
20
362.25669725542718
30
0
10
-298.12783516633442
20
362.07528228545442
30
0
10
-297.60204344951211
20
361.96041127745082
30
0
10
-296.75211152098893
20
361.54261038405451
30
0
10
-296.42893573131323
20
361.29653370995038
30
0
10
-295.87301053749991
20
360.65980383738133
30
0
10
-295.66183727761836
20
360.28390529711481
30
0
10
-295.27922870391444
20
359.29144832635939
30
0
10
-295.17208770895274
20
358.64212620650187
30
0
10
-295.08268127591589
20
356.93061384136558
30
0
10
-295.23076291934751
20
355.72041938339538
30
0
10
-296.01225166957357
20
352.75926761722224
30
0
10
-296.84278153302517
20
350.90138222455209
30
0
10
-299.12617337437246
20
347.91498150417772
30
0
10
-300.2876669438711
20
346.94914913453192
30
0
10
-302.75257114344078
20
345.53006383644998
30
0
10
-304.09958849663565
20
345.08345389206619
30
0
10
-307.77128257805083
20
344.38312716426242
30
0
10
-310.07993704757558
20
344.40407786295964
30
0
10
-314.41448301867388
20
344.20342780772648
30
0
10
-316.46738617304652
20
344.00276884942036
30
0
10
-319.67034513682557
20
342.76194489559009
30
0
10
-320.80108592314383
20
342.05079800386699
30
0
10
-322.47711044313434
20
340.44378536307192
30
0
10
-323.06126724266568
20
339.71053496140911
30
0
10
-323.56761661898372
20
338.92485258946579
30
0
0
ARC
5
118
100
AcDbEntity
8
0
100
AcDbCircle
10
-313.16653779811992
20
140.64830700364269
30
0
40
198.54916512059378
210
0
220
-0
230
1
100
AcDbArc
50
0.66069265490892026
51
93.002837210642525
0
ARC
5
119
100
AcDbEntity
8
0
100
AcDbCircle
10
-58.166537798120586
20
-74.396388560531918
30
0
40
224.54916512059199
210
0
220
0
230
1
100
AcDbArc
50
104.56363488099403
51
175.15365530276148
0
ARC
5
120
100
AcDbEntity
8
0
100
AcDbCircle
10
-313.16653779811992
20
140.64830700364269
30
0
40
198.54916512059367
210
0
220
0
230
1
100
AcDbArc
50
268.84977961578079
51
279.05659752884617
0
LINE
5
121
100
AcDbEntity
8
0
100
AcDbLine
10
-317.15217093928032
20
-57.860850715966983
30
0
11
-317.13985766451339
21
-58.493274954788745
31
0
0
SPLINE
5
122
100
AcDbEntity
8
0
100
AcDbSpline
70
0
71
3
72
48
73
44
74
0
42
0.000000001
43
0.0000000001
44
0.0000000001
40
0
40
0
40
0
40
0
40
0.43622586998619639
40
0.43622586998619639
40
0.56960853225670705
40
0.56960853225670705
40
0.65688283909568057
40
0.65688283909568057
40
0.73634751281866317
40
0.73634751281866317
40
0.84083382589121847
40
0.84083382589121847
40
1.0312768438886937
40
1.0312768438886937
40
1.4893326115561876
40
1.4893326115561876
40
2.683625803261279
40
2.683625803261279
40
3.0904998666060854
40
3.0904998666060854
40
3.4261572996844585
40
3.4261572996844585
40
3.7470580016518431
40
3.7470580016518431
40
4.0695496743402453
40
4.0695496743402453
40
4.3656627968745259
40
4.3656627968745259
40
4.660216870955316
40
4.660216870955316
40
5.015425965247112
40
5.015425965247112
40
5.578431953404027
40
5.578431953404027
40
6.885183686468471
40
6.885183686468471
40
7.2460117354497573
40
7.2460117354497573
40
7.500444050049234
40
7.500444050049234
40
7.7344241733386028
40
7.7344241733386028
40
7.9890084528502632
40
7.9890084528502632
40
7.9890084528502632
40
7.9890084528502632
10
-317.13985766451339
20
-58.49327495478876
30
0
10
-317.75766802074293
20
-59.809586900176804
30
0
10
-318.10485820296128
20
-60.857382828235529
30
0
10
-318.1571864462407
20
-61.871413021835401
30
0
10
-318.14230773171232
20
-62.120836986528772
30
0
10
-318.02286976445549
20
-62.496797256316611
30
0
10
-317.95201205104308
20
-62.633399351489146
30
0
10
-317.75942894896508
20
-62.861102506144334
30
0
10
-317.64920106011618
20
-62.947655897407486
30
0
10
-317.36102090317866
20
-63.106272706639686
30
0
10
-317.17780704707718
20
-63.162265502050474
30
0
10
-316.66057968121925
20
-63.260326695778126
30
0
10
-316.2765759144504
20
-63.262857796542811
30
0
10
-314.90716274827668
20
-63.158364643960567
30
0
10
-313.67913742485405
20
-62.878691946448761
30
0
10
-308.64329899156695
20
-61.641868794808559
30
0
10
-303.7850961400211
20
-60.29813058302841
30
0
10
-297.8253956578597
20
-61.199639647042147
30
0
10
-296.36816453273775
20
-61.661453814521451
30
0
10
-293.97451478188754
20
-63.087652690515611
30
0
10
-293.04157581570001
20
-63.921260057903794
30
0
10
-291.58108059962598
20
-65.893202143486448
30
0
10
-291.06009021255795
20
-66.989125877665089
30
0
10
-290.4607308453472
20
-69.312722986906323
30
0
10
-290.38703249980995
20
-70.531472552658329
30
0
10
-290.72392696653515
20
-72.81326529110585
30
0
10
-291.09223564255285
20
-73.858920780594147
30
0
10
-292.23124574805524
20
-75.748722921285818
30
0
10
-292.97305246347992
20
-76.55189447021435
30
0
10
-294.90789184491547
20
-78.027276513704379
30
0
10
-296.11998045059488
20
-78.606775880467936
30
0
10
-299.39248363280063
20
-79.678713247133828
30
0
10
-301.59119988009928
20
-79.940584653018519
30
0
10
-308.59961661833455
20
-80.194515782595985
30
0
10
-313.45072450074883
20
-79.388707534588519
30
0
10
-317.67447632634577
20
-79.728606883508832
30
0
10
-318.46578540539963
20
-79.88343076724648
30
0
10
-319.59910507897661
20
-80.352662638294419
30
0
10
-320.02412578184254
20
-80.614645602139746
30
0
10
-320.71622917515106
20
-81.301790997997543
30
0
10
-320.96677654590553
20
-81.685804920611261
30
0
10
-321.36121742577711
20
-82.576673801952353
30
0
10
-321.50506950323881
20
-83.116384260255799
30
0
10
-321.59114616386142
20
-83.742765747123514
30
0
0
ARC
5
123
100
AcDbEntity
8
0
100
AcDbCircle
10
-313.16653779811992
20
140.64830700364269
30
0
40
224.54916512059395
210
0
220
0
230
1
100
AcDbArc
50
267.84987927093306
51
277.82534933137305
0
LINE
5
124
100
AcDbEntity
8
0
100
AcDbLine
10
-282.59329434649612
20
-81.809788693509958
30
0
11
-256.57725441532591
21
-81.809788693509674
31
0
0
ARC
5
125
100
AcDbEntity
8
0
100
AcDbCircle
10
-58.166537798120586
20
-74.396388560531918
30
0
40
198.54916512059319
210
0
220
0
230
1
100
AcDbArc
50
180.6606926549089
51
182.13979894827878
0
ARC
5
126
100
AcDbEntity
8
0
100
AcDbCircle
10
-313.16653779811992
20
140.64830700364269
30
0
40
224.54916512059359
210
0
220
0
230
1
100
AcDbArc
50
284.56363488099407
51
355.15365530276114
0
ARC
5
127
100
AcDbEntity
8
0
100
AcDbCircle
10
-58.166537798120586
20
-74.396388560531918
30
0
40
198.54916512059216
210
0
220
0
230
1
100
AcDbArc
50
93.338069961216746
51
99.056597528846098
0
ARC
5
128
100
AcDbEntity
8
0
100
AcDbCircle
10
-313.16653779811992
20
140.64830700364269
30
0
40
198.54916512059364
210
-0
220
0
230
1
100
AcDbArc
50
287.00084338095144
51
352.71644680280355
0
ARC
5
129
100
AcDbEntity
8
0
100
AcDbCircle
10
-58.166537798120586
20
-74.396388560531918
30
0
40
198.54916512059197
210
0
220
0
230
1
100
AcDbArc
50
107.00084338095149
51
172.71644680280406
0
ARC
5
130
100
AcDbEntity
8
0
100
AcDbCircle
10
-58.166537798120359
20
-74.396388560533495
30
0
40
198.54916512059364
210
0
220
0
230
1
100
AcDbArc
50
107.00084338095141
51
172.71644680280355
0
ARC
5
131
100
AcDbEntity
8
0
100
AcDbCircle
10
-313.1665377981198
20
140.64830700364283
30
0
40
198.54916512059367
210
-0
220
0
230
1
100
AcDbArc
50
287.00084338095144
51
352.7164468028036
0
ARC
5
132
100
AcDbEntity
8
0
100
AcDbCircle
10
-58.166537798120359
20
-74.396388560533495
30
0
40
193.54916512059367
210
0
220
0
230
1
100
AcDbArc
50
109.36891340603276
51
170.34837677772228
0
ARC
5
133
100
AcDbEntity
8
0
100
AcDbCircle
10
-313.1665377981198
20
140.64830700364283
30
0
40
193.54916512059378
210
0
220
0
230
1
100
AcDbArc
50
289.36891340603273
51
350.34837677772225
0
LINE
5
134
100
AcDbEntity
8
0
100
AcDbLine
10
-317.24958040760157
20
-52.857786135379698
30
0
11
-317.15217093928027
21
-57.860850715966933
31
0
0
ARC
5
135
100
AcDbEntity
8
0
100
AcDbCircle
10
-313.1665377981198
20
140.64830700364283
30
0
40
198.54916512059384
210
0
220
0
230
1
100
AcDbArc
50
268.84977961578079
51
279.05659752884611
0
ARC
5
136
100
AcDbEntity
8
0
100
AcDbCircle
10
-58.166537798120252
20
-74.39638856053358
30
0
40
224.54916512059378
210
0
220
0
230
1
100
AcDbArc
50
104.563634880994
51
175.15365530276108
0
ARC
5
137
100
AcDbEntity
8
0
100
AcDbCircle
10
-313.1665377981198
20
140.64830700364283
30
0
40
198.54916512059364
210
0
220
-0
230
1
100
AcDbArc
50
0.66069265490836859
51
93.002837210642525
0
SPLINE
5
138
100
AcDbEntity
8
0
100
AcDbSpline
70
0
71
3
72
10
73
6
74
0
42
0.000000001
43
0.0000000001
44
0.0000000001
40
0.093906619529897067
40
0.093906619529897067
40
0.093906619529897067
40
0.093906619529897067
40
0.56433608921887446
40
0.56433608921887446
40
0.65150947999259823
40
0.65150947999259823
40
0.65150947999259823
40
0.65150947999259823
10
-323.56761661898366
20
338.92485258946579
30
0
10
-324.42081850068496
20
337.60097285441788
30
0
10
-325.059750419137
20
336.11826311223456
30
0
10
-325.63940320825907
20
334.35974234851597
30
0
10
-325.72768226652556
20
334.07625175121916
30
0
10
-325.81349187334609
20
333.78383939345952
30
0
0
ARC
5
139
100
AcDbEntity
8
0
100
AcDbCircle
10
-313.1665377981198
20
140.64830700364283
30
0
40
193.54916512059364
210
0
220
-0
230
1
100
AcDbArc
50
1.805938716266847
51
93.746509187970076
0
ARC
5
140
100
AcDbEntity
8
0
100
AcDbCircle
10
-58.166537798120252
20
-74.39638856053358
30
0
40
229.5491651205937
210
0
220
0
230
1
100
AcDbArc
50
105.55249091917744
51
174.1647992645776
0
ARC
5
141
100
AcDbEntity
8
0
100
AcDbCircle
10
-313.1665377981198
20
140.64830700364283
30
0
40
193.54916512059387
210
0
220
0
230
1
100
AcDbArc
50
268.7912194606223
51
277.91135146748803
0
SPLINE
5
142
100
AcDbEntity
8
0
100
AcDbSpline
70
0
71
3
72
10
73
6
74
0
42
0.000000001
43
0.0000000001
44
0.0000000001
40
2.3594877068106705
40
2.3594877068106705
40
2.3594877068106705
40
2.3594877068106705
40
2.7323969378512407
40
2.7323969378512407
40
2.8981247803035592
40
2.8981247803035592
40
2.8981247803035592
40
2.8981247803035592
10
-63.287182918698939
20
155.09565531269254
30
0
10
-63.303441010835442
20
153.90197393125331
30
0
10
-63.196441834159302
20
152.70769490072726
30
0
10
-62.774925790899793
20
151.0756171673512
30
0
10
-62.608315002222632
20
150.58488705159672
30
0
10
-62.39894414433045
20
150.11288584227671
30
0
0
ARC
5
143
100
AcDbEntity
8
0
100
AcDbCircle
10
-58.166537798120345
20
-74.396388560533552
30
0
40
229.54916512059381
210
0
220
0
230
1
100
AcDbArc
50
91.278225917293057
51
96.458862285559618
0
ARC
5
144
100
AcDbEntity
8
0
100
AcDbCircle
10
-313.1665377981198
20
140.64830700364283
30
0
40
229.54916512059361
210
0
220
-0
230
1
100
AcDbArc
50
3.2584278981952659
51
93.64045563078048
0
SPLINE
5
145
100
AcDbEntity
8
0
100
AcDbSpline
70
0
71
3
72
8
73
4
74
0
42
0.000000001
43
0.0000000001
44
0.0000000001
40
0.095964669219231483
40
0.095964669219231483
40
0.095964669219231483
40
0.095964669219231483
40
0.59854222753838382
40
0.59854222753838382
40
0.59854222753838382
40
0.59854222753838382
10
-327.74180668044863
20
369.73427502562657
30
0
10
-327.66858740922476
20
368.04840729908511
30
0
10
-327.39703903776467
20
366.34881730538416
30
0
10
-326.81236257355727
20
364.78246107783519
30
0
0
ARC
5
146
100
AcDbEntity
8
0
100
AcDbCircle
10
-313.1665377981198
20
140.64830700364283
30
0
40
224.5491651205939
210
0
220
-0
230
1
100
AcDbArc
50
1.891940852382088
51
93.484004018968861
0
ARC
5
147
100
AcDbEntity
8
0
100
AcDbCircle
10
-58.166537798120345
20
-74.396388560533552
30
0
40
224.54916512059401
210
0
220
0
230
1
100
AcDbArc
50
91.080001261804952
51
97.825349331372948
0
ENDSEC
0
SECTION
2
OBJECTS
0
DICTIONARY
5
C
100
AcDbDictionary
3
ACAD_GROUP
350
D
3
ACAD_MLINESTYLE
350
17
0
DICTIONARY
5
D
100
AcDbDictionary
0
DICTIONARY
5
1A
330
C
100
AcDbDictionary
0
DICTIONARY
5
17
100
AcDbDictionary
0
ENDSEC
0
EOF
