0
SECTION
2
HEADER
9
$INSUNITS
70
4
9
$ACADVER
1
AC1014
9
$HANDSEED
5
FFFF
0
ENDSEC
0
SECTION
2
TABLES
0
TABLE
2
VPORT
5
8
100
AcDbSymbolTable
0
ENDTAB
0
TABLE
2
LTYPE
5
5
100
AcDbSymbolTable
0
LTYPE
5
14
100
AcDbSymbolTableRecord
100
AcDbLinetypeTableRecord
2
BYBLOCK
70
0
0
LTYPE
5
15
100
AcDbSymbolTableRecord
100
AcDbLinetypeTableRecord
2
BYLAYER
70
0
0
ENDTAB
0
TABLE
2
LAYER
5
2
100
AcDbSymbolTable
70
2
0
LAYER
5
50
100
AcDbSymbolTableRecord
100
AcDbLayerTableRecord
2
0
70
0
6
CONTINUOUS
0
ENDTAB
0
TABLE
2
STYLE
5
3
100
AcDbSymbolTable
70
1
0
STYLE
5
11
100
AcDbSymbolTableRecord
100
AcDbTextStyleTableRecord
2
STANDARD
70
0
0
ENDTAB
0
TABLE
2
VIEW
5
6
100
AcDbSymbolTable
70
0
0
ENDTAB
0
TABLE
2
UCS
5
7
100
AcDbSymbolTable
70
0
0
ENDTAB
0
TABLE
2
APPID
5
9
100
AcDbSymbolTable
70
2
0
APPID
5
12
100
AcDbSymbolTableRecord
100
AcDbRegAppTableRecord
2
ACAD
70
0
0
ENDTAB
0
TABLE
2
DIMSTYLE
5
A
100
AcDbSymbolTable
70
1
0
ENDTAB
0
TABLE
2
BLOCK_RECORD
5
1
100
AcDbSymbolTable
70
1
0
BLOCK_RECORD
5
1F
100
AcDbSymbolTableRecord
100
AcDbBlockTableRecord
2
*MODEL_SPACE
0
BLOCK_RECORD
5
1B
100
AcDbSymbolTableRecord
100
AcDbBlockTableRecord
2
*PAPER_SPACE
0
ENDTAB
0
ENDSEC
0
SECTION
2
BLOCKS
0
BLOCK
5
20
100
AcDbEntity
100
AcDbBlockBegin
2
*MODEL_SPACE
0
ENDBLK
5
21
100
AcDbEntity
100
AcDbBlockEnd
0
BLOCK
5
1C
100
AcDbEntity
100
AcDbBlockBegin
2
*PAPER_SPACE
0
ENDBLK
5
1D
100
AcDbEntity
100
AcDbBlockEnd
0
ENDSEC
0
SECTION
2
ENTITIES
0
SPLINE
5
100
100
AcDbEntity
8
0
100
AcDbSpline
70
0
71
3
72
48
73
44
74
0
42
0.000000001
43
0.0000000001
44
0.0000000001
40
2.8093567591811701
40
2.8093567591811701
40
2.8093567591811701
40
2.8093567591811701
40
3.4771851857863227
40
3.4771851857863227
40
3.9894396571366908
40
3.9894396571366908
40
4.4257312823659252
40
4.4257312823659252
40
4.9500299324870145
40
4.9500299324870145
40
5.851824426280813
40
5.851824426280813
40
7.3839797953543966
40
7.3839797953543966
40
7.9723942144055862
40
7.9723942144055862
40
8.4628976777881491
40
8.4628976777881491
40
8.9720306160389516
40
8.9720306160389516
40
9.5784477006307132
40
9.5784477006307132
40
10.055229552962205
40
10.055229552962205
40
10.418199240978547
40
10.418199240978547
40
10.763075948635574
40
10.763075948635574
40
11.209042081613608
40
11.209042081613608
40
12.038969363971376
40
12.038969363971376
40
13.169950992317752
40
13.169950992317752
40
13.670430038333283
40
13.670430038333283
40
14.041696012717916
40
14.041696012717916
40
14.407852951976768
40
14.407852951976768
40
14.925589189021434
40
14.925589189021434
40
15.737601559490532
40
15.737601559490532
40
15.737601559490532
40
15.737601559490532
10
-77.128925668730744
20
-267.01442293198915
30
0
10
-77.173233546036229
20
-268.62141564163778
30
0
10
-77.043181455512183
20
-270.26781842148614
30
0
10
-76.259239854161933
20
-272.95711438667456
30
0
10
-75.736634865246359
20
-274.04500598075623
30
0
10
-74.32422006484029
20
-275.7996388906293
30
0
10
-73.542467043044709
20
-276.45291742907182
30
0
10
-71.567883837555328
20
-277.59678978083235
30
0
10
-70.373897796081948
20
-277.99888611578302
30
0
10
-67.062566622019531
20
-278.70760990575275
30
0
10
-64.774338634130331
20
-278.76396474805739
30
0
10
-58.69623722377262
20
-278.66715121008929
30
0
10
-54.836442830239321
20
-278.3377814649416
30
0
10
-50.344996820763456
20
-279.40772657339357
30
0
10
-49.15736733872771
20
-279.87505862210719
30
0
10
-47.235735796123102
20
-281.22458802529758
30
0
10
-46.512610636587077
20
-281.9885460105798
30
0
10
-45.355724037263684
20
-283.82227518993631
30
0
10
-44.95595443274258
20
-284.86899346857291
30
0
10
-44.464339777703223
20
-287.23224122976842
30
0
10
-44.439110455475756
20
-288.59488323648651
30
0
10
-44.858627564606493
20
-290.89391147942763
30
0
10
-45.210045426911584
20
-291.88857441915889
30
0
10
-46.182966303039947
20
-293.41347910324748
30
0
10
-46.711134149060818
20
-293.98353698416611
30
0
10
-47.964697252764417
20
-294.85635365942278
30
0
10
-48.640481181362098
20
-295.14493214029795
30
0
10
-50.300246273551743
20
-295.5500857957523
30
0
10
-51.283744439743245
20
-295.58306222831237
30
0
10
-54.028697410325222
20
-295.38420383639385
30
0
10
-55.938247223147705
20
-294.88532732959618
30
0
10
-60.402616757021704
20
-293.57889071130791
30
0
10
-62.983746831715422
20
-292.71087392140095
30
0
10
-66.389070750442457
20
-292.33433625906264
30
0
10
-67.474947854636753
20
-292.32847413210089
30
0
10
-69.266462027861024
20
-292.73698262095093
30
0
10
-69.972268197825571
20
-293.0367822107616
30
0
10
-71.238786695167974
20
-293.93667381579843
30
0
10
-71.755285826790427
20
-294.50010769310916
30
0
10
-72.783178232074093
20
-296.05165634232026
30
0
10
-73.193860925352425
20
-297.10455759211999
30
0
10
-73.926563461184841
20
-299.80274130200155
30
0
10
-74.117061336553974
20
-301.63776594003156
30
0
10
-74.173309080743678
20
-303.38678678864119
30
0
0
ARC
5
101
100
AcDbEntity
8
0
100
AcDbCircle
10
-58.166537798120345
20
-74.396388560533552
30
0
40
229.54916512059359
210
0
220
0
230
1
100
AcDbArc
50
266.00144347185829
51
356.74157210180471
0
ARC
5
102
100
AcDbEntity
8
0
100
AcDbCircle
10
196.83346220187988
20
140.64830700364274
30
0
40
229.54916512059359
210
0
220
0
230
1
100
AcDbArc
50
263.5411377144402
51
266.85853766956313
0
SPLINE
5
103
100
AcDbEntity
8
0
100
AcDbSpline
70
0
71
3
72
10
73
6
74
0
42
0.000000001
43
0.0000000001
44
0.0000000001
40
16.345161765914877
40
16.345161765914877
40
16.345161765914877
40
16.345161765914877
40
16.792625302042619
40
16.792625302042619
40
17.310399748732213
40
17.310399748732213
40
17.310399748732213
40
17.310399748732213
10
185.42938291221844
20
-83.611084175212383
30
0
10
185.17664053614695
20
-84.208277435323083
30
0
10
184.95573583086576
20
-84.876489591861031
30
0
10
184.55094359610624
20
-86.491384902493209
30
0
10
184.37871908436435
20
-87.464033328816697
30
0
10
184.2538479619941
20
-88.555908736681715
30
0
0
ARC
5
104
100
AcDbEntity
8
0
100
AcDbCircle
10
196.83346220187988
20
140.64830700364274
30
0
40
224.54916512059373
210
0
220
0
230
1
100
AcDbArc
50
262.17465066862684
51
267.08889220717373
0
LINE
5
105
100
AcDbEntity
8
0
100
AcDbLine
10
166.26021875025575
20
-81.809788693509589
30
0
11
140.24417881908519
21
-81.809788693509674
31
0
0
ARC
5
106
100
AcDbEntity
8
0
100
AcDbCircle
10
-58.166537798120345
20
-74.396388560533552
30
0
40
198.54916512059339
210
-0
220
0
230
1
100
AcDbArc
50
357.86020105172167
51
359.33930734509164
0
ARC
5
107
100
AcDbEntity
8
0
100
AcDbCircle
10
196.83346220187988
20
140.64830700364274
30
0
40
224.54916512059407
210
0
220
0
230
1
100
AcDbArc
50
184.84634469723892
51
255.4363651190057
0
ARC
5
108
100
AcDbEntity
8
0
100
AcDbCircle
10
-58.166537798120345
20
-74.396388560533552
30
0
40
198.54916512059373
210
0
220
-0
230
1
100
AcDbArc
50
80.943402471153775
51
93.338069961216789
0
SPLINE
5
109
100
AcDbEntity
8
0
100
AcDbSpline
70
0
71
3
72
8
73
4
74
0
42
0.000000001
43
0.0000000001
44
0.0000000001
40
0.082233453830178951
40
0.082233453830178951
40
0.082233453830178951
40
0.082233453830178951
40
0.4892030101947914
40
0.4892030101947914
40
0.4892030101947914
40
0.4892030101947914
10
-69.727531235241273
20
123.81590773016501
30
0
10
-69.94432890006766
20
122.38861718210464
30
0
10
-70.092629161745165
20
120.72680198304381
30
0
10
-70.154469750817995
20
118.78116915872225
30
0
0
ARC
5
110
100
AcDbEntity
8
0
100
AcDbCircle
10
-58.166537798120345
20
-74.396388560533552
30
0
40
193.54916512059384
210
0
220
-0
230
1
100
AcDbArc
50
82.088648532511797
51
93.551024486236244
0
ARC
5
111
100
AcDbEntity
8
0
100
AcDbCircle
10
196.83346220187988
20
140.64830700364274
30
0
40
229.54916512059407
210
0
220
0
230
1
100
AcDbArc
50
185.83520073542235
51
254.4475090808223
0
ARC
5
112
100
AcDbEntity
8
0
100
AcDbCircle
10
-58.166537798120345
20
-74.396388560533552
30
0
40
193.54916512059336
210
0
220
0
230
1
100
AcDbArc
50
264.37760211138874
51
358.19406128373316
0
SPLINE
5
113
100
AcDbEntity
8
0
100
AcDbSpline
70
0
71
3
72
48
73
44
74
0
42
0.000000001
43
0.0000000001
44
0.0000000001
40
2.9729458233246446
40
2.9729458233246446
40
2.9729458233246446
40
2.9729458233246446
40
3.0784562914363303
40
3.0784562914363303
40
3.3916118364709016
40
3.3916118364709016
40
3.7048920867243611
40
3.7048920867243611
40
4.1422253108264382
40
4.1422253108264382
40
5.0865818761450541
40
5.0865818761450541
40
5.4502536007962741
40
5.4502536007962741
40
5.7423633920866299
40
5.7423633920866299
40
6.0431851448684348
40
6.0431851448684348
40
6.4763525542342029
40
6.4763525542342029
40
7.1336683428820935
40
7.1336683428820935
40
7.6163091374609087
40
7.6163091374609087
40
7.9642344337725426
40
7.9642344337725426
40
8.2885187051929154
40
8.2885187051929154
40
8.7093087393103694
40
8.7093087393103694
40
9.5104737895172331
40
9.5104737895172331
40
10.692957267595162
40
10.692957267595162
40
11.079445795541087
40
11.079445795541087
40
11.410223146876367
40
11.410223146876367
40
11.792505532311971
40
11.792505532311971
40
12.435934466226946
40
12.435934466226946
40
12.588967889322131
40
12.588967889322131
40
12.588967889322131
40
12.588967889322131
10
-62.398944144330422
20
150.11288584227671
30
0
10
-62.267400336593049
20
149.81633627966966
30
0
10
-62.118916343918578
20
149.52702879944684
30
0
10
-61.456431297829582
20
148.4150352787496
30
0
10
-60.821940028116359
20
147.70314072441789
30
0
10
-59.270937957666419
20
146.54269594647087
30
0
10
-58.399985983695132
20
146.12800591601632
30
0
10
-56.180055122863813
20
145.44104193628147
30
0
10
-54.806370534298246
20
145.29776241422167
30
0
10
-50.515775453828162
20
145.23452985830136
30
0
10
-47.591480974872731
20
145.76511959390902
30
0
10
-44.141226382322181
20
145.52895007320481
30
0
10
-43.233288250445696
20
145.35862504712918
30
0
10
-41.749765683869981
20
144.71541422147681
30
0
10
-41.171284525570648
20
144.32038468843771
30
0
10
-40.160037606307071
20
143.26860442136456
30
0
10
-39.766684914966255
20
142.63921404864422
30
0
10
-39.040942802510358
20
140.9890242155808
30
0
10
-38.805640766490704
20
139.90592380262504
30
0
10
-38.567324081696619
20
137.23254082714121
30
0
10
-38.733275935687516
20
135.51008609424713
30
0
10
-39.530936862778617
20
132.81522482793014
30
0
10
-40.046705036617418
20
131.69783556055185
30
0
10
-41.310454103131697
20
130.08820976476989
30
0
10
-41.94392517020394
20
129.52082253761296
30
0
10
-43.390893646029667
20
128.70909512999677
30
0
10
-44.142890693130596
20
128.47087375312793
30
0
10
-45.963965140306129
20
128.20750850795488
30
0
10
-47.0254436961919
20
128.27251671003518
30
0
10
-49.996793570412727
20
128.76413613325033
30
0
10
-52.04018575242516
20
129.50293589981987
30
0
10
-56.977261108950032
20
131.37817245023228
30
0
10
-59.885085004888424
20
132.56551435707371
30
0
10
-63.260473253886374
20
132.66565670457678
30
0
10
-64.087149308478615
20
132.5725151936187
30
0
10
-65.5401940848582
20
132.04642023090958
30
0
10
-66.132926249841205
20
131.68087676300067
30
0
10
-67.263087548105432
20
130.64158195959553
30
0
10
-67.742672766425017
20
129.96036192631968
30
0
10
-68.775625668126253
20
128.01153691596829
30
0
10
-69.218394324728195
20
126.54492928625936
30
0
10
-69.597890666195639
20
124.61321839738159
30
0
10
-69.665531445188478
20
124.22408424071432
30
0
10
-69.727531235241273
20
123.81590773016501
30
0
0
ARC
5
114
100
AcDbEntity
8
0
100
AcDbCircle
10
-58.166537798120359
20
-74.396388560533495
30
0
40
198.54916512059376
210
0
220
-0
230
1
100
AcDbArc
50
80.94340247115376
51
93.338069961216789
0
ARC
5
115
100
AcDbEntity
8
0
100
AcDbCircle
10
196.83346220188002
20
140.64830700364291
30
0
40
224.54916512059413
210
0
220
0
230
1
100
AcDbArc
50
184.846344697239
51
255.4363651190057
0
ARC
5
116
100
AcDbEntity
8
0
100
AcDbCircle
10
-58.166537798120359
20
-74.396388560533495
30
0
40
198.54916512059339
210
-0
220
0
230
1
100
AcDbArc
50
357.86020105172167
51
359.33930734509164
0
LINE
5
117
100
AcDbEntity
8
0
100
AcDbLine
10
140.24417881908522
20
-81.809788693509731
30
0
11
166.26021875025572
21
-81.809788693509674
31
0
0
ARC
5
118
100
AcDbEntity
8
0
100
AcDbCircle
10
196.83346220188002
20
140.64830700364291
30
0
40
224.54916512059398
210
0
220
0
230
1
100
AcDbArc
50
262.17465066862678
51
267.08889220717367
0
SPLINE
5
119
100
AcDbEntity
8
0
100
AcDbSpline
70
0
71
3
72
46
73
42
74
0
42
0.000000001
43
0.0000000001
44
0.0000000001
40
1.3391567449963271
40
1.3391567449963271
40
1.3391567449963271
40
1.3391567449963271
40
1.5652402607080491
40
1.5652402607080491
40
1.8564529176561568
40
1.8564529176561568
40
2.1094341501693066
40
2.1094341501693066
40
2.4124795156735339
40
2.4124795156735339
40
2.9071723130679592
40
2.9071723130679592
40
3.9570905904053655
40
3.9570905904053655
40
5.5488273331409861
40
5.5488273331409861
40
6.0803369626596053
40
6.0803369626596053
40
6.4922616335723102
40
6.4922616335723102
40
6.9070927761597432
40
6.9070927761597432
40
7.5178217955699136
40
7.5178217955699136
40
8.5248811713859389
40
8.5248811713859389
40
9.4842236472778474
40
9.4842236472778474
40
10.226622266628247
40
10.226622266628247
40
10.96583232326036
40
10.96583232326036
40
12.039337521393911
40
12.039337521393911
40
14.264067991140982
40
14.264067991140982
40
15.098462548166481
40
15.098462548166481
40
15.813905346727982
40
15.813905346727982
40
16.422853818514668
40
16.422853818514668
40
16.422853818514668
40
16.422853818514668
10
183.99311849128767
20
-57.485225099024561
30
0
10
183.96175211799459
20
-58.062178040168881
30
0
10
183.98130277212238
20
-58.640099599187167
30
0
10
184.18893393215944
20
-59.924531054607442
30
0
10
184.42250930124291
20
-60.61182839884281
30
0
10
185.14319818332694
20
-61.775208846656511
30
0
10
185.57198557992922
20
-62.233191852861665
30
0
10
186.68842359124795
20
-63.075008814339206
30
0
10
187.38508194071869
20
-63.40706389973947
30
0
10
189.28930372116355
20
-64.038276501953021
30
0
10
190.59207021855735
20
-64.200722891983531
30
0
10
194.47519997890674
20
-64.330447812263841
30
0
10
197.28585766632281
20
-63.889486716792085
30
0
10
203.11312857923841
20
-62.7465506082941
30
0
10
206.11468174285179
20
-61.901874677906576
30
0
10
209.19827407301202
20
-61.877439046830993
30
0
10
209.90911253145032
20
-61.962768229859975
30
0
10
211.04289871273821
20
-62.36507637680883
30
0
10
211.48431205373126
20
-62.622284588306698
30
0
10
212.26408227563596
20
-63.330021122892369
30
0
10
212.5742956154553
20
-63.757601027305242
30
0
10
213.18176719317103
20
-64.911327909335057
30
0
10
213.40743640366327
20
-65.689720303667173
30
0
10
213.7520373161945
20
-67.719638673059023
30
0
10
213.74185364853292
20
-69.153465091559923
30
0
10
213.25272319588208
20
-71.916123414220152
30
0
10
212.7800074433232
20
-73.337116079815971
30
0
10
211.35695097936718
20
-75.596541988569925
30
0
10
210.57359692763495
20
-76.438127192384556
30
0
10
208.66747815347065
20
-77.77871294769615
30
0
10
207.6099004541359
20
-78.235451617557842
30
0
10
204.85668199469683
20
-78.981943877870663
30
0
10
203.10652204971805
20
-79.096073060239192
30
0
10
197.93943348580214
20
-79.078425725410554
30
0
10
194.41880674047167
20
-78.55063342795097
30
0
10
190.40393620202929
20
-79.146496236582976
30
0
10
189.39623402915845
20
-79.443642230149749
30
0
10
187.73053932585168
20
-80.390335650291405
30
0
10
187.08707055516638
20
-80.959249780409337
30
0
10
186.08775764315484
20
-82.253156989054474
30
0
10
185.72275013914461
20
-82.917900335680272
30
0
10
185.42938291221841
20
-83.611084175212426
30
0
0
ARC
5
120
100
AcDbEntity
8
0
100
AcDbCircle
10
196.83346220188002
20
140.64830700364291
30
0
40
198.54916512059401
210
0
220
0
230
1
100
AcDbArc
50
260.94340247115372
51
266.29204540086812
0
ARC
5
121
100
AcDbEntity
8
0
100
AcDbCircle
10
-58.166537798120359
20
-74.396388560533495
30
0
40
224.54916512059398
210
0
220
-0
230
1
100
AcDbArc
50
4.846344697238921
51
75.436365119005842
0
ARC
5
122
100
AcDbEntity
8
0
100
AcDbCircle
10
196.83346220188002
20
140.64830700364291
30
0
40
198.54916512059347
210
0
220
0
230
1
100
AcDbArc
50
91.123126424986992
51
179.3393073450911
0
SPLINE
5
123
100
AcDbEntity
8
0
100
AcDbSpline
70
0
71
3
72
50
73
46
74
0
42
0.000000001
43
0.0000000001
44
0.0000000001
40
0.056635511735422084
40
0.056635511735422084
40
0.056635511735422084
40
0.056635511735422084
40
0.4522145319162631
40
0.4522145319162631
40
0.80059641270041682
40
0.80059641270041682
40
1.1441335316191477
40
1.1441335316191477
40
1.6269369028353853
40
1.6269369028353853
40
2.6133191671373766
40
2.6133191671373766
40
3.1941377450880006
40
3.1941377450880006
40
3.5301430613161675
40
3.5301430613161675
40
3.7986220766323293
40
3.7986220766323293
40
4.0767979617680092
40
4.0767979617680092
40
4.454962285515994
40
4.454962285515994
40
4.9421012644546005
40
4.9421012644546005
40
5.2945029858029242
40
5.2945029858029242
40
5.584554456848819
40
5.584554456848819
40
5.8830497714424395
40
5.8830497714424395
40
6.3115944811510847
40
6.3115944811510847
40
7.2449344807600209
40
7.2449344807600209
40
7.8182942515093465
40
7.8182942515093465
40
8.1253594601341312
40
8.1253594601341312
40
8.3848106985094368
40
8.3848106985094368
40
8.6801085180644755
40
8.6801085180644755
40
9.1914146790871136
40
9.1914146790871136
40
9.4417122292224978
40
9.4417122292224978
40
9.4417122292224978
40
9.4417122292224978
10
191.6848052214709
20
365.13843793962366
30
0
10
191.9207904277423
20
363.84130835379892
30
0
10
192.33525164375737
20
362.57933973036302
30
0
10
193.58712699312582
20
360.44079142865002
30
0
10
194.34080560559269
20
359.58334228411337
30
0
10
196.18378876420672
20
358.19888934644848
30
0
10
197.21247664523702
20
357.70902183920066
30
0
10
199.84547398890584
20
356.89801105713104
30
0
10
201.48984732647074
20
356.73310325674521
30
0
10
206.38967885255792
20
356.7045441696165
30
0
10
209.80032545273912
20
357.3329214681122
30
0
10
214.70248261905627
20
357.81577172232016
30
0
10
216.4570796064605
20
357.88899460653857
30
0
10
218.90716969185848
20
357.47247234938209
30
0
10
219.78227881209105
20
357.19897612357244
30
0
10
221.18637382109029
20
356.35160276515342
30
0
10
221.71365223109549
20
355.87099131320196
30
0
10
222.58789074069952
20
354.67608692869942
30
0
10
222.90282393164159
20
353.9869608408676
30
0
10
223.39375848086235
20
352.28052522831746
30
0
10
223.48225073314848
20
351.22531436304303
30
0
10
223.34200387987207
20
348.88381995848817
30
0
10
223.00961181737736
20
347.53695361423797
30
0
10
222.00985562425922
20
345.49518571140737
30
0
10
221.45027243664009
20
344.70242642985943
30
0
10
220.15021610577892
20
343.54421011554928
30
0
10
219.48358243217302
20
343.14942375466751
30
0
10
217.97328681150876
20
342.62930037980249
30
0
10
217.1731515055437
20
342.52823622573823
30
0
10
215.19891784292739
20
342.56061971554391
30
0
10
213.99237424651125
20
342.81549281057005
30
0
10
210.15879520398559
20
344.00822237126613
30
0
10
207.45328324003165
20
345.42207910096209
30
0
10
203.31075664150089
20
347.09779324760126
30
0
10
201.74224070205202
20
347.61351249432209
30
0
10
199.48574705814059
20
347.79778718577859
30
0
10
198.6961981910307
20
347.75075838685154
30
0
10
197.30111085149136
20
347.32668817266619
30
0
10
196.72768791709365
20
347.01467800356875
30
0
10
195.6282139222339
20
346.10487050654626
30
0
10
195.15424038282319
20
345.50188645996906
30
0
10
194.09405891564859
20
343.72071527042385
30
0
10
193.64396265599467
20
342.38266622313847
30
0
10
193.18142609527658
20
340.48780103844769
30
0
10
193.05170252895283
20
339.83515092972374
30
0
10
192.94170027434143
20
339.15932724983486
30
0
0
ARC
5
124
100
AcDbEntity
8
0
100
AcDbCircle
10
196.83346220188002
20
140.64830700364291
30
0
40
224.54916512059381
210
0
220
0
230
1
100
AcDbArc
50
91.313842201552731
51
178.10805914761792
0
ARC
5
125
100
AcDbEntity
8
0
100
AcDbCircle
10
-58.166537798120359
20
-74.396388560533495
30
0
40
224.54916512059438
210
0
220
-0
230
1
100
AcDbArc
50
82.174650668626867
51
91.080001261804938
0
ARC
5
126
100
AcDbEntity
8
0
100
AcDbCircle
10
196.83346220188002
20
140.64830700364291
30
0
40
198.54916512059395
210
0
220
0
230
1
100
AcDbArc
50
187.28355319719643
51
252.99915661904836
0
ARC
5
127
100
AcDbEntity
8
0
100
AcDbCircle
10
-58.166537798120359
20
-74.396388560533495
30
0
40
198.5491651205939
210
0
220
-0
230
1
100
AcDbArc
50
7.2835531971964098
51
72.999156619048392
0
ARC
5
128
100
AcDbEntity
8
0
100
AcDbCircle
10
196.83346220188
20
140.6483070036428
30
0
40
193.5491651205939
210
0
220
0
230
1
100
AcDbArc
50
189.65162322227778
51
250.63108659396707
0
ARC
5
129
100
AcDbEntity
8
0
100
AcDbCircle
10
-58.166537798120537
20
-74.396388560533666
30
0
40
193.54916512059418
210
0
220
-0
230
1
100
AcDbArc
50
9.65162322227782
51
70.631086593966998
0
ARC
5
130
100
AcDbEntity
8
0
100
AcDbCircle
10
-58.166537798120537
20
-74.396388560533666
30
0
40
198.54916512059415
210
0
220
-0
230
1
100
AcDbArc
50
7.2835531971964604
51
72.999156619048335
0
ARC
5
131
100
AcDbEntity
8
0
100
AcDbCircle
10
196.83346220188
20
140.6483070036428
30
0
40
198.54916512059387
210
0
220
0
230
1
100
AcDbArc
50
187.28355319719634
51
252.99915661904836
0
SPLINE
5
132
100
AcDbEntity
8
0
100
AcDbSpline
70
0
71
3
72
8
73
4
74
0
42
0.000000001
43
0.0000000001
44
0.0000000001
40
0.054098801580522854
40
0.054098801580522854
40
0.054098801580522854
40
0.054098801580522854
40
0.51751558386026197
40
0.51751558386026197
40
0.51751558386026197
40
0.51751558386026197
10
192.94170027434143
20
339.15932724983486
30
0
10
192.6888911008009
20
337.60613703045863
30
0
10
192.53743669931265
20
335.91353772053321
30
0
10
192.46233409441103
20
334.14810689487496
30
0
0
ARC
5
133
100
AcDbEntity
8
0
100
AcDbCircle
10
196.83346220187988
20
140.64830700364274
30
0
40
198.54916512059356
210
0
220
0
230
1
100
AcDbArc
50
91.12312642498695
51
179.3393073450911
0
ARC
5
134
100
AcDbEntity
8
0
100
AcDbCircle
10
-58.166537798120302
20
-74.396388560533438
30
0
40
224.54916512059395
210
0
220
-0
230
1
100
AcDbArc
50
4.846344697238921
51
75.436365119005856
0
ARC
5
135
100
AcDbEntity
8
0
100
AcDbCircle
10
196.83346220187988
20
140.64830700364274
30
0
40
198.5491651205939
210
0
220
0
230
1
100
AcDbArc
50
260.94340247115372
51
266.29204540086818
0
SPLINE
5
136
100
AcDbEntity
8
0
100
AcDbSpline
70
0
71
3
72
10
73
6
74
0
42
0.000000001
43
0.0000000001
44
0.0000000001
40
0.62912802728301565
40
0.62912802728301565
40
0.62912802728301565
40
0.62912802728301565
40
0.72369941144534278
40
0.72369941144534278
40
1.1458399878429557
40
1.1458399878429557
40
1.1458399878429557
40
1.1458399878429557
10
185.19397392626999
20
-52.550558499136088
30
0
10
185.0770014038377
20
-52.85230196114702
30
0
10
184.96646443249662
20
-53.153434865692937
30
0
10
184.40297381205269
20
-54.790737199974032
30
0
10
184.0644912200641
20
-56.172395419919596
30
0
10
183.99311849128767
20
-57.485225099024561
30
0
0
ARC
5
137
100
AcDbEntity
8
0
100
AcDbCircle
10
196.83346220187988
20
140.64830700364274
30
0
40
193.54916512059376
210
0
220
0
230
1
100
AcDbArc
50
262.0886485325118
51
266.55231694705526
0
ARC
5
138
100
AcDbEntity
8
0
100
AcDbCircle
10
-58.166537798120302
20
-74.396388560533438
30
0
40
229.54916512059398
210
0
220
-0
230
1
100
AcDbArc
50
5.8352007354223643
51
74.447509080822371
0
ARC
5
139
100
AcDbEntity
8
0
100
AcDbCircle
10
196.83346220187988
20
140.64830700364274
30
0
40
193.54916512059361
210
0
220
0
230
1
100
AcDbArc
50
91.294081980115664
51
178.19406128373313
0
SPLINE
5
140
100
AcDbEntity
8
0
100
AcDbSpline
70
0
71
3
72
10
73
6
74
0
42
0.000000001
43
0.0000000001
44
0.0000000001
40
2.3594877068106705
40
2.3594877068106705
40
2.3594877068106705
40
2.3594877068106705
40
2.7323969378512407
40
2.7323969378512407
40
2.8981247803035592
40
2.8981247803035592
40
2.8981247803035592
40
2.8981247803035592
10
-63.287182918698939
20
155.09565531269254
30
0
10
-63.303441010835442
20
153.90197393125331
30
0
10
-63.196441834159302
20
152.70769490072726
30
0
10
-62.774925790899793
20
151.0756171673512
30
0
10
-62.608315002222632
20
150.58488705159672
30
0
10
-62.39894414433045
20
150.11288584227671
30
0
0
ARC
5
141
100
AcDbEntity
8
0
100
AcDbCircle
10
-58.166537798119819
20
-74.39638856052315
30
0
40
224.54916512058361
210
0
220
-0
230
1
100
AcDbArc
50
82.174650668626668
51
91.080001261805137
0
ARC
5
142
100
AcDbEntity
8
0
100
AcDbCircle
10
196.83346220187985
20
140.64830700364277
30
0
40
224.54916512059387
210
0
220
0
230
1
100
AcDbArc
50
91.313842201552688
51
178.10805914761792
0
SPLINE
5
143
100
AcDbEntity
8
0
100
AcDbSpline
70
0
71
3
72
8
73
4
74
0
42
0.000000001
43
0.0000000001
44
0.0000000001
40
0.056214239503242155
40
0.056214239503242155
40
0.056214239503242155
40
0.056214239503242155
40
0.55033963996693636
40
0.55033963996693636
40
0.55033963996693636
40
0.55033963996693636
10
191.50430090716043
20
370.1356034874712
30
0
10
191.36890840740267
20
368.48203938594327
30
0
10
191.38801572614196
20
366.76978772296934
30
0
10
191.6848052214709
20
365.13843793962366
30
0
0
ARC
5
144
100
AcDbEntity
8
0
100
AcDbCircle
10
196.83346220187985
20
140.64830700364277
30
0
40
229.54916512059398
210
0
220
0
230
1
100
AcDbArc
50
91.330285323310164
51
176.74157210180462
0
ARC
5
145
100
AcDbEntity
8
0
100
AcDbCircle
10
-58.166537798119819
20
-74.39638856052315
30
0
40
229.54916512058358
210
0
220
-0
230
1
100
AcDbArc
50
83.54113771444014
51
91.278225917293227
0
ENDSEC
0
SECTION
2
OBJECTS
0
DICTIONARY
5
C
100
AcDbDictionary
3
ACAD_GROUP
350
D
3
ACAD_MLINESTYLE
350
17
0
DICTIONARY
5
D
100
AcDbDictionary
0
DICTIONARY
5
1A
330
C
100
AcDbDictionary
0
DICTIONARY
5
17
100
AcDbDictionary
0
ENDSEC
0
EOF
