0
SECTION
2
HEADER
9
$INSUNITS
70
4
9
$ACADVER
1
AC1014
9
$HANDSEED
5
FFFF
0
ENDSEC
0
SECTION
2
TABLES
0
TABLE
2
VPORT
5
8
100
AcDbSymbolTable
0
ENDTAB
0
TABLE
2
LTYPE
5
5
100
AcDbSymbolTable
0
LTYPE
5
14
100
AcDbSymbolTableRecord
100
AcDbLinetypeTableRecord
2
BYBLOCK
70
0
0
LTYPE
5
15
100
AcDbSymbolTableRecord
100
AcDbLinetypeTableRecord
2
BYLAYER
70
0
0
ENDTAB
0
TABLE
2
LAYER
5
2
100
AcDbSymbolTable
70
2
0
LAYER
5
50
100
AcDbSymbolTableRecord
100
AcDbLayerTableRecord
2
0
70
0
6
CONTINUOUS
0
ENDTAB
0
TABLE
2
STYLE
5
3
100
AcDbSymbolTable
70
1
0
STYLE
5
11
100
AcDbSymbolTableRecord
100
AcDbTextStyleTableRecord
2
STANDARD
70
0
0
ENDTAB
0
TABLE
2
VIEW
5
6
100
AcDbSymbolTable
70
0
0
ENDTAB
0
TABLE
2
UCS
5
7
100
AcDbSymbolTable
70
0
0
ENDTAB
0
TABLE
2
APPID
5
9
100
AcDbSymbolTable
70
2
0
APPID
5
12
100
AcDbSymbolTableRecord
100
AcDbRegAppTableRecord
2
ACAD
70
0
0
ENDTAB
0
TABLE
2
DIMSTYLE
5
A
100
AcDbSymbolTable
70
1
0
ENDTAB
0
TABLE
2
BLOCK_RECORD
5
1
100
AcDbSymbolTable
70
1
0
BLOCK_RECORD
5
1F
100
AcDbSymbolTableRecord
100
AcDbBlockTableRecord
2
*MODEL_SPACE
0
BLOCK_RECORD
5
1B
100
AcDbSymbolTableRecord
100
AcDbBlockTableRecord
2
*PAPER_SPACE
0
ENDTAB
0
ENDSEC
0
SECTION
2
BLOCKS
0
BLOCK
5
20
100
AcDbEntity
100
AcDbBlockBegin
2
*MODEL_SPACE
0
ENDBLK
5
21
100
AcDbEntity
100
AcDbBlockEnd
0
BLOCK
5
1C
100
AcDbEntity
100
AcDbBlockBegin
2
*PAPER_SPACE
0
ENDBLK
5
1D
100
AcDbEntity
100
AcDbBlockEnd
0
ENDSEC
0
SECTION
2
ENTITIES
0
SPLINE
5
100
100
AcDbEntity
8
0
100
AcDbSpline
70
0
71
3
72
48
73
44
74
0
42
0.000000001
43
0.0000000001
44
0.0000000001
40
0
40
0
40
0
40
0
40
0.43622586998619639
40
0.43622586998619639
40
0.56960853225670705
40
0.56960853225670705
40
0.65688283909568057
40
0.65688283909568057
40
0.73634751281866317
40
0.73634751281866317
40
0.84083382589121847
40
0.84083382589121847
40
1.0312768438886937
40
1.0312768438886937
40
1.4893326115561876
40
1.4893326115561876
40
2.683625803261279
40
2.683625803261279
40
3.0904998666060854
40
3.0904998666060854
40
3.4261572996844585
40
3.4261572996844585
40
3.7470580016518431
40
3.7470580016518431
40
4.0695496743402453
40
4.0695496743402453
40
4.3656627968745259
40
4.3656627968745259
40
4.660216870955316
40
4.660216870955316
40
5.015425965247112
40
5.015425965247112
40
5.578431953404027
40
5.578431953404027
40
6.885183686468471
40
6.885183686468471
40
7.2460117354497573
40
7.2460117354497573
40
7.500444050049234
40
7.500444050049234
40
7.7344241733386028
40
7.7344241733386028
40
7.9890084528502632
40
7.9890084528502632
40
7.9890084528502632
40
7.9890084528502632
10
-317.13985766451339
20
-58.49327495478876
30
0
10
-317.75766802074293
20
-59.809586900176804
30
0
10
-318.10485820296128
20
-60.857382828235529
30
0
10
-318.1571864462407
20
-61.871413021835401
30
0
10
-318.14230773171232
20
-62.120836986528772
30
0
10
-318.02286976445549
20
-62.496797256316611
30
0
10
-317.95201205104308
20
-62.633399351489146
30
0
10
-317.75942894896508
20
-62.861102506144334
30
0
10
-317.64920106011618
20
-62.947655897407486
30
0
10
-317.36102090317866
20
-63.106272706639686
30
0
10
-317.17780704707718
20
-63.162265502050474
30
0
10
-316.66057968121925
20
-63.260326695778126
30
0
10
-316.2765759144504
20
-63.262857796542811
30
0
10
-314.90716274827668
20
-63.158364643960567
30
0
10
-313.67913742485405
20
-62.878691946448761
30
0
10
-308.64329899156695
20
-61.641868794808559
30
0
10
-303.7850961400211
20
-60.29813058302841
30
0
10
-297.8253956578597
20
-61.199639647042147
30
0
10
-296.36816453273775
20
-61.661453814521451
30
0
10
-293.97451478188754
20
-63.087652690515611
30
0
10
-293.04157581570001
20
-63.921260057903794
30
0
10
-291.58108059962598
20
-65.893202143486448
30
0
10
-291.06009021255795
20
-66.989125877665089
30
0
10
-290.4607308453472
20
-69.312722986906323
30
0
10
-290.38703249980995
20
-70.531472552658329
30
0
10
-290.72392696653515
20
-72.81326529110585
30
0
10
-291.09223564255285
20
-73.858920780594147
30
0
10
-292.23124574805524
20
-75.748722921285818
30
0
10
-292.97305246347992
20
-76.55189447021435
30
0
10
-294.90789184491547
20
-78.027276513704379
30
0
10
-296.11998045059488
20
-78.606775880467936
30
0
10
-299.39248363280063
20
-79.678713247133828
30
0
10
-301.59119988009928
20
-79.940584653018519
30
0
10
-308.59961661833455
20
-80.194515782595985
30
0
10
-313.45072450074883
20
-79.388707534588519
30
0
10
-317.67447632634577
20
-79.728606883508832
30
0
10
-318.46578540539963
20
-79.88343076724648
30
0
10
-319.59910507897661
20
-80.352662638294419
30
0
10
-320.02412578184254
20
-80.614645602139746
30
0
10
-320.71622917515106
20
-81.301790997997543
30
0
10
-320.96677654590553
20
-81.685804920611261
30
0
10
-321.36121742577711
20
-82.576673801952353
30
0
10
-321.50506950323881
20
-83.116384260255799
30
0
10
-321.59114616386142
20
-83.742765747123514
30
0
0
LINE
5
101
100
AcDbEntity
8
0
100
AcDbLine
10
-317.13985766451339
20
-58.49327495478876
30
0
11
-317.15217093928027
21
-57.860850715966933
31
0
0
ARC
5
102
100
AcDbEntity
8
0
100
AcDbCircle
10
-313.1665377981198
20
140.64830700364283
30
0
40
198.54916512059384
210
0
220
0
230
1
100
AcDbArc
50
260.94340247115366
51
268.84977961578079
0
ARC
5
103
100
AcDbEntity
8
0
100
AcDbCircle
10
-568.16653779811998
20
-74.396388560533097
30
0
40
224.54916512059353
210
0
220
-0
230
1
100
AcDbArc
50
4.8463446972388455
51
75.436365119005785
0
ARC
5
104
100
AcDbEntity
8
0
100
AcDbCircle
10
-313.1665377981198
20
140.64830700364283
30
0
40
198.54916512059367
210
0
220
0
230
1
100
AcDbArc
50
93.002837210642525
51
179.33930734509164
0
SPLINE
5
105
100
AcDbEntity
8
0
100
AcDbSpline
70
0
71
3
72
42
73
38
74
0
42
0.000000001
43
0.0000000001
44
0.0000000001
40
0.096599382109244111
40
0.096599382109244111
40
0.096599382109244111
40
0.096599382109244111
40
0.43020825353366071
40
0.43020825353366071
40
0.7787835836566106
40
0.7787835836566106
40
1.1389580671542126
40
1.1389580671542126
40
1.6445380732934576
40
1.6445380732934576
40
2.6162072411574497
40
2.6162072411574497
40
3.4348861865176734
40
3.4348861865176734
40
3.6907029990542091
40
3.6907029990542091
40
3.8902481109493805
40
3.8902481109493805
40
4.0974726389195357
40
4.0974726389195357
40
4.4023161701637772
40
4.4023161701637772
40
4.9215912223993916
40
4.9215912223993916
40
5.6523371031810363
40
5.6523371031810363
40
6.276594535052622
40
6.276594535052622
40
6.9304034373376036
40
6.9304034373376036
40
7.9493972808125033
40
7.9493972808125033
40
8.8757720499257911
40
8.8757720499257911
40
9.5035687290057869
40
9.5035687290057869
40
9.9297711260892729
40
9.9297711260892729
40
9.9297711260892729
40
9.9297711260892729
10
-326.81236257355715
20
364.78246107783519
30
0
10
-326.4251143742851
20
363.74501784479042
30
0
10
-325.90069909938393
20
362.76731584856998
30
0
10
-324.48222418541116
20
360.99375759352961
30
0
10
-323.60887854324938
20
360.25385353872053
30
0
10
-321.54549392761123
20
359.10884139273116
30
0
10
-320.40363128422649
20
358.7472995797271
30
0
10
-317.55534505631556
20
358.28382232756132
30
0
10
-315.82909435359898
20
358.34845349409613
30
0
10
-310.94343335429994
20
359.02731856843639
30
0
10
-307.7415039847092
20
360.11913301648127
30
0
10
-302.51191747229973
20
361.69564004263742
30
0
10
-300.35200410301832
20
362.25669725542718
30
0
10
-298.12783516633442
20
362.07528228545442
30
0
10
-297.60204344951211
20
361.96041127745082
30
0
10
-296.75211152098893
20
361.54261038405451
30
0
10
-296.42893573131323
20
361.29653370995038
30
0
10
-295.87301053749991
20
360.65980383738133
30
0
10
-295.66183727761836
20
360.28390529711481
30
0
10
-295.27922870391444
20
359.29144832635939
30
0
10
-295.17208770895274
20
358.64212620650187
30
0
10
-295.08268127591589
20
356.93061384136558
30
0
10
-295.23076291934751
20
355.72041938339538
30
0
10
-296.01225166957357
20
352.75926761722224
30
0
10
-296.84278153302517
20
350.90138222455209
30
0
10
-299.12617337437246
20
347.91498150417772
30
0
10
-300.2876669438711
20
346.94914913453192
30
0
10
-302.75257114344078
20
345.53006383644998
30
0
10
-304.09958849663565
20
345.08345389206619
30
0
10
-307.77128257805083
20
344.38312716426242
30
0
10
-310.07993704757558
20
344.40407786295964
30
0
10
-314.41448301867388
20
344.20342780772648
30
0
10
-316.46738617304652
20
344.00276884942036
30
0
10
-319.67034513682557
20
342.76194489559009
30
0
10
-320.80108592314383
20
342.05079800386699
30
0
10
-322.47711044313434
20
340.44378536307192
30
0
10
-323.06126724266568
20
339.71053496140911
30
0
10
-323.56761661898372
20
338.92485258946579
30
0
0
ARC
5
106
100
AcDbEntity
8
0
100
AcDbCircle
10
-313.1665377981198
20
140.64830700364283
30
0
40
224.5491651205939
210
0
220
0
230
1
100
AcDbArc
50
93.484004018968832
51
178.10805914761809
0
ARC
5
107
100
AcDbEntity
8
0
100
AcDbCircle
10
-568.16653779811998
20
-74.396388560533097
30
0
40
224.54916512059333
210
0
220
-0
230
1
100
AcDbArc
50
82.174650668626839
51
181.89194085238208
0
LINE
5
108
100
AcDbEntity
8
0
100
AcDbLine
10
-792.59329434649567
20
-81.809788693509745
30
0
11
-766.57725441532557
21
-81.809788693509674
31
0
0
ARC
5
109
100
AcDbEntity
8
0
100
AcDbCircle
10
-568.16653779811998
20
-74.396388560533097
30
0
40
198.5491651205935
210
0
220
-0
230
1
100
AcDbArc
50
80.943402471153718
51
182.13979894827847
0
ARC
5
110
100
AcDbEntity
8
0
100
AcDbCircle
10
-313.1665377981198
20
140.64830700364283
30
0
40
224.54916512059378
210
0
220
0
230
1
100
AcDbArc
50
184.84634469723892
51
255.43636511900581
0
ARC
5
111
100
AcDbEntity
8
0
100
AcDbCircle
10
-568.16653779811998
20
-74.396388560533097
30
0
40
198.54916512059347
210
-0
220
0
230
1
100
AcDbArc
50
357.86020105172167
51
359.33930734509164
0
LINE
5
112
100
AcDbEntity
8
0
100
AcDbLine
10
-369.75582118091432
20
-81.809788693509688
30
0
11
-343.73978124974417
21
-81.809788693509674
31
0
0
ARC
5
113
100
AcDbEntity
8
0
100
AcDbCircle
10
-313.1665377981198
20
140.64830700364283
30
0
40
224.5491651205939
210
0
220
0
230
1
100
AcDbArc
50
262.17465066862673
51
267.849879270933
0
ARC
5
114
100
AcDbEntity
8
0
100
AcDbCircle
10
-313.1665377981198
20
140.64830700364283
30
0
40
198.54916512059373
210
0
220
0
230
1
100
AcDbArc
50
187.28355319719634
51
252.99915661904831
0
ARC
5
115
100
AcDbEntity
8
0
100
AcDbCircle
10
-568.16653779811998
20
-74.396388560533097
30
0
40
198.5491651205935
210
0
220
-0
230
1
100
AcDbArc
50
7.283553197196361
51
72.99915661904835
0
ARC
5
116
100
AcDbEntity
8
0
100
AcDbCircle
10
-568.16653779811998
20
-74.39638856053314
30
0
40
198.54916512059359
210
0
220
-0
230
1
100
AcDbArc
50
7.2835531971964098
51
72.99915661904835
0
ARC
5
117
100
AcDbEntity
8
0
100
AcDbCircle
10
-313.1665377981198
20
140.64830700364283
30
0
40
198.54916512059373
210
0
220
0
230
1
100
AcDbArc
50
187.28355319719643
51
252.99915661904836
0
ARC
5
118
100
AcDbEntity
8
0
100
AcDbCircle
10
-313.1665377981198
20
140.64830700364283
30
0
40
193.54916512059373
210
0
220
0
230
1
100
AcDbArc
50
189.65162322227772
51
250.63108659396701
0
ARC
5
119
100
AcDbEntity
8
0
100
AcDbCircle
10
-568.16653779811998
20
-74.39638856053314
30
0
40
193.54916512059361
210
0
220
-0
230
1
100
AcDbArc
50
9.6516232222776672
51
70.631086593967026
0
LINE
5
120
100
AcDbEntity
8
0
100
AcDbLine
10
-317.15217093928027
20
-57.860850715966933
30
0
11
-317.24958040760157
21
-52.857786135379698
31
0
0
ARC
5
121
100
AcDbEntity
8
0
100
AcDbCircle
10
-313.16653779811884
20
140.64830700365414
30
0
40
193.54916512060515
210
0
220
0
230
1
100
AcDbArc
50
262.08864853251185
51
268.79121946062207
0
ARC
5
122
100
AcDbEntity
8
0
100
AcDbCircle
10
-568.16653779811998
20
-74.396388560533182
30
0
40
229.54916512059344
210
0
220
-0
230
1
100
AcDbArc
50
5.8352007354223643
51
74.447509080822371
0
ARC
5
123
100
AcDbEntity
8
0
100
AcDbCircle
10
-313.16653779811884
20
140.64830700365414
30
0
40
193.54916512058242
210
0
220
0
230
1
100
AcDbArc
50
93.746509187970588
51
178.19406128373657
0
SPLINE
5
124
100
AcDbEntity
8
0
100
AcDbSpline
70
0
71
3
72
10
73
6
74
0
42
0.000000001
43
0.0000000001
44
0.0000000001
40
0.093906619529897067
40
0.093906619529897067
40
0.093906619529897067
40
0.093906619529897067
40
0.56433608921887446
40
0.56433608921887446
40
0.65150947999259823
40
0.65150947999259823
40
0.65150947999259823
40
0.65150947999259823
10
-323.56761661898366
20
338.92485258946579
30
0
10
-324.42081850068496
20
337.60097285441788
30
0
10
-325.059750419137
20
336.11826311223456
30
0
10
-325.63940320825907
20
334.35974234851597
30
0
10
-325.72768226652556
20
334.07625175121916
30
0
10
-325.81349187334609
20
333.78383939345952
30
0
0
ARC
5
125
100
AcDbEntity
8
0
100
AcDbCircle
10
-313.16653779811884
20
140.64830700365414
30
0
40
198.54916512058239
210
0
220
0
230
1
100
AcDbArc
50
93.002837210642966
51
179.3393073450944
0
ARC
5
126
100
AcDbEntity
8
0
100
AcDbCircle
10
-568.16653779811998
20
-74.396388560533182
30
0
40
224.54916512059359
210
0
220
-0
230
1
100
AcDbArc
50
4.8463446972388455
51
75.436365119005785
0
ARC
5
127
100
AcDbEntity
8
0
100
AcDbCircle
10
-313.16653779811884
20
140.64830700365414
30
0
40
198.54916512060521
210
0
220
0
230
1
100
AcDbArc
50
260.94340247115395
51
268.84977961578062
0
LWPOLYLINE
5
128
100
AcDbEntity
8
0
100
AcDbPolyline
90
2
70
1
43
0.0
10
-374.71350868976117
20
-80.495966224548923
42
-2.6086747561783654
10
-541.52627905522638
20
117.31061687481983
42
0.30865450287813184
0
SPLINE
5
129
100
AcDbEntity
8
0
100
AcDbSpline
70
0
71
3
72
12
73
8
74
0
42
0.000000001
43
0.0000000001
44
0.0000000001
40
7.9965153242133882
40
7.9965153242133882
40
7.9965153242133882
40
7.9965153242133882
40
8.0281848359309969
40
8.0281848359309969
40
8.6070684739844445
40
8.6070684739844445
40
8.622879008665743
40
8.622879008665743
40
8.622879008665743
40
8.622879008665743
10
-321.59114616386137
20
-83.742765747123514
30
0
10
-321.60106348036982
20
-83.814934246870308
30
0
10
-321.61016235076443
20
-83.88789318187429
30
0
10
-321.77033560193939
20
-85.309436683375338
30
0
10
-321.65968419299793
20
-86.925017730698443
30
0
10
-321.43149948767859
20
-88.659464116988786
30
0
10
-321.42532089263079
20
-88.705833545959351
30
0
10
-321.41902924221142
20
-88.752468044147363
30
0
0
ARC
5
130
100
AcDbEntity
8
0
100
AcDbCircle
10
-313.1665377981198
20
140.64830700364283
30
0
40
224.54916512059413
210
0
220
0
230
1
100
AcDbArc
50
262.17465066862673
51
267.84987927093306
0
LINE
5
131
100
AcDbEntity
8
0
100
AcDbLine
10
-343.73978124974417
20
-81.809788693509859
30
0
11
-369.75582118091438
21
-81.809788693509674
31
0
0
ARC
5
132
100
AcDbEntity
8
0
100
AcDbCircle
10
-568.16653779811986
20
-74.396388560533211
30
0
40
198.54916512059333
210
-0
220
0
230
1
100
AcDbArc
50
357.86020105172167
51
359.33930734509107
0
ARC
5
133
100
AcDbEntity
8
0
100
AcDbCircle
10
-313.1665377981198
20
140.64830700364283
30
0
40
224.54916512059384
210
0
220
0
230
1
100
AcDbArc
50
184.846344697239
51
255.43636511900581
0
ARC
5
134
100
AcDbEntity
8
0
100
AcDbCircle
10
-568.16653779811986
20
-74.396388560533211
30
0
40
198.54916512059344
210
0
220
-0
230
1
100
AcDbArc
50
80.943402471153746
51
182.13979894827847
0
LINE
5
135
100
AcDbEntity
8
0
100
AcDbLine
10
-766.57725441532546
20
-81.809788693509688
30
0
11
-792.59329434649567
21
-81.809788693509674
31
0
0
ARC
5
136
100
AcDbEntity
8
0
100
AcDbCircle
10
-568.16653779811986
20
-74.396388560533211
30
0
40
224.5491651205935
210
0
220
-0
230
1
100
AcDbArc
50
82.174650668626867
51
181.89194085238188
0
ARC
5
137
100
AcDbEntity
8
0
100
AcDbCircle
10
-313.1665377981198
20
140.64830700364283
30
0
40
224.54916512059384
210
0
220
0
230
1
100
AcDbArc
50
93.484004018968847
51
178.10805914761809
0
SPLINE
5
138
100
AcDbEntity
8
0
100
AcDbSpline
70
0
71
3
72
8
73
4
74
0
42
0.000000001
43
0.0000000001
44
0.0000000001
40
0.095964669219231483
40
0.095964669219231483
40
0.095964669219231483
40
0.095964669219231483
40
0.59854222753838382
40
0.59854222753838382
40
0.59854222753838382
40
0.59854222753838382
10
-327.74180668044863
20
369.73427502562657
30
0
10
-327.66858740922476
20
368.04840729908511
30
0
10
-327.39703903776467
20
366.34881730538416
30
0
10
-326.81236257355727
20
364.78246107783519
30
0
0
ARC
5
139
100
AcDbEntity
8
0
100
AcDbCircle
10
-313.1665377981198
20
140.64830700364283
30
0
40
229.54916512059359
210
0
220
0
230
1
100
AcDbArc
50
93.64045563078048
51
176.74157210180476
0
ARC
5
140
100
AcDbEntity
8
0
100
AcDbCircle
10
-568.16653779811986
20
-74.396388560533211
30
0
40
229.54916512059356
210
0
220
-0
230
1
100
AcDbArc
50
83.541137714440239
51
356.74157210180448
0
ARC
5
141
100
AcDbEntity
8
0
100
AcDbCircle
10
-313.1665377981198
20
140.64830700364283
30
0
40
229.54916512059395
210
0
220
0
230
1
100
AcDbArc
50
263.5411377144402
51
267.9397230977882
0
CIRCLE
5
142
100
AcDbEntity
8
0
100
AcDbCircle
10
-568.16653779812009
20
-285.94555368112708
30
0
40
5
210
0
220
-0
230
1
0
ENDSEC
0
SECTION
2
OBJECTS
0
DICTIONARY
5
C
100
AcDbDictionary
3
ACAD_GROUP
350
D
3
ACAD_MLINESTYLE
350
17
0
DICTIONARY
5
D
100
AcDbDictionary
0
DICTIONARY
5
1A
330
C
100
AcDbDictionary
0
DICTIONARY
5
17
100
AcDbDictionary
0
ENDSEC
0
EOF
