0
SECTION
2
HEADER
9
$INSUNITS
70
4
9
$ACADVER
1
AC1014
9
$HANDSEED
5
FFFF
0
ENDSEC
0
SECTION
2
TABLES
0
TABLE
2
VPORT
5
8
100
AcDbSymbolTable
0
ENDTAB
0
TABLE
2
LTYPE
5
5
100
AcDbSymbolTable
0
LTYPE
5
14
100
AcDbSymbolTableRecord
100
AcDbLinetypeTableRecord
2
BYBLOCK
70
0
0
LTYPE
5
15
100
AcDbSymbolTableRecord
100
AcDbLinetypeTableRecord
2
BYLAYER
70
0
0
ENDTAB
0
TABLE
2
LAYER
5
2
100
AcDbSymbolTable
70
2
0
LAYER
5
50
100
AcDbSymbolTableRecord
100
AcDbLayerTableRecord
2
0
70
0
6
CONTINUOUS
0
ENDTAB
0
TABLE
2
STYLE
5
3
100
AcDbSymbolTable
70
1
0
STYLE
5
11
100
AcDbSymbolTableRecord
100
AcDbTextStyleTableRecord
2
STANDARD
70
0
0
ENDTAB
0
TABLE
2
VIEW
5
6
100
AcDbSymbolTable
70
0
0
ENDTAB
0
TABLE
2
UCS
5
7
100
AcDbSymbolTable
70
0
0
ENDTAB
0
TABLE
2
APPID
5
9
100
AcDbSymbolTable
70
2
0
APPID
5
12
100
AcDbSymbolTableRecord
100
AcDbRegAppTableRecord
2
ACAD
70
0
0
ENDTAB
0
TABLE
2
DIMSTYLE
5
A
100
AcDbSymbolTable
70
1
0
ENDTAB
0
TABLE
2
BLOCK_RECORD
5
1
100
AcDbSymbolTable
70
1
0
BLOCK_RECORD
5
1F
100
AcDbSymbolTableRecord
100
AcDbBlockTableRecord
2
*MODEL_SPACE
0
BLOCK_RECORD
5
1B
100
AcDbSymbolTableRecord
100
AcDbBlockTableRecord
2
*PAPER_SPACE
0
ENDTAB
0
ENDSEC
0
SECTION
2
BLOCKS
0
BLOCK
5
20
100
AcDbEntity
100
AcDbBlockBegin
2
*MODEL_SPACE
0
ENDBLK
5
21
100
AcDbEntity
100
AcDbBlockEnd
0
BLOCK
5
1C
100
AcDbEntity
100
AcDbBlockBegin
2
*PAPER_SPACE
0
ENDBLK
5
1D
100
AcDbEntity
100
AcDbBlockEnd
0
ENDSEC
0
SECTION
2
ENTITIES
0
LINE
5
100
100
AcDbEntity
8
0
100
AcDbLine
10
416.92045045525055
20
200.39889434408255
30
0
11
413.70054932634758
21
198.88054960603887
31
0
0
ARC
5
101
100
AcDbEntity
8
0
100
AcDbCircle
10
196.83346220188088
20
140.64830700364308
30
0
40
224.54916512059293
210
0
220
-0
230
1
100
AcDbArc
50
1.891940852381895
51
15.030286029931727
0
ARC
5
102
100
AcDbEntity
8
0
100
AcDbCircle
10
451.83346220187968
20
-74.396388560533282
30
0
40
224.54916512059384
210
0
220
0
230
1
100
AcDbArc
50
-1.8919408523819081
51
97.825349331373033
0
LINE
5
103
100
AcDbEntity
8
0
100
AcDbLine
10
676.26021875025583
20
-81.809788693509631
30
0
11
650.24417881908539
21
-81.809788693509674
31
0
0
ARC
5
104
100
AcDbEntity
8
0
100
AcDbCircle
10
451.83346220187968
20
-74.396388560533282
30
0
40
198.54916512059347
210
-0
220
0
230
1
100
AcDbArc
50
-2.1397989482784441
51
99.056597528846169
0
ARC
5
105
100
AcDbEntity
8
0
100
AcDbCircle
10
196.83346220188088
20
140.64830700364308
30
0
40
224.5491651205939
210
0
220
0
230
1
100
AcDbArc
50
284.5636348809939
51
355.15365530276102
0
ARC
5
106
100
AcDbEntity
8
0
100
AcDbCircle
10
451.83346220187968
20
-74.396388560533282
30
0
40
198.54916512059336
210
0
220
0
230
1
100
AcDbArc
50
180.66069265490836
51
182.13979894827847
0
LINE
5
107
100
AcDbEntity
8
0
100
AcDbLine
10
253.42274558467398
20
-81.809788693509574
30
0
11
227.40670565350356
21
-81.809788693509674
31
0
0
ARC
5
108
100
AcDbEntity
8
0
100
AcDbCircle
10
196.83346220188088
20
140.64830700364308
30
0
40
224.54916512059413
210
0
220
0
230
1
100
AcDbArc
50
267.08889220717344
51
277.82534933137282
0
SPLINE
5
109
100
AcDbEntity
8
0
100
AcDbSpline
70
0
71
3
72
10
73
6
74
0
42
0.000000001
43
0.0000000001
44
0.0000000001
40
16.345161765914877
40
16.345161765914877
40
16.345161765914877
40
16.345161765914877
40
16.792625302042619
40
16.792625302042619
40
17.310399748732213
40
17.310399748732213
40
17.310399748732213
40
17.310399748732213
10
185.42938291221844
20
-83.611084175212383
30
0
10
185.17664053614695
20
-84.208277435323083
30
0
10
184.95573583086576
20
-84.876489591861031
30
0
10
184.55094359610624
20
-86.491384902493209
30
0
10
184.37871908436435
20
-87.464033328816697
30
0
10
184.2538479619941
20
-88.555908736681715
30
0
0
ARC
5
110
100
AcDbEntity
8
0
100
AcDbCircle
10
196.83346220188088
20
140.64830700364308
30
0
40
229.54916512059398
210
0
220
0
230
1
100
AcDbArc
50
266.85853766956291
51
276.45886228555941
0
ARC
5
111
100
AcDbEntity
8
0
100
AcDbCircle
10
451.83346220187968
20
-74.396388560533282
30
0
40
229.54916512059373
210
0
220
0
230
1
100
AcDbArc
50
-176.74157210180462
51
96.458862285559618
0
ARC
5
112
100
AcDbEntity
8
0
100
AcDbCircle
10
196.83346220188088
20
140.64830700364308
30
0
40
229.54916512059293
210
0
220
-0
230
1
100
AcDbArc
50
3.2584278981952659
51
91.33028532331042
0
SPLINE
5
113
100
AcDbEntity
8
0
100
AcDbSpline
70
0
71
3
72
8
73
4
74
0
42
0.000000001
43
0.0000000001
44
0.0000000001
40
0.056214239503242155
40
0.056214239503242155
40
0.056214239503242155
40
0.056214239503242155
40
0.55033963996693636
40
0.55033963996693636
40
0.55033963996693636
40
0.55033963996693636
10
191.50430090716043
20
370.1356034874712
30
0
10
191.36890840740267
20
368.48203938594327
30
0
10
191.38801572614196
20
366.76978772296934
30
0
10
191.6848052214709
20
365.13843793962366
30
0
0
ARC
5
114
100
AcDbEntity
8
0
100
AcDbCircle
10
196.83346220188088
20
140.64830700364308
30
0
40
224.54916512059293
210
0
220
-0
230
1
100
AcDbArc
50
32.968833807876642
51
91.313842201552958
0
LINE
5
115
100
AcDbEntity
8
0
100
AcDbLine
10
385.22273463531553
20
262.84409084398862
30
0
11
387.06480842781764
21
263.71272094720132
31
0
0
LINE
5
116
100
AcDbEntity
8
0
100
AcDbLine
10
387.06480842781764
20
263.71272094720132
30
0
11
416.92045045525055
21
200.39889434408255
31
0
0
LWPOLYLINE
5
117
100
AcDbEntity
8
0
100
AcDbPolyline
90
2
70
1
43
0.0
10
425.19320345898643
20
117.31061687481976
42
-2.6086747561783654
10
258.38043309352122
20
-80.495966224548852
42
0.30865450287813279
0
CIRCLE
5
118
100
AcDbEntity
8
0
100
AcDbCircle
10
451.83346220187985
20
-285.94555368112708
30
0
40
5
210
0
220
-0
230
1
0
ARC
5
119
100
AcDbEntity
8
0
100
AcDbCircle
10
196.83346220188008
20
140.64830700364254
30
0
40
193.54916512059339
210
0
220
0
230
1
100
AcDbArc
50
289.3689134060329
51
350.34837677772231
0
ARC
5
120
100
AcDbEntity
8
0
100
AcDbCircle
10
451.83346220187968
20
-74.396388560533296
30
0
40
193.54916512059364
210
0
220
0
230
1
100
AcDbArc
50
109.36891340603292
51
170.34837677772228
0
ARC
5
121
100
AcDbEntity
8
0
100
AcDbCircle
10
451.83346220187968
20
-74.396388560533296
30
0
40
198.54916512059367
210
0
220
0
230
1
100
AcDbArc
50
107.00084338095157
51
172.7164468028036
0
ARC
5
122
100
AcDbEntity
8
0
100
AcDbCircle
10
196.83346220188008
20
140.64830700364254
30
0
40
198.54916512059333
210
-0
220
0
230
1
100
AcDbArc
50
287.00084338095155
51
352.71644680280366
0
LINE
5
123
100
AcDbEntity
8
0
100
AcDbLine
10
389.71246605270346
20
187.7594611351085
30
0
11
359.93031131219533
21
250.9174457925873
31
0
0
LINE
5
124
100
AcDbEntity
8
0
100
AcDbLine
10
359.93031131219533
20
250.9174457925873
30
0
11
361.46228377092098
21
251.63984757711864
31
0
0
ARC
5
125
100
AcDbEntity
8
0
100
AcDbCircle
10
196.83346220187988
20
140.64830700364274
30
0
40
198.54916512059356
210
0
220
-0
230
1
100
AcDbArc
50
33.987559258574628
51
91.12312642498695
0
SPLINE
5
126
100
AcDbEntity
8
0
100
AcDbSpline
70
0
71
3
72
8
73
4
74
0
42
0.000000001
43
0.0000000001
44
0.0000000001
40
0.054098801580522854
40
0.054098801580522854
40
0.054098801580522854
40
0.054098801580522854
40
0.51751558386026197
40
0.51751558386026197
40
0.51751558386026197
40
0.51751558386026197
10
192.94170027434143
20
339.15932724983486
30
0
10
192.6888911008009
20
337.60613703045863
30
0
10
192.53743669931265
20
335.91353772053321
30
0
10
192.46233409441103
20
334.14810689487496
30
0
0
ARC
5
127
100
AcDbEntity
8
0
100
AcDbCircle
10
196.83346220187988
20
140.64830700364274
30
0
40
193.54916512059364
210
0
220
-0
230
1
100
AcDbArc
50
1.805938716266847
51
91.294081980115664
0
ARC
5
128
100
AcDbEntity
8
0
100
AcDbCircle
10
451.83346220187985
20
-74.396388560533381
30
0
40
229.54916512059361
210
0
220
0
230
1
100
AcDbArc
50
105.55249091917759
51
174.1647992645776
0
ARC
5
129
100
AcDbEntity
8
0
100
AcDbCircle
10
196.83346220187988
20
140.64830700364274
30
0
40
193.54916512059384
210
0
220
0
230
1
100
AcDbArc
50
266.55231694705526
51
277.9113514674882
0
SPLINE
5
130
100
AcDbEntity
8
0
100
AcDbSpline
70
0
71
3
72
10
73
6
74
0
42
0.000000001
43
0.0000000001
44
0.0000000001
40
0.62912802728301565
40
0.62912802728301565
40
0.62912802728301565
40
0.62912802728301565
40
0.72369941144534278
40
0.72369941144534278
40
1.1458399878429557
40
1.1458399878429557
40
1.1458399878429557
40
1.1458399878429557
10
185.19397392626999
20
-52.550558499136088
30
0
10
185.0770014038377
20
-52.85230196114702
30
0
10
184.96646443249662
20
-53.153434865692937
30
0
10
184.40297381205269
20
-54.790737199974032
30
0
10
184.0644912200641
20
-56.172395419919596
30
0
10
183.99311849128767
20
-57.485225099024561
30
0
0
ARC
5
131
100
AcDbEntity
8
0
100
AcDbCircle
10
196.83346220187988
20
140.64830700364274
30
0
40
198.54916512059384
210
0
220
0
230
1
100
AcDbArc
50
266.29204540086818
51
279.05659752884623
0
ARC
5
132
100
AcDbEntity
8
0
100
AcDbCircle
10
451.83346220187985
20
-74.396388560533381
30
0
40
224.5491651205937
210
0
220
0
230
1
100
AcDbArc
50
104.56363488099413
51
175.15365530276108
0
ARC
5
133
100
AcDbEntity
8
0
100
AcDbCircle
10
196.83346220187988
20
140.64830700364274
30
0
40
198.54916512059361
210
0
220
-0
230
1
100
AcDbArc
50
0.66069265490892026
51
13.725883388362565
0
LINE
5
134
100
AcDbEntity
8
0
100
AcDbLine
10
361.46228377092109
20
251.63984757711864
30
0
11
385.22273463531553
21
262.84409084398862
31
0
0
ARC
5
135
100
AcDbEntity
8
0
100
AcDbCircle
10
196.83346220187974
20
140.64830700364243
30
0
40
224.54916512059427
210
0
220
-0
230
1
100
AcDbArc
50
32.968833807876628
51
91.31384220155266
0
SPLINE
5
136
100
AcDbEntity
8
0
100
AcDbSpline
70
0
71
3
72
50
73
46
74
0
42
0.000000001
43
0.0000000001
44
0.0000000001
40
0.056635511735422084
40
0.056635511735422084
40
0.056635511735422084
40
0.056635511735422084
40
0.4522145319162631
40
0.4522145319162631
40
0.80059641270041682
40
0.80059641270041682
40
1.1441335316191477
40
1.1441335316191477
40
1.6269369028353853
40
1.6269369028353853
40
2.6133191671373766
40
2.6133191671373766
40
3.1941377450880006
40
3.1941377450880006
40
3.5301430613161675
40
3.5301430613161675
40
3.7986220766323293
40
3.7986220766323293
40
4.0767979617680092
40
4.0767979617680092
40
4.454962285515994
40
4.454962285515994
40
4.9421012644546005
40
4.9421012644546005
40
5.2945029858029242
40
5.2945029858029242
40
5.584554456848819
40
5.584554456848819
40
5.8830497714424395
40
5.8830497714424395
40
6.3115944811510847
40
6.3115944811510847
40
7.2449344807600209
40
7.2449344807600209
40
7.8182942515093465
40
7.8182942515093465
40
8.1253594601341312
40
8.1253594601341312
40
8.3848106985094368
40
8.3848106985094368
40
8.6801085180644755
40
8.6801085180644755
40
9.1914146790871136
40
9.1914146790871136
40
9.4417122292224978
40
9.4417122292224978
40
9.4417122292224978
40
9.4417122292224978
10
191.6848052214709
20
365.13843793962366
30
0
10
191.9207904277423
20
363.84130835379892
30
0
10
192.33525164375737
20
362.57933973036302
30
0
10
193.58712699312582
20
360.44079142865002
30
0
10
194.34080560559269
20
359.58334228411337
30
0
10
196.18378876420672
20
358.19888934644848
30
0
10
197.21247664523702
20
357.70902183920066
30
0
10
199.84547398890584
20
356.89801105713104
30
0
10
201.48984732647074
20
356.73310325674521
30
0
10
206.38967885255792
20
356.7045441696165
30
0
10
209.80032545273912
20
357.3329214681122
30
0
10
214.70248261905627
20
357.81577172232016
30
0
10
216.4570796064605
20
357.88899460653857
30
0
10
218.90716969185848
20
357.47247234938209
30
0
10
219.78227881209105
20
357.19897612357244
30
0
10
221.18637382109029
20
356.35160276515342
30
0
10
221.71365223109549
20
355.87099131320196
30
0
10
222.58789074069952
20
354.67608692869942
30
0
10
222.90282393164159
20
353.9869608408676
30
0
10
223.39375848086235
20
352.28052522831746
30
0
10
223.48225073314848
20
351.22531436304303
30
0
10
223.34200387987207
20
348.88381995848817
30
0
10
223.00961181737736
20
347.53695361423797
30
0
10
222.00985562425922
20
345.49518571140737
30
0
10
221.45027243664009
20
344.70242642985943
30
0
10
220.15021610577892
20
343.54421011554928
30
0
10
219.48358243217302
20
343.14942375466751
30
0
10
217.97328681150876
20
342.62930037980249
30
0
10
217.1731515055437
20
342.52823622573823
30
0
10
215.19891784292739
20
342.56061971554391
30
0
10
213.99237424651125
20
342.81549281057005
30
0
10
210.15879520398559
20
344.00822237126613
30
0
10
207.45328324003165
20
345.42207910096209
30
0
10
203.31075664150089
20
347.09779324760126
30
0
10
201.74224070205202
20
347.61351249432209
30
0
10
199.48574705814059
20
347.79778718577859
30
0
10
198.6961981910307
20
347.75075838685154
30
0
10
197.30111085149136
20
347.32668817266619
30
0
10
196.72768791709365
20
347.01467800356875
30
0
10
195.6282139222339
20
346.10487050654626
30
0
10
195.15424038282319
20
345.50188645996906
30
0
10
194.09405891564859
20
343.72071527042385
30
0
10
193.64396265599467
20
342.38266622313847
30
0
10
193.18142609527658
20
340.48780103844769
30
0
10
193.05170252895283
20
339.83515092972374
30
0
10
192.94170027434143
20
339.15932724983486
30
0
0
ARC
5
137
100
AcDbEntity
8
0
100
AcDbCircle
10
196.83346220187974
20
140.64830700364243
30
0
40
198.5491651205939
210
0
220
-0
230
1
100
AcDbArc
50
33.98755925857467
51
91.123126424986921
0
LWPOLYLINE
5
138
100
AcDbEntity
8
0
100
AcDbPolyline
90
4
70
1
43
0.0
10
387.06480842781764
20
263.71272094720132
10
416.92045045525055
20
200.39889434408255
10
389.78595333962824
20
187.60361918946847
10
359.93031131219533
20
250.9174457925873
0
ARC
5
139
100
AcDbEntity
8
0
100
AcDbCircle
10
196.83346220187988
20
140.64830700364274
30
0
40
198.54916512059364
210
-0
220
0
230
1
100
AcDbArc
50
287.00084338095155
51
352.7164468028036
0
ARC
5
140
100
AcDbEntity
8
0
100
AcDbCircle
10
451.83346220187968
20
-74.396388560533296
30
0
40
198.54916512059356
210
0
220
0
230
1
100
AcDbArc
50
107.00084338095157
51
172.7164468028036
0
LINE
5
141
100
AcDbEntity
8
0
100
AcDbLine
10
413.70054932634758
20
198.88054960603887
30
0
11
389.78595333962824
21
187.60361918946847
31
0
0
LINE
5
142
100
AcDbEntity
8
0
100
AcDbLine
10
389.78595333962824
20
187.60361918946847
30
0
11
389.71246605270346
21
187.7594611351085
31
0
0
ARC
5
143
100
AcDbEntity
8
0
100
AcDbCircle
10
196.83346220187988
20
140.64830700364274
30
0
40
198.54916512059361
210
0
220
-0
230
1
100
AcDbArc
50
0.66069265490892026
51
13.725883388362565
0
ARC
5
144
100
AcDbEntity
8
0
100
AcDbCircle
10
451.83346220187968
20
-74.396388560533296
30
0
40
224.54916512059353
210
0
220
0
230
1
100
AcDbArc
50
104.56363488099409
51
175.15365530276117
0
ARC
5
145
100
AcDbEntity
8
0
100
AcDbCircle
10
196.83346220187988
20
140.64830700364274
30
0
40
198.54916512059384
210
0
220
0
230
1
100
AcDbArc
50
266.29204540086818
51
279.05659752884623
0
SPLINE
5
146
100
AcDbEntity
8
0
100
AcDbSpline
70
0
71
3
72
46
73
42
74
0
42
0.000000001
43
0.0000000001
44
0.0000000001
40
1.3391567449963271
40
1.3391567449963271
40
1.3391567449963271
40
1.3391567449963271
40
1.5652402607080491
40
1.5652402607080491
40
1.8564529176561568
40
1.8564529176561568
40
2.1094341501693066
40
2.1094341501693066
40
2.4124795156735339
40
2.4124795156735339
40
2.9071723130679592
40
2.9071723130679592
40
3.9570905904053655
40
3.9570905904053655
40
5.5488273331409861
40
5.5488273331409861
40
6.0803369626596053
40
6.0803369626596053
40
6.4922616335723102
40
6.4922616335723102
40
6.9070927761597432
40
6.9070927761597432
40
7.5178217955699136
40
7.5178217955699136
40
8.5248811713859389
40
8.5248811713859389
40
9.4842236472778474
40
9.4842236472778474
40
10.226622266628247
40
10.226622266628247
40
10.96583232326036
40
10.96583232326036
40
12.039337521393911
40
12.039337521393911
40
14.264067991140982
40
14.264067991140982
40
15.098462548166481
40
15.098462548166481
40
15.813905346727982
40
15.813905346727982
40
16.422853818514668
40
16.422853818514668
40
16.422853818514668
40
16.422853818514668
10
183.99311849128767
20
-57.485225099024561
30
0
10
183.96175211799459
20
-58.062178040168881
30
0
10
183.98130277212238
20
-58.640099599187167
30
0
10
184.18893393215944
20
-59.924531054607442
30
0
10
184.42250930124291
20
-60.61182839884281
30
0
10
185.14319818332694
20
-61.775208846656511
30
0
10
185.57198557992922
20
-62.233191852861665
30
0
10
186.68842359124795
20
-63.075008814339206
30
0
10
187.38508194071869
20
-63.40706389973947
30
0
10
189.28930372116355
20
-64.038276501953021
30
0
10
190.59207021855735
20
-64.200722891983531
30
0
10
194.47519997890674
20
-64.330447812263841
30
0
10
197.28585766632281
20
-63.889486716792085
30
0
10
203.11312857923841
20
-62.7465506082941
30
0
10
206.11468174285179
20
-61.901874677906576
30
0
10
209.19827407301202
20
-61.877439046830993
30
0
10
209.90911253145032
20
-61.962768229859975
30
0
10
211.04289871273821
20
-62.36507637680883
30
0
10
211.48431205373126
20
-62.622284588306698
30
0
10
212.26408227563596
20
-63.330021122892369
30
0
10
212.5742956154553
20
-63.757601027305242
30
0
10
213.18176719317103
20
-64.911327909335057
30
0
10
213.40743640366327
20
-65.689720303667173
30
0
10
213.7520373161945
20
-67.719638673059023
30
0
10
213.74185364853292
20
-69.153465091559923
30
0
10
213.25272319588208
20
-71.916123414220152
30
0
10
212.7800074433232
20
-73.337116079815971
30
0
10
211.35695097936718
20
-75.596541988569925
30
0
10
210.57359692763495
20
-76.438127192384556
30
0
10
208.66747815347065
20
-77.77871294769615
30
0
10
207.6099004541359
20
-78.235451617557842
30
0
10
204.85668199469683
20
-78.981943877870663
30
0
10
203.10652204971805
20
-79.096073060239192
30
0
10
197.93943348580214
20
-79.078425725410554
30
0
10
194.41880674047167
20
-78.55063342795097
30
0
10
190.40393620202929
20
-79.146496236582976
30
0
10
189.39623402915845
20
-79.443642230149749
30
0
10
187.73053932585168
20
-80.390335650291405
30
0
10
187.08707055516638
20
-80.959249780409337
30
0
10
186.08775764315484
20
-82.253156989054474
30
0
10
185.72275013914461
20
-82.917900335680272
30
0
10
185.42938291221841
20
-83.611084175212426
30
0
0
ARC
5
147
100
AcDbEntity
8
0
100
AcDbCircle
10
196.83346220187988
20
140.64830700364274
30
0
40
224.54916512059373
210
0
220
0
230
1
100
AcDbArc
50
267.08889220717373
51
277.82534933137305
0
LINE
5
148
100
AcDbEntity
8
0
100
AcDbLine
10
227.40670565350365
20
-81.809788693509674
30
0
11
253.42274558467403
21
-81.809788693509674
31
0
0
ARC
5
149
100
AcDbEntity
8
0
100
AcDbCircle
10
451.83346220187968
20
-74.396388560533296
30
0
40
198.54916512059356
210
0
220
0
230
1
100
AcDbArc
50
180.66069265490836
51
182.13979894827827
0
ARC
5
150
100
AcDbEntity
8
0
100
AcDbCircle
10
196.83346220187988
20
140.64830700364274
30
0
40
224.54916512059373
210
0
220
0
230
1
100
AcDbArc
50
284.56363488099407
51
355.15365530276108
0
ARC
5
151
100
AcDbEntity
8
0
100
AcDbCircle
10
451.83346220187968
20
-74.396388560533296
30
0
40
198.54916512059347
210
-0
220
0
230
1
100
AcDbArc
50
-2.1397989482784441
51
99.056597528846197
0
LINE
5
152
100
AcDbEntity
8
0
100
AcDbLine
10
650.24417881908539
20
-81.809788693509731
30
0
11
676.26021875025583
21
-81.809788693509674
31
0
0
ARC
5
153
100
AcDbEntity
8
0
100
AcDbCircle
10
451.83346220187968
20
-74.396388560533296
30
0
40
224.54916512059384
210
0
220
0
230
1
100
AcDbArc
50
-1.8919408523819081
51
97.825349331373019
0
ARC
5
154
100
AcDbEntity
8
0
100
AcDbCircle
10
196.83346220187988
20
140.64830700364274
30
0
40
224.54916512059401
210
0
220
-0
230
1
100
AcDbArc
50
1.891940852382088
51
15.030286029931755
0
ENDSEC
0
SECTION
2
OBJECTS
0
DICTIONARY
5
C
100
AcDbDictionary
3
ACAD_GROUP
350
D
3
ACAD_MLINESTYLE
350
17
0
DICTIONARY
5
D
100
AcDbDictionary
0
DICTIONARY
5
1A
330
C
100
AcDbDictionary
0
DICTIONARY
5
17
100
AcDbDictionary
0
ENDSEC
0
EOF
