0
SECTION
2
HEADER
9
$INSUNITS
70
4
9
$ACADVER
1
AC1014
9
$HANDSEED
5
FFFF
0
ENDSEC
0
SECTION
2
TABLES
0
TABLE
2
VPORT
5
8
100
AcDbSymbolTable
0
ENDTAB
0
TABLE
2
LTYPE
5
5
100
AcDbSymbolTable
0
LTYPE
5
14
100
AcDbSymbolTableRecord
100
AcDbLinetypeTableRecord
2
BYBLOCK
70
0
0
LTYPE
5
15
100
AcDbSymbolTableRecord
100
AcDbLinetypeTableRecord
2
BYLAYER
70
0
0
ENDTAB
0
TABLE
2
LAYER
5
2
100
AcDbSymbolTable
70
2
0
LAYER
5
50
100
AcDbSymbolTableRecord
100
AcDbLayerTableRecord
2
0
70
0
6
CONTINUOUS
0
ENDTAB
0
TABLE
2
STYLE
5
3
100
AcDbSymbolTable
70
1
0
STYLE
5
11
100
AcDbSymbolTableRecord
100
AcDbTextStyleTableRecord
2
STANDARD
70
0
0
ENDTAB
0
TABLE
2
VIEW
5
6
100
AcDbSymbolTable
70
0
0
ENDTAB
0
TABLE
2
UCS
5
7
100
AcDbSymbolTable
70
0
0
ENDTAB
0
TABLE
2
APPID
5
9
100
AcDbSymbolTable
70
2
0
APPID
5
12
100
AcDbSymbolTableRecord
100
AcDbRegAppTableRecord
2
ACAD
70
0
0
ENDTAB
0
TABLE
2
DIMSTYLE
5
A
100
AcDbSymbolTable
70
1
0
ENDTAB
0
TABLE
2
BLOCK_RECORD
5
1
100
AcDbSymbolTable
70
1
0
BLOCK_RECORD
5
1F
100
AcDbSymbolTableRecord
100
AcDbBlockTableRecord
2
*MODEL_SPACE
0
BLOCK_RECORD
5
1B
100
AcDbSymbolTableRecord
100
AcDbBlockTableRecord
2
*PAPER_SPACE
0
ENDTAB
0
ENDSEC
0
SECTION
2
BLOCKS
0
BLOCK
5
20
100
AcDbEntity
100
AcDbBlockBegin
2
*MODEL_SPACE
0
ENDBLK
5
21
100
AcDbEntity
100
AcDbBlockEnd
0
BLOCK
5
1C
100
AcDbEntity
100
AcDbBlockBegin
2
*PAPER_SPACE
0
ENDBLK
5
1D
100
AcDbEntity
100
AcDbBlockEnd
0
ENDSEC
0
SECTION
2
ENTITIES
0
LWPOLYLINE
5
100
100
AcDbEntity
8
0
100
AcDbPolyline
90
6
70
1
43
0.0
10
-79.499999999999972
20
-63.196152422706511
10
-77.999999999999986
20
-60.598076211353202
10
-79.499999999999972
20
-57.999999999999893
10
-82.499999999999972
20
-57.999999999999893
10
-83.999999999999972
20
-60.598076211353209
10
-82.499999999999972
20
-63.196152422706504
0
LWPOLYLINE
5
101
100
AcDbEntity
8
0
100
AcDbPolyline
90
6
70
1
43
0.0
10
-64.499999999999972
20
-63.196152422706533
10
-62.999999999999986
20
-60.598076211353217
10
-64.499999999999972
20
-57.999999999999915
10
-67.499999999999972
20
-57.999999999999915
10
-68.999999999999972
20
-60.598076211353231
10
-67.499999999999972
20
-63.196152422706518
0
LWPOLYLINE
5
102
100
AcDbEntity
8
0
100
AcDbPolyline
90
6
70
1
43
0.0
10
-49.499999999999972
20
-63.196152422706547
10
-47.999999999999986
20
-60.598076211353238
10
-49.499999999999972
20
-57.999999999999936
10
-52.499999999999964
20
-57.999999999999936
10
-53.999999999999972
20
-60.598076211353245
10
-52.499999999999964
20
-63.196152422706547
0
LWPOLYLINE
5
103
100
AcDbEntity
8
0
100
AcDbPolyline
90
6
70
1
43
0.0
10
-34.499999999999972
20
-63.196152422706568
10
-32.999999999999986
20
-60.598076211353259
10
-34.499999999999972
20
-57.999999999999957
10
-37.499999999999964
20
-57.999999999999964
10
-38.999999999999972
20
-60.598076211353273
10
-37.499999999999964
20
-63.196152422706575
0
LWPOLYLINE
5
104
100
AcDbEntity
8
0
100
AcDbPolyline
90
6
70
1
43
0.0
10
-19.499999999999975
20
-63.196152422706589
10
-17.999999999999989
20
-60.59807621135328
10
-19.499999999999975
20
-57.999999999999979
10
-22.499999999999964
20
-57.999999999999979
10
-23.999999999999968
20
-60.598076211353288
10
-22.499999999999964
20
-63.196152422706589
0
LWPOLYLINE
5
105
100
AcDbEntity
8
0
100
AcDbPolyline
90
6
70
1
43
0.0
10
-4.4999999999999751
20
-63.196152422706618
10
-2.9999999999999893
20
-60.598076211353309
10
-4.4999999999999751
20
-58.000000000000007
10
-7.4999999999999645
20
-58
10
-8.999999999999968
20
-60.598076211353316
10
-7.4999999999999645
20
-63.196152422706611
0
LWPOLYLINE
5
106
100
AcDbEntity
8
0
100
AcDbPolyline
90
6
70
1
43
0.0
10
-79.499999999999972
20
-52.196152422706547
10
-77.999999999999986
20
-49.598076211353231
10
-79.499999999999972
20
-46.999999999999922
10
-82.499999999999972
20
-46.999999999999929
10
-83.999999999999972
20
-49.598076211353245
10
-82.499999999999972
20
-52.196152422706547
0
LWPOLYLINE
5
107
100
AcDbEntity
8
0
100
AcDbPolyline
90
6
70
1
43
0.0
10
-64.499999999999972
20
-52.196152422706568
10
-62.999999999999986
20
-49.598076211353259
10
-64.499999999999972
20
-46.99999999999995
10
-67.499999999999972
20
-46.99999999999995
10
-68.999999999999972
20
-49.598076211353266
10
-67.499999999999972
20
-52.196152422706561
0
LWPOLYLINE
5
108
100
AcDbEntity
8
0
100
AcDbPolyline
90
6
70
1
43
0.0
10
-49.499999999999972
20
-52.196152422706589
10
-47.999999999999986
20
-49.598076211353273
10
-49.499999999999972
20
-46.999999999999972
10
-52.499999999999964
20
-46.999999999999964
10
-53.999999999999972
20
-49.598076211353288
10
-52.499999999999964
20
-52.196152422706575
0
LWPOLYLINE
5
109
100
AcDbEntity
8
0
100
AcDbPolyline
90
6
70
1
43
0.0
10
-34.499999999999972
20
-52.196152422706604
10
-32.999999999999986
20
-49.598076211353295
10
-34.499999999999972
20
-46.999999999999993
10
-37.499999999999964
20
-46.999999999999993
10
-38.999999999999972
20
-49.598076211353302
10
-37.499999999999964
20
-52.196152422706604
0
LWPOLYLINE
5
110
100
AcDbEntity
8
0
100
AcDbPolyline
90
6
70
1
43
0.0
10
-19.499999999999975
20
-52.196152422706625
10
-17.999999999999989
20
-49.598076211353316
10
-19.499999999999975
20
-47.000000000000014
10
-22.499999999999964
20
-47.000000000000021
10
-23.999999999999968
20
-49.59807621135333
10
-22.499999999999964
20
-52.196152422706632
0
LWPOLYLINE
5
111
100
AcDbEntity
8
0
100
AcDbPolyline
90
6
70
1
43
0.0
10
-4.4999999999999751
20
-52.196152422706646
10
-2.9999999999999893
20
-49.598076211353337
10
-4.4999999999999751
20
-47.000000000000036
10
-7.4999999999999645
20
-47.000000000000036
10
-8.999999999999968
20
-49.598076211353359
10
-7.4999999999999645
20
-52.196152422706646
0
LWPOLYLINE
5
112
100
AcDbEntity
8
0
100
AcDbPolyline
90
6
70
1
43
0.0
10
-79.499999999999972
20
-41.196152422706575
10
-77.999999999999986
20
-38.598076211353259
10
-79.499999999999972
20
-35.999999999999964
10
-82.499999999999972
20
-35.999999999999957
10
-83.999999999999972
20
-38.598076211353273
10
-82.499999999999972
20
-41.196152422706582
0
LWPOLYLINE
5
113
100
AcDbEntity
8
0
100
AcDbPolyline
90
6
70
1
43
0.0
10
-64.499999999999972
20
-41.196152422706589
10
-62.999999999999986
20
-38.59807621135328
10
-64.499999999999972
20
-35.999999999999993
10
-67.499999999999972
20
-35.999999999999979
10
-68.999999999999972
20
-38.598076211353302
10
-67.499999999999972
20
-41.196152422706604
0
LWPOLYLINE
5
114
100
AcDbEntity
8
0
100
AcDbPolyline
90
6
70
1
43
0.0
10
-49.499999999999972
20
-41.196152422706618
10
-47.999999999999986
20
-38.598076211353309
10
-49.499999999999972
20
-36.000000000000007
10
-52.499999999999964
20
-36.000000000000007
10
-53.999999999999972
20
-38.598076211353323
10
-52.499999999999964
20
-41.196152422706618
0
LWPOLYLINE
5
115
100
AcDbEntity
8
0
100
AcDbPolyline
90
6
70
1
43
0.0
10
-34.499999999999972
20
-41.196152422706632
10
-32.999999999999986
20
-38.598076211353323
10
-34.499999999999972
20
-36.000000000000028
10
-37.499999999999964
20
-36.000000000000021
10
-38.999999999999972
20
-38.598076211353337
10
-37.499999999999964
20
-41.196152422706646
0
LWPOLYLINE
5
116
100
AcDbEntity
8
0
100
AcDbPolyline
90
6
70
1
43
0.0
10
-19.499999999999975
20
-41.19615242270666
10
-17.999999999999989
20
-38.598076211353352
10
-19.499999999999975
20
-36.000000000000057
10
-22.499999999999964
20
-36.00000000000005
10
-23.999999999999968
20
-38.598076211353366
10
-22.499999999999964
20
-41.19615242270666
0
LWPOLYLINE
5
117
100
AcDbEntity
8
0
100
AcDbPolyline
90
6
70
1
43
0.0
10
-4.4999999999999751
20
-41.196152422706682
10
-2.9999999999999893
20
-38.598076211353373
10
-4.4999999999999751
20
-36.000000000000071
10
-7.4999999999999645
20
-36.000000000000071
10
-8.999999999999968
20
-38.59807621135338
10
-7.4999999999999645
20
-41.196152422706689
0
LWPOLYLINE
5
118
100
AcDbEntity
8
0
100
AcDbPolyline
90
6
70
1
43
0.0
10
-79.499999999999972
20
-30.196152422706604
10
-77.999999999999986
20
-27.598076211353295
10
-79.499999999999972
20
-24.999999999999996
10
-82.499999999999972
20
-24.999999999999993
10
-83.999999999999972
20
-27.598076211353298
10
-82.499999999999972
20
-30.1961524227066
0
LWPOLYLINE
5
119
100
AcDbEntity
8
0
100
AcDbPolyline
90
6
70
1
43
0.0
10
-64.499999999999972
20
-30.196152422706621
10
-62.999999999999986
20
-27.598076211353309
10
-64.499999999999972
20
-25.000000000000021
10
-67.499999999999972
20
-25.000000000000007
10
-68.999999999999972
20
-27.598076211353323
10
-67.499999999999972
20
-30.196152422706618
0
LWPOLYLINE
5
120
100
AcDbEntity
8
0
100
AcDbPolyline
90
6
70
1
43
0.0
10
-49.499999999999972
20
-30.196152422706646
10
-47.999999999999986
20
-27.598076211353337
10
-49.499999999999972
20
-25.000000000000039
10
-52.499999999999964
20
-25.000000000000036
10
-53.999999999999972
20
-27.598076211353341
10
-52.499999999999964
20
-30.196152422706636
0
LWPOLYLINE
5
121
100
AcDbEntity
8
0
100
AcDbPolyline
90
6
70
1
43
0.0
10
-34.499999999999972
20
-30.196152422706668
10
-32.999999999999986
20
-27.598076211353355
10
-34.499999999999972
20
-25.000000000000057
10
-37.499999999999964
20
-25.000000000000053
10
-38.999999999999972
20
-27.598076211353359
10
-37.499999999999964
20
-30.19615242270666
0
LWPOLYLINE
5
122
100
AcDbEntity
8
0
100
AcDbPolyline
90
6
70
1
43
0.0
10
-19.499999999999975
20
-30.196152422706692
10
-17.999999999999989
20
-27.59807621135338
10
-19.499999999999975
20
-25.000000000000085
10
-22.499999999999964
20
-25.000000000000078
10
-23.999999999999968
20
-27.598076211353387
10
-22.499999999999964
20
-30.196152422706678
0
LWPOLYLINE
5
123
100
AcDbEntity
8
0
100
AcDbPolyline
90
6
70
1
43
0.0
10
-4.4999999999999751
20
-30.19615242270671
10
-2.9999999999999893
20
-27.598076211353401
10
-4.4999999999999751
20
-25.000000000000103
10
-7.4999999999999645
20
-25.000000000000099
10
-8.999999999999968
20
-27.598076211353405
10
-7.4999999999999645
20
-30.196152422706707
0
LWPOLYLINE
5
124
100
AcDbEntity
8
0
100
AcDbPolyline
90
6
70
1
43
0.0
10
-79.499999999999972
20
-19.196152422706643
10
-77.999999999999986
20
-16.59807621135333
10
-79.499999999999972
20
-14.000000000000025
10
-82.499999999999972
20
-14.00000000000003
10
-83.999999999999972
20
-16.598076211353337
10
-82.499999999999972
20
-19.196152422706639
0
LWPOLYLINE
5
125
100
AcDbEntity
8
0
100
AcDbPolyline
90
6
70
1
43
0.0
10
-64.499999999999972
20
-19.19615242270666
10
-62.999999999999986
20
-16.598076211353352
10
-64.499999999999972
20
-14.000000000000053
10
-67.499999999999972
20
-14.000000000000048
10
-68.999999999999972
20
-16.598076211353362
10
-67.499999999999972
20
-19.196152422706657
0
LWPOLYLINE
5
126
100
AcDbEntity
8
0
100
AcDbPolyline
90
6
70
1
43
0.0
10
-49.499999999999972
20
-19.196152422706689
10
-47.999999999999986
20
-16.598076211353376
10
-49.499999999999972
20
-14.000000000000071
10
-52.499999999999964
20
-14.000000000000075
10
-53.999999999999972
20
-16.59807621135338
10
-52.499999999999964
20
-19.196152422706675
0
LWPOLYLINE
5
127
100
AcDbEntity
8
0
100
AcDbPolyline
90
6
70
1
43
0.0
10
-34.499999999999972
20
-19.196152422706703
10
-32.999999999999986
20
-16.598076211353394
10
-34.499999999999972
20
-14.000000000000089
10
-37.499999999999964
20
-14.000000000000092
10
-38.999999999999972
20
-16.598076211353398
10
-37.499999999999964
20
-19.1961524227067
0
LWPOLYLINE
5
128
100
AcDbEntity
8
0
100
AcDbPolyline
90
6
70
1
43
0.0
10
-19.499999999999975
20
-19.196152422706731
10
-17.999999999999989
20
-16.598076211353423
10
-19.499999999999975
20
-14.000000000000114
10
-22.499999999999964
20
-14.000000000000119
10
-23.999999999999968
20
-16.598076211353426
10
-22.499999999999964
20
-19.196152422706717
0
LWPOLYLINE
5
129
100
AcDbEntity
8
0
100
AcDbPolyline
90
6
70
1
43
0.0
10
-4.4999999999999751
20
-19.196152422706749
10
-2.9999999999999893
20
-16.598076211353437
10
-4.4999999999999751
20
-14.000000000000131
10
-7.4999999999999645
20
-14.000000000000137
10
-8.999999999999968
20
-16.598076211353444
10
-7.4999999999999645
20
-19.196152422706746
0
LWPOLYLINE
5
130
100
AcDbEntity
8
0
100
AcDbPolyline
90
6
70
1
43
0.0
10
-79.499999999999972
20
-8.1961524227066711
10
-77.999999999999986
20
-5.5980762113533622
10
-79.499999999999972
20
-3.0000000000000648
10
-82.499999999999972
20
-3.0000000000000613
10
-83.999999999999972
20
-5.5980762113533675
10
-82.499999999999972
20
-8.1961524227066676
0
LWPOLYLINE
5
131
100
AcDbEntity
8
0
100
AcDbPolyline
90
6
70
1
43
0.0
10
-64.499999999999972
20
-8.1961524227066889
10
-62.999999999999986
20
-5.59807621135338
10
-64.499999999999972
20
-3.0000000000000915
10
-67.499999999999972
20
-3.000000000000079
10
-68.999999999999972
20
-5.5980762113533942
10
-67.499999999999972
20
-8.1961524227066853
0
LWPOLYLINE
5
132
100
AcDbEntity
8
0
100
AcDbPolyline
90
6
70
1
43
0.0
10
-49.499999999999972
20
-8.1961524227067155
10
-47.999999999999986
20
-5.5980762113534066
10
-49.499999999999972
20
-3.0000000000001092
10
-52.499999999999964
20
-3.0000000000001057
10
-53.999999999999972
20
-5.5980762113534119
10
-52.499999999999964
20
-8.1961524227067031
0
LWPOLYLINE
5
133
100
AcDbEntity
8
0
100
AcDbPolyline
90
6
70
1
43
0.0
10
-34.499999999999972
20
-8.1961524227067333
10
-32.999999999999986
20
-5.5980762113534244
10
-34.499999999999972
20
-3.000000000000127
10
-37.499999999999964
20
-3.0000000000001235
10
-38.999999999999972
20
-5.5980762113534297
10
-37.499999999999964
20
-8.1961524227067315
0
LWPOLYLINE
5
134
100
AcDbEntity
8
0
100
AcDbPolyline
90
6
70
1
43
0.0
10
-19.499999999999975
20
-8.1961524227067599
10
-17.999999999999989
20
-5.598076211353451
10
-19.499999999999975
20
-3.0000000000001537
10
-22.499999999999964
20
-3.0000000000001501
10
-23.999999999999968
20
-5.5980762113534563
10
-22.499999999999964
20
-8.1961524227067493
0
LWPOLYLINE
5
135
100
AcDbEntity
8
0
100
AcDbPolyline
90
6
70
1
43
0.0
10
-89.999999999999972
20
-63.196152422706504
10
-88.499999999999957
20
-65.794228634059806
10
-85.499999999999972
20
-65.794228634059806
10
-83.999999999999986
20
-63.196152422706504
10
-85.499999999999972
20
-60.598076211353195
10
-88.499999999999957
20
-60.598076211353202
0
LWPOLYLINE
5
136
100
AcDbEntity
8
0
100
AcDbPolyline
90
6
70
1
43
0.0
10
-74.999999999999972
20
-63.196152422706533
10
-73.499999999999957
20
-65.794228634059834
10
-70.499999999999972
20
-65.794228634059834
10
-68.999999999999986
20
-63.196152422706518
10
-70.499999999999972
20
-60.598076211353217
10
-73.499999999999957
20
-60.598076211353231
0
LWPOLYLINE
5
137
100
AcDbEntity
8
0
100
AcDbPolyline
90
6
70
1
43
0.0
10
-59.999999999999964
20
-63.196152422706561
10
-58.499999999999957
20
-65.794228634059863
10
-55.499999999999972
20
-65.794228634059849
10
-53.999999999999986
20
-63.196152422706547
10
-55.499999999999972
20
-60.598076211353245
10
-58.499999999999957
20
-60.598076211353245
0
LWPOLYLINE
5
138
100
AcDbEntity
8
0
100
AcDbPolyline
90
6
70
1
43
0.0
10
-44.999999999999964
20
-63.196152422706575
10
-43.499999999999957
20
-65.794228634059877
10
-40.499999999999972
20
-65.794228634059877
10
-38.999999999999986
20
-63.196152422706575
10
-40.499999999999972
20
-60.598076211353266
10
-43.499999999999957
20
-60.598076211353273
0
LWPOLYLINE
5
139
100
AcDbEntity
8
0
100
AcDbPolyline
90
6
70
1
43
0.0
10
-29.999999999999964
20
-63.196152422706589
10
-28.499999999999961
20
-65.794228634059891
10
-25.499999999999972
20
-65.794228634059891
10
-23.999999999999986
20
-63.196152422706589
10
-25.499999999999972
20
-60.59807621135328
10
-28.499999999999961
20
-60.598076211353288
0
LWPOLYLINE
5
140
100
AcDbEntity
8
0
100
AcDbPolyline
90
6
70
1
43
0.0
10
-14.999999999999964
20
-63.196152422706618
10
-13.499999999999961
20
-65.79422863405992
10
-10.499999999999972
20
-65.79422863405992
10
-8.9999999999999858
20
-63.196152422706611
10
-10.499999999999972
20
-60.598076211353309
10
-13.499999999999961
20
-60.598076211353309
0
LWPOLYLINE
5
141
100
AcDbEntity
8
0
100
AcDbPolyline
90
6
70
1
43
0.0
10
-89.999999999999972
20
-52.196152422706547
10
-88.499999999999957
20
-54.794228634059849
10
-85.499999999999972
20
-54.794228634059849
10
-83.999999999999986
20
-52.196152422706547
10
-85.499999999999972
20
-49.598076211353231
10
-88.499999999999957
20
-49.598076211353245
0
LWPOLYLINE
5
142
100
AcDbEntity
8
0
100
AcDbPolyline
90
6
70
1
43
0.0
10
-74.999999999999972
20
-52.196152422706561
10
-73.499999999999957
20
-54.794228634059863
10
-70.499999999999972
20
-54.794228634059863
10
-68.999999999999986
20
-52.196152422706561
10
-70.499999999999972
20
-49.598076211353252
10
-73.499999999999957
20
-49.598076211353259
0
LWPOLYLINE
5
143
100
AcDbEntity
8
0
100
AcDbPolyline
90
6
70
1
43
0.0
10
-59.999999999999964
20
-52.196152422706589
10
-58.499999999999957
20
-54.794228634059891
10
-55.499999999999972
20
-54.794228634059877
10
-53.999999999999986
20
-52.196152422706575
10
-55.499999999999972
20
-49.598076211353273
10
-58.499999999999957
20
-49.598076211353273
0
LWPOLYLINE
5
144
100
AcDbEntity
8
0
100
AcDbPolyline
90
6
70
1
43
0.0
10
-44.999999999999964
20
-52.196152422706618
10
-43.499999999999957
20
-54.79422863405992
10
-40.499999999999972
20
-54.794228634059905
10
-38.999999999999986
20
-52.196152422706604
10
-40.499999999999972
20
-49.598076211353302
10
-43.499999999999957
20
-49.598076211353302
0
LWPOLYLINE
5
145
100
AcDbEntity
8
0
100
AcDbPolyline
90
6
70
1
43
0.0
10
-29.999999999999964
20
-52.196152422706632
10
-28.499999999999961
20
-54.794228634059934
10
-25.499999999999972
20
-54.794228634059934
10
-23.999999999999986
20
-52.196152422706632
10
-25.499999999999972
20
-49.598076211353323
10
-28.499999999999961
20
-49.59807621135333
0
LWPOLYLINE
5
146
100
AcDbEntity
8
0
100
AcDbPolyline
90
6
70
1
43
0.0
10
-14.999999999999964
20
-52.196152422706646
10
-13.499999999999961
20
-54.794228634059948
10
-10.499999999999972
20
-54.794228634059948
10
-8.9999999999999858
20
-52.196152422706646
10
-10.499999999999972
20
-49.598076211353337
10
-13.499999999999961
20
-49.598076211353344
0
LWPOLYLINE
5
147
100
AcDbEntity
8
0
100
AcDbPolyline
90
6
70
1
43
0.0
10
-89.999999999999972
20
-41.196152422706582
10
-88.499999999999957
20
-43.794228634059884
10
-85.499999999999972
20
-43.794228634059884
10
-83.999999999999986
20
-41.196152422706575
10
-85.499999999999972
20
-38.598076211353266
10
-88.499999999999957
20
-38.59807621135328
0
LWPOLYLINE
5
148
100
AcDbEntity
8
0
100
AcDbPolyline
90
6
70
1
43
0.0
10
-74.999999999999972
20
-41.196152422706604
10
-73.499999999999957
20
-43.794228634059905
10
-70.499999999999972
20
-43.794228634059905
10
-68.999999999999986
20
-41.196152422706589
10
-70.499999999999972
20
-38.598076211353295
10
-73.499999999999957
20
-38.598076211353302
0
LWPOLYLINE
5
149
100
AcDbEntity
8
0
100
AcDbPolyline
90
6
70
1
43
0.0
10
-59.999999999999964
20
-41.196152422706618
10
-58.499999999999957
20
-43.79422863405992
10
-55.499999999999972
20
-43.794228634059927
10
-53.999999999999986
20
-41.196152422706611
10
-55.499999999999972
20
-38.598076211353309
10
-58.499999999999957
20
-38.598076211353323
0
LWPOLYLINE
5
150
100
AcDbEntity
8
0
100
AcDbPolyline
90
6
70
1
43
0.0
10
-44.999999999999964
20
-41.196152422706646
10
-43.499999999999957
20
-43.794228634059948
10
-40.499999999999972
20
-43.794228634059948
10
-38.999999999999986
20
-41.196152422706632
10
-40.499999999999972
20
-38.59807621135333
10
-43.499999999999957
20
-38.598076211353344
0
LWPOLYLINE
5
151
100
AcDbEntity
8
0
100
AcDbPolyline
90
6
70
1
43
0.0
10
-29.999999999999964
20
-41.196152422706675
10
-28.499999999999961
20
-43.794228634059976
10
-25.499999999999972
20
-43.794228634059976
10
-23.999999999999986
20
-41.196152422706653
10
-25.499999999999972
20
-38.598076211353359
10
-28.499999999999961
20
-38.598076211353373
0
LWPOLYLINE
5
152
100
AcDbEntity
8
0
100
AcDbPolyline
90
6
70
1
43
0.0
10
-14.999999999999964
20
-41.196152422706689
10
-13.499999999999961
20
-43.794228634059991
10
-10.499999999999972
20
-43.794228634059991
10
-8.9999999999999858
20
-41.196152422706682
10
-10.499999999999972
20
-38.598076211353373
10
-13.499999999999961
20
-38.598076211353387
0
LWPOLYLINE
5
153
100
AcDbEntity
8
0
100
AcDbPolyline
90
6
70
1
43
0.0
10
-89.999999999999972
20
-30.1961524227066
10
-88.499999999999957
20
-32.794228634059913
10
-85.499999999999972
20
-32.794228634059905
10
-83.999999999999986
20
-30.196152422706618
10
-85.499999999999972
20
-27.598076211353298
10
-88.499999999999957
20
-27.598076211353309
0
LWPOLYLINE
5
154
100
AcDbEntity
8
0
100
AcDbPolyline
90
6
70
1
43
0.0
10
-74.999999999999972
20
-30.196152422706625
10
-73.499999999999957
20
-32.794228634059941
10
-70.499999999999972
20
-32.79422863405992
10
-68.999999999999986
20
-30.196152422706636
10
-70.499999999999972
20
-27.598076211353323
10
-73.499999999999957
20
-27.59807621135333
0
LWPOLYLINE
5
155
100
AcDbEntity
8
0
100
AcDbPolyline
90
6
70
1
43
0.0
10
-59.999999999999964
20
-30.196152422706643
10
-58.499999999999957
20
-32.794228634059962
10
-55.499999999999972
20
-32.794228634059948
10
-53.999999999999986
20
-30.196152422706653
10
-55.499999999999972
20
-27.598076211353341
10
-58.499999999999957
20
-27.598076211353355
0
LWPOLYLINE
5
156
100
AcDbEntity
8
0
100
AcDbPolyline
90
6
70
1
43
0.0
10
-44.999999999999964
20
-30.19615242270666
10
-43.499999999999957
20
-32.794228634059976
10
-40.499999999999972
20
-32.794228634059969
10
-38.999999999999986
20
-30.196152422706678
10
-40.499999999999972
20
-27.598076211353359
10
-43.499999999999957
20
-27.598076211353373
0
LWPOLYLINE
5
157
100
AcDbEntity
8
0
100
AcDbPolyline
90
6
70
1
43
0.0
10
-29.999999999999964
20
-30.196152422706689
10
-28.499999999999961
20
-32.794228634060005
10
-25.499999999999972
20
-32.794228634059991
10
-23.999999999999986
20
-30.196152422706696
10
-25.499999999999972
20
-27.598076211353387
10
-28.499999999999961
20
-27.598076211353401
0
LWPOLYLINE
5
158
100
AcDbEntity
8
0
100
AcDbPolyline
90
6
70
1
43
0.0
10
-14.999999999999964
20
-30.196152422706707
10
-13.499999999999961
20
-32.794228634060019
10
-10.499999999999972
20
-32.794228634060012
10
-8.9999999999999858
20
-30.196152422706724
10
-10.499999999999972
20
-27.598076211353405
10
-13.499999999999961
20
-27.598076211353415
0
LWPOLYLINE
5
159
100
AcDbEntity
8
0
100
AcDbPolyline
90
6
70
1
43
0.0
10
-89.999999999999972
20
-19.196152422706639
10
-88.499999999999957
20
-21.794228634059944
10
-85.499999999999972
20
-21.794228634059944
10
-83.999999999999986
20
-19.196152422706646
10
-85.499999999999972
20
-16.598076211353337
10
-88.499999999999957
20
-16.598076211353341
0
LWPOLYLINE
5
160
100
AcDbEntity
8
0
100
AcDbPolyline
90
6
70
1
43
0.0
10
-74.999999999999972
20
-19.196152422706664
10
-73.499999999999957
20
-21.794228634059969
10
-70.499999999999972
20
-21.794228634059962
10
-68.999999999999986
20
-19.196152422706664
10
-70.499999999999972
20
-16.598076211353362
10
-73.499999999999957
20
-16.598076211353359
0
LWPOLYLINE
5
161
100
AcDbEntity
8
0
100
AcDbPolyline
90
6
70
1
43
0.0
10
-59.999999999999964
20
-19.196152422706682
10
-58.499999999999957
20
-21.794228634059991
10
-55.499999999999972
20
-21.794228634059991
10
-53.999999999999986
20
-19.196152422706682
10
-55.499999999999972
20
-16.59807621135338
10
-58.499999999999957
20
-16.598076211353387
0
LWPOLYLINE
5
162
100
AcDbEntity
8
0
100
AcDbPolyline
90
6
70
1
43
0.0
10
-44.999999999999964
20
-19.1961524227067
10
-43.499999999999957
20
-21.794228634060005
10
-40.499999999999972
20
-21.794228634060005
10
-38.999999999999986
20
-19.19615242270671
10
-40.499999999999972
20
-16.598076211353398
10
-43.499999999999957
20
-16.598076211353401
0
LWPOLYLINE
5
163
100
AcDbEntity
8
0
100
AcDbPolyline
90
6
70
1
43
0.0
10
-29.999999999999964
20
-19.196152422706728
10
-28.499999999999961
20
-21.794228634060033
10
-25.499999999999972
20
-21.794228634060033
10
-23.999999999999986
20
-19.196152422706728
10
-25.499999999999972
20
-16.598076211353426
10
-28.499999999999961
20
-16.59807621135343
0
LWPOLYLINE
5
164
100
AcDbEntity
8
0
100
AcDbPolyline
90
6
70
1
43
0.0
10
-14.999999999999964
20
-19.196152422706746
10
-13.499999999999961
20
-21.794228634060051
10
-10.499999999999972
20
-21.794228634060051
10
-8.9999999999999858
20
-19.196152422706753
10
-10.499999999999972
20
-16.598076211353444
10
-13.499999999999961
20
-16.598076211353447
0
LWPOLYLINE
5
165
100
AcDbEntity
8
0
100
AcDbPolyline
90
6
70
1
43
0.0
10
-89.999999999999972
20
-8.1961524227066693
10
-88.499999999999957
20
-10.794228634059975
10
-85.499999999999972
20
-10.794228634059975
10
-83.999999999999986
20
-8.1961524227066764
10
-85.499999999999972
20
-5.5980762113533666
10
-88.499999999999957
20
-5.598076211353372
0
LWPOLYLINE
5
166
100
AcDbEntity
8
0
100
AcDbPolyline
90
6
70
1
43
0.0
10
-74.999999999999972
20
-8.196152422706696
10
-73.499999999999957
20
-10.794228634060001
10
-70.499999999999972
20
-10.794228634059992
10
-68.999999999999986
20
-8.1961524227066942
10
-70.499999999999972
20
-5.5980762113533933
10
-73.499999999999957
20
-5.5980762113533897
0
LWPOLYLINE
5
167
100
AcDbEntity
8
0
100
AcDbPolyline
90
6
70
1
43
0.0
10
-59.999999999999964
20
-8.1961524227067137
10
-58.499999999999957
20
-10.794228634060019
10
-55.499999999999972
20
-10.794228634060019
10
-53.999999999999986
20
-8.196152422706712
10
-55.499999999999972
20
-5.598076211353411
10
-58.499999999999957
20
-5.5980762113534164
0
LWPOLYLINE
5
168
100
AcDbEntity
8
0
100
AcDbPolyline
90
6
70
1
43
0.0
10
-44.999999999999964
20
-8.1961524227067315
10
-43.499999999999957
20
-10.794228634060037
10
-40.499999999999972
20
-10.794228634060037
10
-38.999999999999986
20
-8.1961524227067386
10
-40.499999999999972
20
-5.5980762113534288
10
-43.499999999999957
20
-5.5980762113534341
0
LWPOLYLINE
5
169
100
AcDbEntity
8
0
100
AcDbPolyline
90
6
70
1
43
0.0
10
-29.999999999999964
20
-8.1961524227067581
10
-28.499999999999961
20
-10.794228634060063
10
-25.499999999999972
20
-10.794228634060063
10
-23.999999999999986
20
-8.1961524227067564
10
-25.499999999999972
20
-5.5980762113534555
10
-28.499999999999961
20
-5.5980762113534608
0
LWPOLYLINE
5
170
100
AcDbEntity
8
0
100
AcDbPolyline
90
6
70
1
43
0.0
10
-7.4999999999999645
20
-3.0000000000001679
10
-8.999999999999968
20
-5.5980762113534777
10
-7.4999999999999645
20
-8.1961524227067741
10
-4.4999999999999751
20
-8.1961524227067777
10
-2.9999999999999893
20
-5.5980762113534723
10
-4.4999999999999751
20
-3.0000000000001714
0
LWPOLYLINE
5
171
100
AcDbEntity
8
0
100
AcDbPolyline
90
6
70
1
43
0.0
10
-8.9999999999999858
20
-8.196152422706783
10
-10.499999999999972
20
-5.5980762113534777
10
-13.499999999999961
20
-5.5980762113534785
10
-14.999999999999964
20
-8.1961524227067759
10
-13.499999999999961
20
-10.794228634060087
10
-10.499999999999972
20
-10.794228634060081
0
LWPOLYLINE
5
172
100
AcDbEntity
8
0
100
AcDbPolyline
90
24
70
1
43
0.0
10
-92.249999999999972
20
4.4999999999999627
10
-92.249999999999972
20
-1.7763568394002505e-14
10
-59.999999999999972
20
-7.6050277186823223e-14
10
-59.999999999999972
20
4.4999999999999147
10
-27.749999999999968
20
4.4999999999998739
10
-27.749999999999968
20
-1.1982081993267012e-13
10
1.7721683450262322e-14
20
-1.5543122344752192e-13
10
1.7763568394002505e-14
20
-26.166666666666757
10
4.5000000000000107
20
-26.16666666666676
10
4.5000000000000107
20
-56.833333333333343
10
1.7721683450262322e-14
20
-56.833333333333336
10
1.7763568394002505e-14
20
-82.999999999999915
10
-27.749999999999986
20
-82.999999999999901
10
-27.749999999999986
20
-87.499999999999872
10
-59.999999999999986
20
-87.499999999999829
10
-59.999999999999986
20
-82.999999999999844
10
-92.249999999999972
20
-82.999999999999815
10
-92.25
20
-87.499999999999787
10
-124.5
20
-87.49999999999973
10
-124.5
20
-56.833333333333151
10
-119.99999999999999
20
-56.833333333333158
10
-120
20
-26.166666666666579
10
-124.5
20
-26.166666666666583
10
-124.5
20
4.5000000000000036
0
CIRCLE
5
173
100
AcDbEntity
8
0
100
AcDbCircle
10
-108.37499999999986
20
-84.499999999999545
30
0
40
2.1000000000000001
210
-1.3603978668325146e-48
220
-7.7037197775489434e-34
230
1
0
CIRCLE
5
174
100
AcDbEntity
8
0
100
AcDbCircle
10
1.5000000000000924
20
-41.499999999999929
30
0
40
2.1000000000000001
210
-1.3603978668325146e-48
220
-7.7037197775489434e-34
230
1
0
CIRCLE
5
175
100
AcDbEntity
8
0
100
AcDbCircle
10
-108.37499999999999
20
1.4999999999999503
30
0
40
2.1000000000000001
210
-1.3603978668325146e-48
220
-7.7037197775489434e-34
230
1
0
CIRCLE
5
176
100
AcDbEntity
8
0
100
AcDbCircle
10
-121.49999999999997
20
-10.833333333333268
30
0
40
2.1000000000000001
210
-1.3603978668325146e-48
220
-7.7037197775489434e-34
230
1
0
CIRCLE
5
177
100
AcDbEntity
8
0
100
AcDbCircle
10
-43.874999999999964
20
1.4999999999998614
30
0
40
2.1000000000000001
210
-1.3603978668325146e-48
220
-7.7037197775489434e-34
230
1
0
CIRCLE
5
178
100
AcDbEntity
8
0
100
AcDbCircle
10
-43.874999999999851
20
-84.499999999999659
30
0
40
2.1000000000000001
210
-1.3603978668325146e-48
220
-7.7037197775489434e-34
230
1
0
CIRCLE
5
179
100
AcDbEntity
8
0
100
AcDbCircle
10
-121.49999999999989
20
-72.166666666666245
30
0
40
2.1000000000000001
210
-1.3603978668325146e-48
220
-7.7037197775489434e-34
230
1
0
CIRCLE
5
180
100
AcDbEntity
8
0
100
AcDbCircle
10
-108.37499999999986
20
-84.499999999999545
30
0
40
1.1000000000000001
210
-1.2325951644078309e-32
220
-1.7809652042519826e-47
230
1
0
CIRCLE
5
181
100
AcDbEntity
8
0
100
AcDbCircle
10
1.5000000000000921
20
-41.499999999999929
30
0
40
1.1000000000000001
210
-1.2325951644078309e-32
220
-1.7809652042519826e-47
230
1
0
CIRCLE
5
182
100
AcDbEntity
8
0
100
AcDbCircle
10
-108.37499999999999
20
1.4999999999999503
30
0
40
1.1000000000000001
210
-1.2325951644078309e-32
220
-1.7809652042519826e-47
230
1
0
CIRCLE
5
183
100
AcDbEntity
8
0
100
AcDbCircle
10
-121.49999999999997
20
-10.833333333333268
30
0
40
1.1000000000000001
210
-1.2325951644078309e-32
220
-1.7809652042519826e-47
230
1
0
CIRCLE
5
184
100
AcDbEntity
8
0
100
AcDbCircle
10
-43.874999999999964
20
1.4999999999998614
30
0
40
1.1000000000000001
210
-1.2325951644078309e-32
220
-1.7809652042519826e-47
230
1
0
CIRCLE
5
185
100
AcDbEntity
8
0
100
AcDbCircle
10
-43.874999999999851
20
-84.499999999999659
30
0
40
1.1000000000000001
210
-1.2325951644078309e-32
220
-1.7809652042519826e-47
230
1
0
CIRCLE
5
186
100
AcDbEntity
8
0
100
AcDbCircle
10
-121.49999999999989
20
-72.166666666666245
30
0
40
1.1000000000000001
210
-1.2325951644078309e-32
220
-1.7809652042519826e-47
230
1
0
LWPOLYLINE
5
187
100
AcDbEntity
8
0
100
AcDbPolyline
90
6
70
1
43
0.0
10
-77.999999999999986
20
-60.598076211353195
10
-79.499999999999972
20
-63.196152422706504
10
-82.499999999999972
20
-63.196152422706497
10
-83.999999999999972
20
-60.598076211353202
10
-82.499999999999972
20
-57.999999999999901
10
-79.499999999999972
20
-57.999999999999908
0
LWPOLYLINE
5
188
100
AcDbEntity
8
0
100
AcDbPolyline
90
6
70
1
43
0.0
10
-62.999999999999986
20
-60.598076211353209
10
-64.499999999999972
20
-63.196152422706518
10
-67.499999999999972
20
-63.196152422706518
10
-68.999999999999972
20
-60.598076211353231
10
-67.499999999999972
20
-57.999999999999915
10
-64.499999999999972
20
-57.999999999999929
0
LWPOLYLINE
5
189
100
AcDbEntity
8
0
100
AcDbPolyline
90
6
70
1
43
0.0
10
-47.999999999999986
20
-60.598076211353238
10
-49.499999999999972
20
-63.196152422706547
10
-52.499999999999964
20
-63.19615242270654
10
-53.999999999999972
20
-60.598076211353245
10
-52.499999999999964
20
-57.999999999999936
10
-49.499999999999972
20
-57.999999999999943
0
LWPOLYLINE
5
190
100
AcDbEntity
8
0
100
AcDbPolyline
90
6
70
1
43
0.0
10
-32.999999999999986
20
-60.598076211353266
10
-34.499999999999972
20
-63.196152422706575
10
-37.499999999999964
20
-63.196152422706568
10
-38.999999999999972
20
-60.598076211353266
10
-37.499999999999964
20
-57.999999999999964
10
-34.499999999999972
20
-57.999999999999964
0
LWPOLYLINE
5
191
100
AcDbEntity
8
0
100
AcDbPolyline
90
6
70
1
43
0.0
10
-17.999999999999989
20
-60.59807621135328
10
-19.499999999999975
20
-63.196152422706589
10
-22.499999999999964
20
-63.196152422706582
10
-23.999999999999968
20
-60.598076211353288
10
-22.499999999999964
20
-57.999999999999986
10
-19.499999999999975
20
-57.999999999999986
0
LWPOLYLINE
5
192
100
AcDbEntity
8
0
100
AcDbPolyline
90
6
70
1
43
0.0
10
-2.9999999999999898
20
-60.598076211353302
10
-4.499999999999976
20
-63.196152422706611
10
-7.4999999999999645
20
-63.196152422706604
10
-8.999999999999968
20
-60.598076211353316
10
-7.4999999999999645
20
-58.000000000000007
10
-4.499999999999976
20
-58.000000000000014
0
LWPOLYLINE
5
193
100
AcDbEntity
8
0
100
AcDbPolyline
90
6
70
1
43
0.0
10
-77.999999999999986
20
-49.598076211353231
10
-79.499999999999972
20
-52.196152422706547
10
-82.499999999999972
20
-52.196152422706533
10
-83.999999999999972
20
-49.598076211353231
10
-82.499999999999972
20
-46.999999999999929
10
-79.499999999999972
20
-46.999999999999943
0
LWPOLYLINE
5
194
100
AcDbEntity
8
0
100
AcDbPolyline
90
6
70
1
43
0.0
10
-62.999999999999986
20
-49.598076211353252
10
-64.499999999999972
20
-52.196152422706561
10
-67.499999999999972
20
-52.196152422706554
10
-68.999999999999972
20
-49.598076211353259
10
-67.499999999999972
20
-46.999999999999957
10
-64.499999999999972
20
-46.999999999999964
0
LWPOLYLINE
5
195
100
AcDbEntity
8
0
100
AcDbPolyline
90
6
70
1
43
0.0
10
-47.999999999999986
20
-49.598076211353266
10
-49.499999999999972
20
-52.196152422706575
10
-52.499999999999964
20
-52.196152422706568
10
-53.999999999999972
20
-49.598076211353288
10
-52.499999999999964
20
-46.999999999999972
10
-49.499999999999972
20
-46.999999999999986
0
LWPOLYLINE
5
196
100
AcDbEntity
8
0
100
AcDbPolyline
90
6
70
1
43
0.0
10
-32.999999999999986
20
-49.598076211353295
10
-34.499999999999972
20
-52.196152422706604
10
-37.499999999999964
20
-52.196152422706596
10
-38.999999999999972
20
-49.598076211353302
10
-37.499999999999964
20
-46.999999999999993
10
-34.499999999999972
20
-47
0
LWPOLYLINE
5
197
100
AcDbEntity
8
0
100
AcDbPolyline
90
6
70
1
43
0.0
10
-17.999999999999989
20
-49.598076211353323
10
-19.499999999999975
20
-52.196152422706632
10
-22.499999999999964
20
-52.196152422706625
10
-23.999999999999968
20
-49.598076211353323
10
-22.499999999999964
20
-47.000000000000021
10
-19.499999999999975
20
-47.000000000000021
0
LWPOLYLINE
5
198
100
AcDbEntity
8
0
100
AcDbPolyline
90
6
70
1
43
0.0
10
-2.9999999999999898
20
-49.598076211353337
10
-4.499999999999976
20
-52.196152422706646
10
-7.4999999999999645
20
-52.196152422706639
10
-8.999999999999968
20
-49.598076211353344
10
-7.4999999999999645
20
-47.000000000000043
10
-4.499999999999976
20
-47.000000000000043
0
LWPOLYLINE
5
199
100
AcDbEntity
8
0
100
AcDbPolyline
90
6
70
1
43
0.0
10
-77.999999999999986
20
-38.598076211353273
10
-79.499999999999972
20
-41.196152422706582
10
-82.499999999999972
20
-41.196152422706561
10
-83.999999999999972
20
-38.598076211353273
10
-82.499999999999972
20
-35.999999999999964
10
-79.499999999999972
20
-35.999999999999964
0
LWPOLYLINE
5
200
100
AcDbEntity
8
0
100
AcDbPolyline
90
6
70
1
43
0.0
10
-62.999999999999986
20
-38.598076211353288
10
-64.499999999999972
20
-41.196152422706604
10
-67.499999999999972
20
-41.196152422706582
10
-68.999999999999972
20
-38.598076211353302
10
-67.499999999999972
20
-35.999999999999986
10
-64.499999999999972
20
-35.999999999999986
0
LWPOLYLINE
5
201
100
AcDbEntity
8
0
100
AcDbPolyline
90
6
70
1
43
0.0
10
-47.999999999999986
20
-38.598076211353309
10
-49.499999999999972
20
-41.196152422706618
10
-52.499999999999964
20
-41.196152422706611
10
-53.999999999999972
20
-38.598076211353316
10
-52.499999999999964
20
-36
10
-49.499999999999972
20
-36.000000000000007
0
LWPOLYLINE
5
202
100
AcDbEntity
8
0
100
AcDbPolyline
90
6
70
1
43
0.0
10
-32.999999999999986
20
-38.59807621135333
10
-34.499999999999972
20
-41.196152422706646
10
-37.499999999999964
20
-41.196152422706625
10
-38.999999999999972
20
-38.59807621135333
10
-37.499999999999964
20
-36.000000000000028
10
-34.499999999999972
20
-36.000000000000028
0
LWPOLYLINE
5
203
100
AcDbEntity
8
0
100
AcDbPolyline
90
6
70
1
43
0.0
10
-17.999999999999989
20
-38.598076211353352
10
-19.499999999999975
20
-41.19615242270666
10
-22.499999999999964
20
-41.196152422706653
10
-23.999999999999968
20
-38.598076211353359
10
-22.499999999999964
20
-36.000000000000043
10
-19.499999999999975
20
-36.000000000000057
0
LWPOLYLINE
5
204
100
AcDbEntity
8
0
100
AcDbPolyline
90
6
70
1
43
0.0
10
-2.9999999999999898
20
-38.59807621135338
10
-4.499999999999976
20
-41.196152422706689
10
-7.4999999999999645
20
-41.196152422706675
10
-8.999999999999968
20
-38.59807621135338
10
-7.4999999999999645
20
-36.000000000000071
10
-4.499999999999976
20
-36.000000000000071
0
LWPOLYLINE
5
205
100
AcDbEntity
8
0
100
AcDbPolyline
90
6
70
1
43
0.0
10
-77.999999999999986
20
-27.598076211353295
10
-79.499999999999972
20
-30.196152422706604
10
-82.499999999999972
20
-30.1961524227066
10
-83.999999999999972
20
-27.598076211353302
10
-82.499999999999972
20
-24.999999999999996
10
-79.499999999999972
20
-24.999999999999996
0
LWPOLYLINE
5
206
100
AcDbEntity
8
0
100
AcDbPolyline
90
6
70
1
43
0.0
10
-62.999999999999986
20
-27.598076211353309
10
-64.499999999999972
20
-30.196152422706621
10
-67.499999999999972
20
-30.196152422706618
10
-68.999999999999972
20
-27.59807621135333
10
-67.499999999999972
20
-25.000000000000014
10
-64.499999999999972
20
-25.000000000000014
0
LWPOLYLINE
5
207
100
AcDbEntity
8
0
100
AcDbPolyline
90
6
70
1
43
0.0
10
-47.999999999999986
20
-27.59807621135333
10
-49.499999999999972
20
-30.196152422706639
10
-52.499999999999964
20
-30.196152422706643
10
-53.999999999999972
20
-27.598076211353344
10
-52.499999999999964
20
-25.000000000000032
10
-49.499999999999972
20
-25.000000000000039
0
LWPOLYLINE
5
208
100
AcDbEntity
8
0
100
AcDbPolyline
90
6
70
1
43
0.0
10
-32.999999999999986
20
-27.598076211353355
10
-34.499999999999972
20
-30.196152422706668
10
-37.499999999999964
20
-30.19615242270666
10
-38.999999999999972
20
-27.598076211353366
10
-37.499999999999964
20
-25.000000000000057
10
-34.499999999999972
20
-25.000000000000057
0
LWPOLYLINE
5
209
100
AcDbEntity
8
0
100
AcDbPolyline
90
6
70
1
43
0.0
10
-17.999999999999989
20
-27.598076211353373
10
-19.499999999999975
20
-30.196152422706682
10
-22.499999999999964
20
-30.196152422706689
10
-23.999999999999968
20
-27.598076211353391
10
-22.499999999999964
20
-25.000000000000075
10
-19.499999999999975
20
-25.000000000000085
0
LWPOLYLINE
5
210
100
AcDbEntity
8
0
100
AcDbPolyline
90
6
70
1
43
0.0
10
-2.9999999999999898
20
-27.598076211353401
10
-4.499999999999976
20
-30.19615242270671
10
-7.4999999999999645
20
-30.196152422706707
10
-8.999999999999968
20
-27.598076211353408
10
-7.4999999999999645
20
-25.000000000000103
10
-4.499999999999976
20
-25.000000000000103
0
LWPOLYLINE
5
211
100
AcDbEntity
8
0
100
AcDbPolyline
90
6
70
1
43
0.0
10
-77.999999999999986
20
-16.59807621135333
10
-79.499999999999972
20
-19.196152422706643
10
-82.499999999999972
20
-19.196152422706639
10
-83.999999999999972
20
-16.59807621135333
10
-82.499999999999972
20
-14.000000000000025
10
-79.499999999999972
20
-14.000000000000036
0
LWPOLYLINE
5
212
100
AcDbEntity
8
0
100
AcDbPolyline
90
6
70
1
43
0.0
10
-62.999999999999986
20
-16.598076211353352
10
-64.499999999999972
20
-19.19615242270666
10
-67.499999999999972
20
-19.196152422706657
10
-68.999999999999972
20
-16.598076211353359
10
-67.499999999999972
20
-14.000000000000043
10
-64.499999999999972
20
-14.000000000000053
0
LWPOLYLINE
5
213
100
AcDbEntity
8
0
100
AcDbPolyline
90
6
70
1
43
0.0
10
-47.999999999999986
20
-16.598076211353366
10
-49.499999999999972
20
-19.196152422706678
10
-52.499999999999964
20
-19.196152422706682
10
-53.999999999999972
20
-16.598076211353376
10
-52.499999999999964
20
-14.00000000000006
10
-49.499999999999972
20
-14.000000000000078
0
LWPOLYLINE
5
214
100
AcDbEntity
8
0
100
AcDbPolyline
90
6
70
1
43
0.0
10
-32.999999999999986
20
-16.598076211353394
10
-34.499999999999972
20
-19.196152422706703
10
-37.499999999999964
20
-19.1961524227067
10
-38.999999999999972
20
-16.598076211353394
10
-37.499999999999964
20
-14.000000000000089
10
-34.499999999999972
20
-14.000000000000096
0
LWPOLYLINE
5
215
100
AcDbEntity
8
0
100
AcDbPolyline
90
6
70
1
43
0.0
10
-17.999999999999989
20
-16.598076211353412
10
-19.499999999999975
20
-19.196152422706724
10
-22.499999999999964
20
-19.196152422706728
10
-23.999999999999968
20
-16.598076211353423
10
-22.499999999999964
20
-14.000000000000107
10
-19.499999999999975
20
-14.000000000000124
0
LWPOLYLINE
5
216
100
AcDbEntity
8
0
100
AcDbPolyline
90
6
70
1
43
0.0
10
-2.9999999999999898
20
-16.598076211353437
10
-4.499999999999976
20
-19.196152422706749
10
-7.4999999999999645
20
-19.196152422706746
10
-8.999999999999968
20
-16.598076211353437
10
-7.4999999999999645
20
-14.000000000000131
10
-4.499999999999976
20
-14.000000000000142
0
LWPOLYLINE
5
217
100
AcDbEntity
8
0
100
AcDbPolyline
90
6
70
1
43
0.0
10
-77.999999999999986
20
-5.5980762113533631
10
-79.499999999999972
20
-8.1961524227066729
10
-82.499999999999972
20
-8.1961524227066676
10
-83.999999999999972
20
-5.5980762113533702
10
-82.499999999999972
20
-3.0000000000000648
10
-79.499999999999972
20
-3.0000000000000657
0
LWPOLYLINE
5
218
100
AcDbEntity
8
0
100
AcDbPolyline
90
6
70
1
43
0.0
10
-62.999999999999986
20
-5.5980762113533808
10
-64.499999999999972
20
-8.1961524227066906
10
-67.499999999999972
20
-8.1961524227066853
10
-68.999999999999972
20
-5.5980762113533968
10
-67.499999999999972
20
-3.0000000000000826
10
-64.499999999999972
20
-3.0000000000000835
0
LWPOLYLINE
5
219
100
AcDbEntity
8
0
100
AcDbPolyline
90
6
70
1
43
0.0
10
-47.999999999999986
20
-5.5980762113533986
10
-49.499999999999972
20
-8.1961524227067084
10
-52.499999999999964
20
-8.196152422706712
10
-53.999999999999972
20
-5.5980762113534146
10
-52.499999999999964
20
-3.0000000000001004
10
-49.499999999999972
20
-3.0000000000001101
0
LWPOLYLINE
5
220
100
AcDbEntity
8
0
100
AcDbPolyline
90
6
70
1
43
0.0
10
-32.999999999999986
20
-5.5980762113534253
10
-34.499999999999972
20
-8.1961524227067351
10
-37.499999999999964
20
-8.1961524227067297
10
-38.999999999999972
20
-5.5980762113534324
10
-37.499999999999964
20
-3.000000000000127
10
-34.499999999999972
20
-3.0000000000001279
0
LWPOLYLINE
5
221
100
AcDbEntity
8
0
100
AcDbPolyline
90
6
70
1
43
0.0
10
-17.999999999999989
20
-5.598076211353443
10
-19.499999999999975
20
-8.1961524227067528
10
-22.499999999999964
20
-8.1961524227067564
10
-23.999999999999968
20
-5.598076211353459
10
-22.499999999999964
20
-3.0000000000001448
10
-19.499999999999975
20
-3.0000000000001545
0
LWPOLYLINE
5
222
100
AcDbEntity
8
0
100
AcDbPolyline
90
6
70
1
43
0.0
10
-88.499999999999957
20
-65.794228634059806
10
-89.999999999999972
20
-63.196152422706504
10
-88.499999999999957
20
-60.598076211353209
10
-85.499999999999972
20
-60.598076211353202
10
-83.999999999999986
20
-63.196152422706504
10
-85.499999999999972
20
-65.794228634059792
0
LWPOLYLINE
5
223
100
AcDbEntity
8
0
100
AcDbPolyline
90
6
70
1
43
0.0
10
-73.499999999999957
20
-65.794228634059834
10
-74.999999999999972
20
-63.196152422706533
10
-73.499999999999957
20
-60.598076211353231
10
-70.499999999999972
20
-60.598076211353231
10
-68.999999999999986
20
-63.196152422706518
10
-70.499999999999972
20
-65.79422863405982
0
LWPOLYLINE
5
224
100
AcDbEntity
8
0
100
AcDbPolyline
90
6
70
1
43
0.0
10
-58.499999999999957
20
-65.794228634059849
10
-59.999999999999964
20
-63.196152422706547
10
-58.499999999999957
20
-60.598076211353259
10
-55.499999999999972
20
-60.598076211353245
10
-53.999999999999986
20
-63.196152422706547
10
-55.499999999999972
20
-65.794228634059849
0
LWPOLYLINE
5
225
100
AcDbEntity
8
0
100
AcDbPolyline
90
6
70
1
43
0.0
10
-43.499999999999957
20
-65.794228634059877
10
-44.999999999999964
20
-63.196152422706575
10
-43.499999999999957
20
-60.59807621135328
10
-40.499999999999972
20
-60.598076211353273
10
-38.999999999999986
20
-63.196152422706575
10
-40.499999999999972
20
-65.794228634059863
0
LWPOLYLINE
5
226
100
AcDbEntity
8
0
100
AcDbPolyline
90
6
70
1
43
0.0
10
-28.499999999999961
20
-65.794228634059891
10
-29.999999999999964
20
-63.196152422706589
10
-28.499999999999961
20
-60.598076211353302
10
-25.499999999999972
20
-60.598076211353288
10
-23.999999999999986
20
-63.196152422706589
10
-25.499999999999972
20
-65.794228634059891
0
LWPOLYLINE
5
227
100
AcDbEntity
8
0
100
AcDbPolyline
90
6
70
1
43
0.0
10
-13.499999999999961
20
-65.79422863405992
10
-14.999999999999964
20
-63.196152422706611
10
-13.499999999999961
20
-60.598076211353316
10
-10.499999999999972
20
-60.598076211353309
10
-8.9999999999999858
20
-63.196152422706611
10
-10.499999999999972
20
-65.79422863405992
0
LWPOLYLINE
5
228
100
AcDbEntity
8
0
100
AcDbPolyline
90
6
70
1
43
0.0
10
-88.499999999999957
20
-54.794228634059849
10
-89.999999999999972
20
-52.196152422706547
10
-88.499999999999957
20
-49.598076211353252
10
-85.499999999999972
20
-49.598076211353245
10
-83.999999999999986
20
-52.196152422706547
10
-85.499999999999972
20
-54.794228634059834
0
LWPOLYLINE
5
229
100
AcDbEntity
8
0
100
AcDbPolyline
90
6
70
1
43
0.0
10
-73.499999999999957
20
-54.794228634059863
10
-74.999999999999972
20
-52.196152422706561
10
-73.499999999999957
20
-49.598076211353266
10
-70.499999999999972
20
-49.598076211353259
10
-68.999999999999986
20
-52.196152422706561
10
-70.499999999999972
20
-54.794228634059856
0
LWPOLYLINE
5
230
100
AcDbEntity
8
0
100
AcDbPolyline
90
6
70
1
43
0.0
10
-58.499999999999957
20
-54.794228634059877
10
-59.999999999999964
20
-52.196152422706575
10
-58.499999999999957
20
-49.598076211353288
10
-55.499999999999972
20
-49.598076211353273
10
-53.999999999999986
20
-52.196152422706575
10
-55.499999999999972
20
-54.794228634059877
0
LWPOLYLINE
5
231
100
AcDbEntity
8
0
100
AcDbPolyline
90
6
70
1
43
0.0
10
-43.499999999999957
20
-54.794228634059905
10
-44.999999999999964
20
-52.196152422706604
10
-43.499999999999957
20
-49.598076211353316
10
-40.499999999999972
20
-49.598076211353302
10
-38.999999999999986
20
-52.196152422706604
10
-40.499999999999972
20
-54.794228634059905
0
LWPOLYLINE
5
232
100
AcDbEntity
8
0
100
AcDbPolyline
90
6
70
1
43
0.0
10
-28.499999999999961
20
-54.794228634059934
10
-29.999999999999964
20
-52.196152422706632
10
-28.499999999999961
20
-49.598076211353337
10
-25.499999999999972
20
-49.59807621135333
10
-23.999999999999986
20
-52.196152422706632
10
-25.499999999999972
20
-54.794228634059927
0
LWPOLYLINE
5
233
100
AcDbEntity
8
0
100
AcDbPolyline
90
6
70
1
43
0.0
10
-13.499999999999961
20
-54.794228634059948
10
-14.999999999999964
20
-52.196152422706646
10
-13.499999999999961
20
-49.598076211353359
10
-10.499999999999972
20
-49.598076211353344
10
-8.9999999999999858
20
-52.196152422706646
10
-10.499999999999972
20
-54.794228634059941
0
LWPOLYLINE
5
234
100
AcDbEntity
8
0
100
AcDbPolyline
90
6
70
1
43
0.0
10
-88.499999999999957
20
-43.794228634059884
10
-89.999999999999972
20
-41.196152422706582
10
-88.499999999999957
20
-38.598076211353273
10
-85.499999999999972
20
-38.598076211353273
10
-83.999999999999986
20
-41.196152422706575
10
-85.499999999999972
20
-43.794228634059877
0
LWPOLYLINE
5
235
100
AcDbEntity
8
0
100
AcDbPolyline
90
6
70
1
43
0.0
10
-73.499999999999957
20
-43.794228634059905
10
-74.999999999999972
20
-41.196152422706604
10
-73.499999999999957
20
-38.598076211353295
10
-70.499999999999972
20
-38.598076211353295
10
-68.999999999999986
20
-41.196152422706604
10
-70.499999999999972
20
-43.794228634059891
0
LWPOLYLINE
5
236
100
AcDbEntity
8
0
100
AcDbPolyline
90
6
70
1
43
0.0
10
-58.499999999999957
20
-43.794228634059927
10
-59.999999999999964
20
-41.196152422706625
10
-58.499999999999957
20
-38.598076211353309
10
-55.499999999999972
20
-38.598076211353323
10
-53.999999999999986
20
-41.196152422706618
10
-55.499999999999972
20
-43.794228634059913
0
LWPOLYLINE
5
237
100
AcDbEntity
8
0
100
AcDbPolyline
90
6
70
1
43
0.0
10
-43.499999999999957
20
-43.794228634059948
10
-44.999999999999964
20
-41.196152422706646
10
-43.499999999999957
20
-38.598076211353337
10
-40.499999999999972
20
-38.598076211353337
10
-38.999999999999986
20
-41.196152422706632
10
-40.499999999999972
20
-43.794228634059934
0
LWPOLYLINE
5
238
100
AcDbEntity
8
0
100
AcDbPolyline
90
6
70
1
43
0.0
10
-28.499999999999961
20
-43.794228634059976
10
-29.999999999999964
20
-41.196152422706675
10
-28.499999999999961
20
-38.598076211353359
10
-25.499999999999972
20
-38.598076211353366
10
-23.999999999999986
20
-41.19615242270666
10
-25.499999999999972
20
-43.794228634059962
0
LWPOLYLINE
5
239
100
AcDbEntity
8
0
100
AcDbPolyline
90
6
70
1
43
0.0
10
-13.499999999999961
20
-43.794228634059991
10
-14.999999999999964
20
-41.196152422706689
10
-13.499999999999961
20
-38.59807621135338
10
-10.499999999999972
20
-38.59807621135338
10
-8.9999999999999858
20
-41.196152422706689
10
-10.499999999999972
20
-43.794228634059984
0
LWPOLYLINE
5
240
100
AcDbEntity
8
0
100
AcDbPolyline
90
6
70
1
43
0.0
10
-88.499999999999957
20
-32.79422863405992
10
-89.999999999999972
20
-30.196152422706604
10
-88.499999999999957
20
-27.598076211353316
10
-85.499999999999972
20
-27.598076211353298
10
-83.999999999999986
20
-30.196152422706611
10
-85.499999999999972
20
-32.794228634059898
0
LWPOLYLINE
5
241
100
AcDbEntity
8
0
100
AcDbPolyline
90
6
70
1
43
0.0
10
-73.499999999999957
20
-32.794228634059934
10
-74.999999999999972
20
-30.196152422706621
10
-73.499999999999957
20
-27.598076211353334
10
-70.499999999999972
20
-27.598076211353316
10
-68.999999999999986
20
-30.196152422706632
10
-70.499999999999972
20
-32.794228634059927
0
LWPOLYLINE
5
242
100
AcDbEntity
8
0
100
AcDbPolyline
90
6
70
1
43
0.0
10
-58.499999999999957
20
-32.794228634059962
10
-59.999999999999964
20
-30.196152422706646
10
-58.499999999999957
20
-27.598076211353352
10
-55.499999999999972
20
-27.598076211353341
10
-53.999999999999986
20
-30.196152422706646
10
-55.499999999999972
20
-32.794228634059948
0
LWPOLYLINE
5
243
100
AcDbEntity
8
0
100
AcDbPolyline
90
6
70
1
43
0.0
10
-43.499999999999957
20
-32.794228634059984
10
-44.999999999999964
20
-30.196152422706668
10
-43.499999999999957
20
-27.598076211353376
10
-40.499999999999972
20
-27.598076211353359
10
-38.999999999999986
20
-30.196152422706675
10
-40.499999999999972
20
-32.794228634059962
0
LWPOLYLINE
5
244
100
AcDbEntity
8
0
100
AcDbPolyline
90
6
70
1
43
0.0
10
-28.499999999999961
20
-32.794228634060005
10
-29.999999999999964
20
-30.196152422706692
10
-28.499999999999961
20
-27.598076211353394
10
-25.499999999999972
20
-27.598076211353387
10
-23.999999999999986
20
-30.196152422706692
10
-25.499999999999972
20
-32.794228634059991
0
LWPOLYLINE
5
245
100
AcDbEntity
8
0
100
AcDbPolyline
90
6
70
1
43
0.0
10
-13.499999999999961
20
-32.794228634060026
10
-14.999999999999964
20
-30.19615242270671
10
-13.499999999999961
20
-27.598076211353423
10
-10.499999999999972
20
-27.598076211353405
10
-8.9999999999999858
20
-30.196152422706717
10
-10.499999999999972
20
-32.794228634060005
0
LWPOLYLINE
5
246
100
AcDbEntity
8
0
100
AcDbPolyline
90
6
70
1
43
0.0
10
-88.499999999999957
20
-21.794228634059948
10
-89.999999999999972
20
-19.196152422706643
10
-88.499999999999957
20
-16.598076211353344
10
-85.499999999999972
20
-16.598076211353337
10
-83.999999999999986
20
-19.196152422706643
10
-85.499999999999972
20
-21.794228634059941
0
LWPOLYLINE
5
247
100
AcDbEntity
8
0
100
AcDbPolyline
90
6
70
1
43
0.0
10
-73.499999999999957
20
-21.794228634059966
10
-74.999999999999972
20
-19.19615242270666
10
-73.499999999999957
20
-16.598076211353362
10
-70.499999999999972
20
-16.598076211353355
10
-68.999999999999986
20
-19.19615242270666
10
-70.499999999999972
20
-21.794228634059966
0
LWPOLYLINE
5
248
100
AcDbEntity
8
0
100
AcDbPolyline
90
6
70
1
43
0.0
10
-58.499999999999957
20
-21.794228634059994
10
-59.999999999999964
20
-19.196152422706689
10
-58.499999999999957
20
-16.59807621135338
10
-55.499999999999972
20
-16.59807621135338
10
-53.999999999999986
20
-19.196152422706678
10
-55.499999999999972
20
-21.794228634059984
0
LWPOLYLINE
5
249
100
AcDbEntity
8
0
100
AcDbPolyline
90
6
70
1
43
0.0
10
-43.499999999999957
20
-21.794228634060012
10
-44.999999999999964
20
-19.196152422706703
10
-43.499999999999957
20
-16.598076211353408
10
-40.499999999999972
20
-16.598076211353398
10
-38.999999999999986
20
-19.196152422706703
10
-40.499999999999972
20
-21.794228634060001
0
LWPOLYLINE
5
250
100
AcDbEntity
8
0
100
AcDbPolyline
90
6
70
1
43
0.0
10
-28.499999999999961
20
-21.794228634060037
10
-29.999999999999964
20
-19.196152422706731
10
-28.499999999999961
20
-16.598076211353426
10
-25.499999999999972
20
-16.598076211353426
10
-23.999999999999986
20
-19.196152422706724
10
-25.499999999999972
20
-21.79422863406003
0
LWPOLYLINE
5
251
100
AcDbEntity
8
0
100
AcDbPolyline
90
6
70
1
43
0.0
10
-13.499999999999961
20
-21.794228634060055
10
-14.999999999999964
20
-19.196152422706749
10
-13.499999999999961
20
-16.598076211353451
10
-10.499999999999972
20
-16.598076211353444
10
-8.9999999999999858
20
-19.196152422706749
10
-10.499999999999972
20
-21.794228634060048
0
LWPOLYLINE
5
252
100
AcDbEntity
8
0
100
AcDbPolyline
90
6
70
1
43
0.0
10
-88.499999999999957
20
-10.79422863405998
10
-89.999999999999972
20
-8.1961524227066729
10
-88.499999999999957
20
-5.5980762113533755
10
-85.499999999999972
20
-5.5980762113533675
10
-83.999999999999986
20
-8.1961524227066747
10
-85.499999999999972
20
-10.794228634059969
0
LWPOLYLINE
5
253
100
AcDbEntity
8
0
100
AcDbPolyline
90
6
70
1
43
0.0
10
-73.499999999999957
20
-10.794228634059998
10
-74.999999999999972
20
-8.1961524227066906
10
-73.499999999999957
20
-5.5980762113533933
10
-70.499999999999972
20
-5.5980762113533853
10
-68.999999999999986
20
-8.1961524227066924
10
-70.499999999999972
20
-10.794228634059998
0
LWPOLYLINE
5
254
100
AcDbEntity
8
0
100
AcDbPolyline
90
6
70
1
43
0.0
10
-58.499999999999957
20
-10.794228634060023
10
-59.999999999999964
20
-8.1961524227067173
10
-58.499999999999957
20
-5.598076211353411
10
-55.499999999999972
20
-5.5980762113534119
10
-53.999999999999986
20
-8.1961524227067102
10
-55.499999999999972
20
-10.794228634060016
0
LWPOLYLINE
5
255
100
AcDbEntity
8
0
100
AcDbPolyline
90
6
70
1
43
0.0
10
-43.499999999999957
20
-10.79422863406004
10
-44.999999999999964
20
-8.1961524227067351
10
-43.499999999999957
20
-5.5980762113534377
10
-40.499999999999972
20
-5.5980762113534297
10
-38.999999999999986
20
-8.1961524227067368
10
-40.499999999999972
20
-10.794228634060033
0
LWPOLYLINE
5
256
100
AcDbEntity
8
0
100
AcDbPolyline
90
6
70
1
43
0.0
10
-28.499999999999961
20
-10.794228634060069
10
-29.999999999999964
20
-8.1961524227067617
10
-28.499999999999961
20
-5.5980762113534555
10
-25.499999999999972
20
-5.5980762113534563
10
-23.999999999999986
20
-8.1961524227067546
10
-25.499999999999972
20
-10.794228634060058
0
LWPOLYLINE
5
257
100
AcDbEntity
8
0
100
AcDbPolyline
90
6
70
1
43
0.0
10
-8.999999999999968
20
-5.5980762113534768
10
-7.4999999999999645
20
-3.000000000000167
10
-4.499999999999976
20
-3.0000000000001723
10
-2.9999999999999898
20
-5.5980762113534697
10
-4.4999999999999751
20
-8.1961524227067741
10
-7.4999999999999645
20
-8.1961524227067741
0
LWPOLYLINE
5
258
100
AcDbEntity
8
0
100
AcDbPolyline
90
6
70
1
43
0.0
10
-10.499999999999972
20
-5.5980762113534741
10
-8.9999999999999858
20
-8.1961524227067795
10
-10.499999999999972
20
-10.794228634060076
10
-13.499999999999961
20
-10.794228634060087
10
-14.999999999999964
20
-8.1961524227067777
10
-13.499999999999961
20
-5.5980762113534821
0
LWPOLYLINE
5
259
100
AcDbEntity
8
0
100
AcDbPolyline
90
24
70
1
43
0.0
10
-92.249999999999972
20
-2.2759572004815709e-14
10
-92.249999999999972
20
4.4999999999999574
10
-124.49999999999997
20
4.5000000000000018
10
-124.49999999999997
20
-26.166666666666579
10
-119.99999999999999
20
-26.166666666666586
10
-119.99999999999999
20
-56.833333333333165
10
-124.49999999999997
20
-56.833333333333158
10
-124.49999999999997
20
-87.49999999999973
10
-92.249999999999972
20
-87.499999999999787
10
-92.249999999999972
20
-82.999999999999801
10
-59.999999999999986
20
-82.999999999999844
10
-59.999999999999986
20
-87.499999999999829
10
-27.749999999999986
20
-87.499999999999872
10
-27.749999999999986
20
-82.999999999999901
10
1.7441712413531871e-14
20
-82.999999999999943
10
1.7208456881689926e-14
20
-56.833333333333336
10
4.5000000000000098
20
-56.833333333333336
10
4.5000000000000098
20
-26.166666666666757
10
1.7441712413531871e-14
20
-26.166666666666757
10
1.7763568394002505e-14
20
-1.4660161947741218e-13
10
-27.749999999999968
20
-1.1157741397482823e-13
10
-27.749999999999968
20
4.4999999999998579
10
-59.999999999999972
20
4.4999999999999094
10
-59.999999999999986
20
-6.4278582201456819e-14
0
ENDSEC
0
SECTION
2
OBJECTS
0
DICTIONARY
5
C
100
AcDbDictionary
3
ACAD_GROUP
350
D
3
ACAD_MLINESTYLE
350
17
0
DICTIONARY
5
D
100
AcDbDictionary
0
DICTIONARY
5
1A
330
C
100
AcDbDictionary
0
DICTIONARY
5
17
100
AcDbDictionary
0
ENDSEC
0
EOF
