0
SECTION
2
HEADER
9
$INSUNITS
70
4
9
$ACADVER
1
AC1014
9
$HANDSEED
5
FFFF
0
ENDSEC
0
SECTION
2
TABLES
0
TABLE
2
VPORT
5
8
100
AcDbSymbolTable
0
ENDTAB
0
TABLE
2
LTYPE
5
5
100
AcDbSymbolTable
0
LTYPE
5
14
100
AcDbSymbolTableRecord
100
AcDbLinetypeTableRecord
2
BYBLOCK
70
0
0
LTYPE
5
15
100
AcDbSymbolTableRecord
100
AcDbLinetypeTableRecord
2
BYLAYER
70
0
0
ENDTAB
0
TABLE
2
LAYER
5
2
100
AcDbSymbolTable
70
2
0
LAYER
5
50
100
AcDbSymbolTableRecord
100
AcDbLayerTableRecord
2
0
70
0
6
CONTINUOUS
0
ENDTAB
0
TABLE
2
STYLE
5
3
100
AcDbSymbolTable
70
1
0
STYLE
5
11
100
AcDbSymbolTableRecord
100
AcDbTextStyleTableRecord
2
STANDARD
70
0
0
ENDTAB
0
TABLE
2
VIEW
5
6
100
AcDbSymbolTable
70
0
0
ENDTAB
0
TABLE
2
UCS
5
7
100
AcDbSymbolTable
70
0
0
ENDTAB
0
TABLE
2
APPID
5
9
100
AcDbSymbolTable
70
2
0
APPID
5
12
100
AcDbSymbolTableRecord
100
AcDbRegAppTableRecord
2
ACAD
70
0
0
ENDTAB
0
TABLE
2
DIMSTYLE
5
A
100
AcDbSymbolTable
70
1
0
ENDTAB
0
TABLE
2
BLOCK_RECORD
5
1
100
AcDbSymbolTable
70
1
0
BLOCK_RECORD
5
1F
100
AcDbSymbolTableRecord
100
AcDbBlockTableRecord
2
*MODEL_SPACE
0
BLOCK_RECORD
5
1B
100
AcDbSymbolTableRecord
100
AcDbBlockTableRecord
2
*PAPER_SPACE
0
ENDTAB
0
ENDSEC
0
SECTION
2
BLOCKS
0
BLOCK
5
20
100
AcDbEntity
100
AcDbBlockBegin
2
*MODEL_SPACE
0
ENDBLK
5
21
100
AcDbEntity
100
AcDbBlockEnd
0
BLOCK
5
1C
100
AcDbEntity
100
AcDbBlockBegin
2
*PAPER_SPACE
0
ENDBLK
5
1D
100
AcDbEntity
100
AcDbBlockEnd
0
ENDSEC
0
SECTION
2
ENTITIES
0
LWPOLYLINE
5
100
100
AcDbEntity
8
0
100
AcDbPolyline
90
6
70
1
43
0.0
10
78
20
15.803847577293348
10
79.500000000000014
20
13.205771365940038
10
82.5
20
13.205771365940082
10
83.999999999999986
20
15.803847577293366
10
82.5
20
18.401923788646677
10
79.5
20
18.40192378864667
0
LWPOLYLINE
5
101
100
AcDbEntity
8
0
100
AcDbPolyline
90
6
70
1
43
0.0
10
63
20
15.803847577293348
10
64.500000000000014
20
13.205771365940038
10
67.500000000000014
20
13.205771365940082
10
68.999999999999986
20
15.803847577293366
10
67.499999999999986
20
18.401923788646677
10
64.5
20
18.40192378864667
0
LWPOLYLINE
5
102
100
AcDbEntity
8
0
100
AcDbPolyline
90
6
70
1
43
0.0
10
48
20
15.803847577293348
10
49.500000000000014
20
13.205771365940038
10
52.500000000000007
20
13.205771365940082
10
53.999999999999986
20
15.803847577293366
10
52.499999999999993
20
18.401923788646677
10
49.499999999999993
20
18.40192378864667
0
LWPOLYLINE
5
103
100
AcDbEntity
8
0
100
AcDbPolyline
90
6
70
1
43
0.0
10
33
20
15.803847577293348
10
34.500000000000007
20
13.205771365940038
10
37.500000000000007
20
13.205771365940082
10
38.999999999999979
20
15.803847577293366
10
37.499999999999993
20
18.401923788646677
10
34.499999999999986
20
18.40192378864667
0
LWPOLYLINE
5
104
100
AcDbEntity
8
0
100
AcDbPolyline
90
6
70
1
43
0.0
10
18
20
15.803847577293348
10
19.500000000000007
20
13.205771365940038
10
22.500000000000007
20
13.205771365940082
10
23.999999999999982
20
15.803847577293366
10
22.499999999999993
20
18.401923788646677
10
19.499999999999989
20
18.40192378864667
0
LWPOLYLINE
5
105
100
AcDbEntity
8
0
100
AcDbPolyline
90
6
70
1
43
0.0
10
3
20
15.803847577293348
10
4.5000000000000071
20
13.205771365940038
10
7.5000000000000071
20
13.205771365940082
10
8.9999999999999822
20
15.803847577293366
10
7.4999999999999911
20
18.401923788646677
10
4.4999999999999902
20
18.40192378864667
0
LWPOLYLINE
5
106
100
AcDbEntity
8
0
100
AcDbPolyline
90
6
70
1
43
0.0
10
78
20
25.803847577293347
10
79.500000000000014
20
23.205771365940038
10
82.5
20
23.20577136594008
10
83.999999999999986
20
25.803847577293368
10
82.5
20
28.401923788646677
10
79.5
20
28.40192378864667
0
LWPOLYLINE
5
107
100
AcDbEntity
8
0
100
AcDbPolyline
90
6
70
1
43
0.0
10
63
20
25.803847577293347
10
64.500000000000014
20
23.205771365940038
10
67.500000000000014
20
23.20577136594008
10
68.999999999999986
20
25.803847577293368
10
67.499999999999986
20
28.401923788646677
10
64.5
20
28.40192378864667
0
LWPOLYLINE
5
108
100
AcDbEntity
8
0
100
AcDbPolyline
90
6
70
1
43
0.0
10
48
20
25.803847577293347
10
49.500000000000014
20
23.205771365940038
10
52.500000000000007
20
23.20577136594008
10
53.999999999999986
20
25.803847577293368
10
52.499999999999993
20
28.401923788646677
10
49.499999999999993
20
28.40192378864667
0
LWPOLYLINE
5
109
100
AcDbEntity
8
0
100
AcDbPolyline
90
6
70
1
43
0.0
10
33
20
25.803847577293347
10
34.500000000000007
20
23.205771365940038
10
37.500000000000007
20
23.20577136594008
10
38.999999999999979
20
25.803847577293368
10
37.499999999999993
20
28.401923788646677
10
34.499999999999986
20
28.40192378864667
0
LWPOLYLINE
5
110
100
AcDbEntity
8
0
100
AcDbPolyline
90
6
70
1
43
0.0
10
18
20
25.803847577293347
10
19.500000000000007
20
23.205771365940038
10
22.500000000000007
20
23.20577136594008
10
23.999999999999982
20
25.803847577293368
10
22.499999999999993
20
28.401923788646677
10
19.499999999999989
20
28.40192378864667
0
LWPOLYLINE
5
111
100
AcDbEntity
8
0
100
AcDbPolyline
90
6
70
1
43
0.0
10
3
20
25.803847577293347
10
4.5000000000000071
20
23.205771365940038
10
7.5000000000000071
20
23.20577136594008
10
8.9999999999999822
20
25.803847577293368
10
7.4999999999999911
20
28.401923788646677
10
4.4999999999999902
20
28.40192378864667
0
LWPOLYLINE
5
112
100
AcDbEntity
8
0
100
AcDbPolyline
90
6
70
1
43
0.0
10
78
20
35.803847577293347
10
79.500000000000014
20
33.205771365940038
10
82.5
20
33.20577136594008
10
83.999999999999986
20
35.803847577293368
10
82.5
20
38.401923788646677
10
79.5
20
38.40192378864667
0
LWPOLYLINE
5
113
100
AcDbEntity
8
0
100
AcDbPolyline
90
6
70
1
43
0.0
10
63
20
35.803847577293347
10
64.500000000000014
20
33.205771365940038
10
67.500000000000014
20
33.20577136594008
10
68.999999999999986
20
35.803847577293368
10
67.499999999999986
20
38.401923788646677
10
64.5
20
38.40192378864667
0
LWPOLYLINE
5
114
100
AcDbEntity
8
0
100
AcDbPolyline
90
6
70
1
43
0.0
10
48
20
35.803847577293347
10
49.500000000000014
20
33.205771365940038
10
52.500000000000007
20
33.20577136594008
10
53.999999999999986
20
35.803847577293368
10
52.499999999999993
20
38.401923788646677
10
49.499999999999993
20
38.40192378864667
0
LWPOLYLINE
5
115
100
AcDbEntity
8
0
100
AcDbPolyline
90
6
70
1
43
0.0
10
33
20
35.803847577293347
10
34.500000000000007
20
33.205771365940038
10
37.500000000000007
20
33.20577136594008
10
38.999999999999979
20
35.803847577293368
10
37.499999999999993
20
38.401923788646677
10
34.499999999999986
20
38.40192378864667
0
LWPOLYLINE
5
116
100
AcDbEntity
8
0
100
AcDbPolyline
90
6
70
1
43
0.0
10
18
20
35.803847577293347
10
19.500000000000007
20
33.205771365940038
10
22.500000000000007
20
33.20577136594008
10
23.999999999999982
20
35.803847577293368
10
22.499999999999993
20
38.401923788646677
10
19.499999999999989
20
38.40192378864667
0
LWPOLYLINE
5
117
100
AcDbEntity
8
0
100
AcDbPolyline
90
6
70
1
43
0.0
10
83.999999999999986
20
18.401923788646695
10
85.5
20
15.803847577293366
10
88.5
20
15.803847577293372
10
90
20
18.401923788646691
10
88.5
20
21.000000000000007
10
85.499999999999986
20
21.000000000000007
0
LWPOLYLINE
5
118
100
AcDbEntity
8
0
100
AcDbPolyline
90
6
70
1
43
0.0
10
69
20
18.401923788646695
10
70.5
20
15.803847577293366
10
73.5
20
15.803847577293372
10
74.999999999999986
20
18.401923788646691
10
73.499999999999986
20
21.000000000000007
10
70.499999999999986
20
21.000000000000007
0
LWPOLYLINE
5
119
100
AcDbEntity
8
0
100
AcDbPolyline
90
6
70
1
43
0.0
10
53.999999999999993
20
18.401923788646695
10
55.5
20
15.803847577293366
10
58.5
20
15.803847577293372
10
59.999999999999993
20
18.401923788646691
10
58.499999999999986
20
21.000000000000007
10
55.499999999999986
20
21.000000000000007
0
LWPOLYLINE
5
120
100
AcDbEntity
8
0
100
AcDbPolyline
90
6
70
1
43
0.0
10
38.999999999999993
20
18.401923788646695
10
40.5
20
15.803847577293366
10
43.5
20
15.803847577293372
10
44.999999999999993
20
18.401923788646691
10
43.499999999999986
20
21.000000000000007
10
40.499999999999986
20
21.000000000000007
0
LWPOLYLINE
5
121
100
AcDbEntity
8
0
100
AcDbPolyline
90
6
70
1
43
0.0
10
23.999999999999993
20
18.401923788646695
10
25.5
20
15.803847577293366
10
28.499999999999996
20
15.803847577293372
10
29.999999999999993
20
18.401923788646691
10
28.499999999999986
20
21.000000000000007
10
25.499999999999989
20
21.000000000000007
0
LWPOLYLINE
5
122
100
AcDbEntity
8
0
100
AcDbPolyline
90
6
70
1
43
0.0
10
8.9999999999999929
20
18.401923788646695
10
10.499999999999998
20
15.803847577293366
10
13.499999999999998
20
15.803847577293372
10
14.999999999999993
20
18.401923788646691
10
13.499999999999989
20
21.000000000000007
10
10.499999999999989
20
21.000000000000007
0
LWPOLYLINE
5
123
100
AcDbEntity
8
0
100
AcDbPolyline
90
6
70
1
43
0.0
10
83.999999999999986
20
28.401923788646695
10
85.5
20
25.803847577293368
10
88.5
20
25.803847577293372
10
90
20
28.401923788646691
10
88.5
20
31.000000000000007
10
85.499999999999986
20
31.000000000000007
0
LWPOLYLINE
5
124
100
AcDbEntity
8
0
100
AcDbPolyline
90
6
70
1
43
0.0
10
69
20
28.401923788646695
10
70.5
20
25.803847577293368
10
73.5
20
25.803847577293372
10
74.999999999999986
20
28.401923788646691
10
73.499999999999986
20
31.000000000000007
10
70.499999999999986
20
31.000000000000007
0
LWPOLYLINE
5
125
100
AcDbEntity
8
0
100
AcDbPolyline
90
6
70
1
43
0.0
10
53.999999999999993
20
28.401923788646695
10
55.5
20
25.803847577293368
10
58.5
20
25.803847577293372
10
59.999999999999993
20
28.401923788646691
10
58.499999999999986
20
31.000000000000007
10
55.499999999999986
20
31.000000000000007
0
LWPOLYLINE
5
126
100
AcDbEntity
8
0
100
AcDbPolyline
90
6
70
1
43
0.0
10
38.999999999999993
20
28.401923788646695
10
40.5
20
25.803847577293368
10
43.5
20
25.803847577293372
10
44.999999999999993
20
28.401923788646691
10
43.499999999999986
20
31.000000000000007
10
40.499999999999986
20
31.000000000000007
0
LWPOLYLINE
5
127
100
AcDbEntity
8
0
100
AcDbPolyline
90
6
70
1
43
0.0
10
23.999999999999993
20
28.401923788646695
10
25.5
20
25.803847577293368
10
28.499999999999996
20
25.803847577293372
10
29.999999999999993
20
28.401923788646691
10
28.499999999999986
20
31.000000000000007
10
25.499999999999989
20
31.000000000000007
0
LWPOLYLINE
5
128
100
AcDbEntity
8
0
100
AcDbPolyline
90
6
70
1
43
0.0
10
8.9999999999999929
20
28.401923788646695
10
10.499999999999998
20
25.803847577293368
10
13.499999999999998
20
25.803847577293372
10
14.999999999999993
20
28.401923788646691
10
13.499999999999989
20
31.000000000000007
10
10.499999999999989
20
31.000000000000007
0
LWPOLYLINE
5
129
100
AcDbEntity
8
0
100
AcDbPolyline
90
6
70
1
43
0.0
10
83.999999999999986
20
38.401923788646698
10
85.5
20
35.803847577293368
10
88.5
20
35.803847577293368
10
90
20
38.401923788646691
10
88.5
20
41.000000000000007
10
85.499999999999986
20
41.000000000000007
0
LWPOLYLINE
5
130
100
AcDbEntity
8
0
100
AcDbPolyline
90
6
70
1
43
0.0
10
69
20
38.401923788646698
10
70.5
20
35.803847577293368
10
73.5
20
35.803847577293368
10
74.999999999999986
20
38.401923788646691
10
73.499999999999986
20
41.000000000000007
10
70.499999999999986
20
41.000000000000007
0
LWPOLYLINE
5
131
100
AcDbEntity
8
0
100
AcDbPolyline
90
6
70
1
43
0.0
10
53.999999999999993
20
38.401923788646698
10
55.5
20
35.803847577293368
10
58.5
20
35.803847577293368
10
59.999999999999993
20
38.401923788646691
10
58.499999999999986
20
41.000000000000007
10
55.499999999999986
20
41.000000000000007
0
LWPOLYLINE
5
132
100
AcDbEntity
8
0
100
AcDbPolyline
90
6
70
1
43
0.0
10
38.999999999999993
20
38.401923788646698
10
40.5
20
35.803847577293368
10
43.5
20
35.803847577293368
10
44.999999999999993
20
38.401923788646691
10
43.499999999999986
20
41.000000000000007
10
40.499999999999986
20
41.000000000000007
0
LWPOLYLINE
5
133
100
AcDbEntity
8
0
100
AcDbPolyline
90
6
70
1
43
0.0
10
23.999999999999993
20
38.401923788646698
10
25.5
20
35.803847577293368
10
28.499999999999996
20
35.803847577293368
10
29.999999999999993
20
38.401923788646691
10
28.499999999999986
20
41.000000000000007
10
25.499999999999989
20
41.000000000000007
0
LWPOLYLINE
5
134
100
AcDbEntity
8
0
100
AcDbPolyline
90
6
70
1
43
0.0
10
8.9999999999999822
20
35.803847577293368
10
7.4999999999999911
20
38.401923788646677
10
4.4999999999999902
20
38.40192378864667
10
3
20
35.803847577293347
10
4.5000000000000071
20
33.205771365940038
10
7.5000000000000071
20
33.20577136594008
0
LWPOLYLINE
5
135
100
AcDbEntity
8
0
100
AcDbPolyline
90
6
70
1
43
0.0
10
14.999999999999993
20
38.401923788646691
10
13.499999999999989
20
41.000000000000007
10
10.499999999999989
20
41.000000000000007
10
8.9999999999999929
20
38.401923788646698
10
10.499999999999998
20
35.803847577293368
10
13.499999999999998
20
35.803847577293368
0
LWPOLYLINE
5
136
100
AcDbEntity
8
0
100
AcDbPolyline
90
20
70
1
43
0.0
10
124.50000000000001
20
24.250000000000004
10
124.50000000000001
20
0
10
92.250000000000014
20
0
10
92.250000000000014
20
4.5
10
60.000000000000007
20
4.5
10
60.000000000000007
20
0
10
27.75
20
0
10
27.75
20
4.5
10
0
20
4.5
10
0
20
24.250000000000004
10
-4.5
20
24.250000000000004
10
-4.5000000000000018
20
48.500000000000007
10
27.750000000000018
20
48.500000000000007
10
27.750000000000018
20
44
10
60.000000000000014
20
44
10
60.000000000000014
20
48.500000000000007
10
92.250000000000014
20
48.500000000000007
10
92.250000000000014
20
44
10
120.00000000000001
20
44
10
120.00000000000001
20
24.250000000000004
0
ENDSEC
0
SECTION
2
OBJECTS
0
DICTIONARY
5
C
100
AcDbDictionary
3
ACAD_GROUP
350
D
3
ACAD_MLINESTYLE
350
17
0
DICTIONARY
5
D
100
AcDbDictionary
0
DICTIONARY
5
1A
330
C
100
AcDbDictionary
0
DICTIONARY
5
17
100
AcDbDictionary
0
ENDSEC
0
EOF
